<svg version="1.2" xmlns="http://www.w3.org/2000/svg" viewBox="0 0 960 751" width="960" height="751">
	<title>19362653-ai</title>
	<defs>
		<linearGradient id="g1" x1="191.6" y1="440.4" x2="191.6" y2="303.7" gradientUnits="userSpaceOnUse">
			<stop offset="0" stop-color="#dbccff"/>
			<stop offset="1" stop-color="#d1bbff"/>
		</linearGradient>
		<linearGradient id="g2" x1="193.9" y1="445.4" x2="193.9" y2="308.7" gradientUnits="userSpaceOnUse">
			<stop offset="0" stop-color="#b5a6e7"/>
			<stop offset="1" stop-color="#7760bf"/>
		</linearGradient>
		<linearGradient id="g3" x1="197.7" y1="413" x2="197.7" y2="355.5" gradientUnits="userSpaceOnUse">
			<stop offset="0" stop-color="#b5a6e7"/>
			<stop offset="1" stop-color="#7760bf"/>
		</linearGradient>
		<linearGradient id="g4" x1="176.8" y1="357.9" x2="192.2" y2="350.7" gradientUnits="userSpaceOnUse">
			<stop offset="0" stop-color="#8b8be0"/>
			<stop offset="1" stop-color="#a177b7"/>
		</linearGradient>
		<linearGradient id="g5" x1="173.1" y1="369.2" x2="168.8" y2="359.8" gradientUnits="userSpaceOnUse">
			<stop offset="0" stop-color="#ffffff"/>
			<stop offset="1" stop-color="#a177b7"/>
		</linearGradient>
		<linearGradient id="g6" x1="215.6" y1="416.6" x2="187.6" y2="356.7" gradientUnits="userSpaceOnUse">
			<stop offset="0" stop-color="#000000"/>
			<stop offset="1" stop-color="#ffffff"/>
		</linearGradient>
		<linearGradient id="g7" x1="312.8" y1="751" x2="312.8" y2="572.6" gradientUnits="userSpaceOnUse">
			<stop offset="0" stop-color="#6456c0"/>
			<stop offset="1" stop-color="#5f2c95"/>
		</linearGradient>
		<radialGradient id="g8" cx="361.7" cy="686.8" r="31.4" gradientUnits="userSpaceOnUse">
			<stop offset="0" stop-color="#4b474b"/>
			<stop offset="1" stop-color="#000000"/>
		</radialGradient>
		<radialGradient id="g9" cx="528.1" cy="685.9" r="31.6" gradientUnits="userSpaceOnUse">
			<stop offset="0" stop-color="#4b474b"/>
			<stop offset="1" stop-color="#000000"/>
		</radialGradient>
		<linearGradient id="g10" x1="390.9" y1="621.6" x2="437.6" y2="621.6" gradientUnits="userSpaceOnUse">
			<stop offset="0" stop-color="#9e8cef"/>
			<stop offset="1" stop-color="#caafee"/>
		</linearGradient>
		<linearGradient id="g11" x1="500.2" y1="621.6" x2="453.4" y2="621.6" gradientUnits="userSpaceOnUse">
			<stop offset="0" stop-color="#9e8cef"/>
			<stop offset="1" stop-color="#caafee"/>
		</linearGradient>
		<linearGradient id="g12" x1="346.6" y1="751" x2="346.6" y2="572.6" gradientUnits="userSpaceOnUse">
			<stop offset="0" stop-color="#ccccff"/>
			<stop offset="1" stop-color="#755cbb"/>
		</linearGradient>
		<linearGradient id="g13" x1="449.7" y1="661.8" x2="449.7" y2="613.1" gradientUnits="userSpaceOnUse">
			<stop offset="0" stop-color="#ccccff"/>
			<stop offset="1" stop-color="#755cbb"/>
		</linearGradient>
		<linearGradient id="g14" x1="372.1" y1="643.9" x2="372.1" y2="596.2" gradientUnits="userSpaceOnUse">
			<stop offset="0" stop-color="#ccccff"/>
			<stop offset="1" stop-color="#755cbb"/>
		</linearGradient>
		<linearGradient id="g15" x1="414.6" y1="303.9" x2="414.6" y2="232.7" gradientUnits="userSpaceOnUse">
			<stop offset="0" stop-color="#d5cdf8"/>
			<stop offset="1" stop-color="#f3edfb"/>
		</linearGradient>
		<linearGradient id="g16" x1="418.4" y1="228.7" x2="487.7" y2="228.7" gradientUnits="userSpaceOnUse">
			<stop offset="0" stop-color="#ccccff"/>
			<stop offset="1" stop-color="#755cbb"/>
		</linearGradient>
		<linearGradient id="g17" x1="260" y1="585.8" x2="260" y2="229.6" gradientUnits="userSpaceOnUse">
			<stop offset="0" stop-color="#9e8cef"/>
			<stop offset="1" stop-color="#caafee"/>
		</linearGradient>
		<linearGradient id="g18" x1="285.2" y1="274.6" x2="372.6" y2="274.6" gradientUnits="userSpaceOnUse">
			<stop offset="0" stop-color="#ccccff"/>
			<stop offset="1" stop-color="#755cbb"/>
		</linearGradient>
		<linearGradient id="g19" x1="235.5" y1="465.3" x2="235.5" y2="297.5" gradientUnits="userSpaceOnUse">
			<stop offset="0" stop-color="#9e8cef"/>
			<stop offset="1" stop-color="#dac7f3"/>
		</linearGradient>
		<linearGradient id="g20" x1="575.3" y1="351.7" x2="682.7" y2="351.7" gradientUnits="userSpaceOnUse">
			<stop offset="0" stop-color="#a999f1"/>
			<stop offset="1" stop-color="#dac7f3"/>
		</linearGradient>
		<linearGradient id="g21" x1="223.7" y1="274.5" x2="223.7" y2="230.5" gradientUnits="userSpaceOnUse">
			<stop offset="0" stop-color="#ffc2a9"/>
			<stop offset="1" stop-color="#ff9595"/>
		</linearGradient>
		<linearGradient id="g22" x1="253.2" y1="273.6" x2="253.2" y2="200.3" gradientUnits="userSpaceOnUse">
			<stop offset="0" stop-color="#ffeadb"/>
			<stop offset="1" stop-color="#c27cb6"/>
		</linearGradient>
		<linearGradient id="g23" x1="233.9" y1="323.4" x2="233.9" y2="210.5" gradientUnits="userSpaceOnUse">
			<stop offset="0" stop-color="#ffc2a9"/>
			<stop offset="1" stop-color="#ff9595"/>
		</linearGradient>
		<linearGradient id="g24" x1="251.1" y1="284.2" x2="286.6" y2="284.2" gradientUnits="userSpaceOnUse">
			<stop offset="0" stop-color="#d1a1d6"/>
			<stop offset="1" stop-color="#bd89c4"/>
		</linearGradient>
		<linearGradient id="g25" x1="623.3" y1="392.2" x2="623.3" y2="241.9" gradientUnits="userSpaceOnUse">
			<stop offset="0" stop-color="#ffc2a9"/>
			<stop offset="1" stop-color="#ff9595"/>
		</linearGradient>
		<linearGradient id="g26" x1="663.6" y1="343.8" x2="663.6" y2="268.8" gradientUnits="userSpaceOnUse">
			<stop offset="0" stop-color="#ffeadb"/>
			<stop offset="1" stop-color="#c27cb6"/>
		</linearGradient>
		<linearGradient id="g27" x1="696.8" y1="317.9" x2="696.8" y2="285.1" gradientUnits="userSpaceOnUse">
			<stop offset="0" stop-color="#ffb0b0"/>
			<stop offset="1" stop-color="#ffc2a9"/>
		</linearGradient>
		<linearGradient id="g28" x1="725.9" y1="323.1" x2="725.9" y2="304.7" gradientUnits="userSpaceOnUse">
			<stop offset="0" stop-color="#ffb0b0"/>
			<stop offset="1" stop-color="#ffc2a9"/>
		</linearGradient>
		<linearGradient id="g29" x1="659.3" y1="338.1" x2="693.6" y2="338.1" gradientUnits="userSpaceOnUse">
			<stop offset="0" stop-color="#d1a1d6"/>
			<stop offset="1" stop-color="#bd89c4"/>
		</linearGradient>
		<linearGradient id="g30" x1="535.4" y1="477.9" x2="535.4" y2="309.2" gradientUnits="userSpaceOnUse">
			<stop offset="0" stop-color="#ccccff"/>
			<stop offset="1" stop-color="#755cbb"/>
		</linearGradient>
		<linearGradient id="g31" x1="239.4" y1="296" x2="522.1" y2="296" gradientUnits="userSpaceOnUse">
			<stop offset="0" stop-color="#ccccff"/>
			<stop offset="1" stop-color="#755cbb"/>
		</linearGradient>
		<linearGradient id="g32" x1="488.6" y1="380.7" x2="542.6" y2="380.7" gradientUnits="userSpaceOnUse">
			<stop offset="0" stop-color="#ccedff"/>
			<stop offset="1" stop-color="#755cbb"/>
		</linearGradient>
		<linearGradient id="g33" x1="439.6" y1="470.7" x2="519" y2="470.7" gradientUnits="userSpaceOnUse">
			<stop offset="0" stop-color="#ccedff"/>
			<stop offset="1" stop-color="#755cbb"/>
		</linearGradient>
		<linearGradient id="g34" x1="443.7" y1="508.9" x2="528.1" y2="508.9" gradientUnits="userSpaceOnUse">
			<stop offset="0" stop-color="#ccedff"/>
			<stop offset="1" stop-color="#755cbb"/>
		</linearGradient>
		<linearGradient id="g35" x1="310.4" y1="438.7" x2="310.4" y2="343.5" gradientUnits="userSpaceOnUse">
			<stop offset="0" stop-color="#ccedff"/>
			<stop offset="1" stop-color="#755cbb"/>
		</linearGradient>
		<linearGradient id="g36" x1="349.5" y1="446.7" x2="349.5" y2="374.5" gradientUnits="userSpaceOnUse">
			<stop offset="0" stop-color="#ccedff"/>
			<stop offset="1" stop-color="#755cbb"/>
		</linearGradient>
		<linearGradient id="g37" x1="237.9" y1="353.7" x2="237.9" y2="299.9" gradientUnits="userSpaceOnUse">
			<stop offset="0" stop-color="#ccedff"/>
			<stop offset="1" stop-color="#755cbb"/>
		</linearGradient>
		<linearGradient id="g38" x1="308" y1="274.6" x2="330" y2="274.6" gradientUnits="userSpaceOnUse">
			<stop offset="0" stop-color="#ccedff"/>
			<stop offset="1" stop-color="#755cbb"/>
		</linearGradient>
		<linearGradient id="g39" x1="535.5" y1="438.7" x2="535.5" y2="337.6" gradientUnits="userSpaceOnUse">
			<stop offset="0" stop-color="#ccccff"/>
			<stop offset="1" stop-color="#755cbb"/>
		</linearGradient>
		<linearGradient id="g40" x1="648" y1="417" x2="648" y2="364.2" gradientUnits="userSpaceOnUse">
			<stop offset="0" stop-color="#ccccff"/>
			<stop offset="1" stop-color="#755cbb"/>
		</linearGradient>
		<linearGradient id="g41" x1="576.5" y1="414.6" x2="576.5" y2="374.2" gradientUnits="userSpaceOnUse">
			<stop offset="0" stop-color="#ccccff"/>
			<stop offset="1" stop-color="#755cbb"/>
		</linearGradient>
		<linearGradient id="g42" x1="235.4" y1="355.2" x2="235.4" y2="342.9" gradientUnits="userSpaceOnUse">
			<stop offset="0" stop-color="#ccedff"/>
			<stop offset="1" stop-color="#755cbb"/>
		</linearGradient>
		<linearGradient id="g43" x1="275.5" y1="403.7" x2="275.5" y2="321.7" gradientUnits="userSpaceOnUse">
			<stop offset="0" stop-color="#ccccff"/>
			<stop offset="1" stop-color="#755cbb"/>
		</linearGradient>
		<linearGradient id="g44" x1="477.9" y1="346" x2="477.9" y2="284.3" gradientUnits="userSpaceOnUse">
			<stop offset="0" stop-color="#ccedff"/>
			<stop offset="1" stop-color="#755cbb"/>
		</linearGradient>
		<linearGradient id="g45" x1="386.3" y1="337.6" x2="386.3" y2="252.5" gradientUnits="userSpaceOnUse">
			<stop offset="0" stop-color="#ccedff"/>
			<stop offset="1" stop-color="#755cbb"/>
		</linearGradient>
		<linearGradient id="g46" x1="393.8" y1="332.7" x2="536" y2="332.7" gradientUnits="userSpaceOnUse">
			<stop offset="0" stop-color="#8642a0"/>
			<stop offset="1" stop-color="#6456c0"/>
		</linearGradient>
		<linearGradient id="g47" x1="406.1" y1="225.6" x2="498.6" y2="225.6" gradientUnits="userSpaceOnUse">
			<stop offset="0" stop-color="#ccccff"/>
			<stop offset="1" stop-color="#755cbb"/>
		</linearGradient>
		<linearGradient id="g48" x1="632.3" y1="411" x2="632.3" y2="357.4" gradientUnits="userSpaceOnUse">
			<stop offset="0" stop-color="#ccccff"/>
			<stop offset="1" stop-color="#755cbb"/>
		</linearGradient>
		<linearGradient id="g49" x1="535.5" y1="471.4" x2="535.5" y2="309.2" gradientUnits="userSpaceOnUse">
			<stop offset="0" stop-color="#ccccff"/>
			<stop offset="1" stop-color="#755cbb"/>
		</linearGradient>
		<linearGradient id="g50" x1="353.6" y1="547.5" x2="353.6" y2="501" gradientUnits="userSpaceOnUse">
			<stop offset="0" stop-color="#ccccff"/>
			<stop offset="1" stop-color="#755cbb"/>
		</linearGradient>
		<linearGradient id="g51" x1="439.3" y1="531.1" x2="439.3" y2="512.2" gradientUnits="userSpaceOnUse">
			<stop offset="0" stop-color="#ccccff"/>
			<stop offset="1" stop-color="#755cbb"/>
		</linearGradient>
		<linearGradient id="g52" x1="426.5" y1="241.6" x2="426.5" y2="94.8" gradientUnits="userSpaceOnUse">
			<stop offset="0" stop-color="#ffc2a9"/>
			<stop offset="1" stop-color="#ff9595"/>
		</linearGradient>
		<linearGradient id="g53" x1="408.8" y1="181.1" x2="408.8" y2="136.8" gradientUnits="userSpaceOnUse">
			<stop offset="0" stop-color="#ffc2a9"/>
			<stop offset="1" stop-color="#ff9595"/>
		</linearGradient>
		<linearGradient id="g54" x1="480.3" y1="194.1" x2="482" y2="185.2" gradientUnits="userSpaceOnUse">
			<stop offset="0" stop-color="#e1616a"/>
			<stop offset="1" stop-color="#ff8883"/>
		</linearGradient>
		<linearGradient id="g55" x1="434.9" y1="191.9" x2="434.9" y2="92.5" gradientUnits="userSpaceOnUse">
			<stop offset="0" stop-color="#ffeadb"/>
			<stop offset="1" stop-color="#c27cb6"/>
		</linearGradient>
		<linearGradient id="g56" x1="467.5" y1="151.2" x2="467.5" y2="131.5" gradientUnits="userSpaceOnUse">
			<stop offset="0" stop-color="#cf6074"/>
			<stop offset="1" stop-color="#f37270"/>
		</linearGradient>
		<linearGradient id="g57" x1="511.6" y1="157.4" x2="511.6" y2="140.3" gradientUnits="userSpaceOnUse">
			<stop offset="0" stop-color="#cf6074"/>
			<stop offset="1" stop-color="#ff817f"/>
		</linearGradient>
		<linearGradient id="g58" x1="511.5" y1="167.4" x2="511.5" y2="129.1" gradientUnits="userSpaceOnUse">
			<stop offset="0" stop-color="#ffeadb"/>
			<stop offset="1" stop-color="#c27cb6"/>
		</linearGradient>
		<linearGradient id="g59" x1="424" y1="243.3" x2="424" y2="59.3" gradientUnits="userSpaceOnUse">
			<stop offset="0" stop-color="#2e33a0"/>
			<stop offset="1" stop-color="#0665a5"/>
		</linearGradient>
		<linearGradient id="g60" x1="522.5" y1="128.6" x2="522.5" y2="85.4" gradientUnits="userSpaceOnUse">
			<stop offset="0" stop-color="#ffeadb"/>
			<stop offset="1" stop-color="#8860c7"/>
		</linearGradient>
		<linearGradient id="g61" x1="423.9" y1="243.3" x2="423.9" y2="59.3" gradientUnits="userSpaceOnUse">
			<stop offset="0" stop-color="#ccc2db"/>
			<stop offset="1" stop-color="#8860c7"/>
		</linearGradient>
		<linearGradient id="g62" x1="462.6" y1="244.3" x2="462.6" y2="238.8" gradientUnits="userSpaceOnUse">
			<stop offset="0" stop-color="#776d7e"/>
			<stop offset="1" stop-color="#9d68c2"/>
		</linearGradient>
		<linearGradient id="g63" x1="491.4" y1="72.7" x2="491.4" y2="67.1" gradientUnits="userSpaceOnUse">
			<stop offset="0" stop-color="#1f77d1"/>
			<stop offset="1" stop-color="#0686c9"/>
		</linearGradient>
		<linearGradient id="g64" x1="444.9" y1="92.4" x2="444.9" y2="75.9" gradientUnits="userSpaceOnUse">
			<stop offset="0" stop-color="#1f77d1"/>
			<stop offset="1" stop-color="#0686c9"/>
		</linearGradient>
		<linearGradient id="g65" x1="528.9" y1="101.4" x2="528.9" y2="85.4" gradientUnits="userSpaceOnUse">
			<stop offset="0" stop-color="#1f77d1"/>
			<stop offset="1" stop-color="#0686c9"/>
		</linearGradient>
		<linearGradient id="g66" x1="419.5" y1="182.3" x2="399.1" y2="157.3" gradientUnits="userSpaceOnUse">
			<stop offset="0" stop-color="#ffeadb"/>
			<stop offset="1" stop-color="#b060f4"/>
		</linearGradient>
		<linearGradient id="g67" x1="423.9" y1="176" x2="414.5" y2="164.4" gradientUnits="userSpaceOnUse">
			<stop offset="0" stop-color="#ffeadb"/>
			<stop offset="1" stop-color="#b060f4"/>
		</linearGradient>
		<linearGradient id="g68" x1="472.5" y1="87.3" x2="507" y2="87.3" gradientUnits="userSpaceOnUse">
			<stop offset="0" stop-color="#1f77d1"/>
			<stop offset="1" stop-color="#0686c9"/>
		</linearGradient>
		<linearGradient id="g69" x1="521.2" y1="183.6" x2="531.7" y2="183.6" gradientUnits="userSpaceOnUse">
			<stop offset="0" stop-color="#1f77d1"/>
			<stop offset="1" stop-color="#0686c9"/>
		</linearGradient>
		<linearGradient id="g70" x1="508.3" y1="182.1" x2="519.6" y2="182.1" gradientUnits="userSpaceOnUse">
			<stop offset="0" stop-color="#1f77d1"/>
			<stop offset="1" stop-color="#0686c9"/>
		</linearGradient>
		<linearGradient id="g71" x1="591.7" y1="200.2" x2="945.2" y2="200.2" gradientUnits="userSpaceOnUse">
			<stop offset="0" stop-color="#9d68c2"/>
			<stop offset="1" stop-color="#aec2ff"/>
		</linearGradient>
		<linearGradient id="g72" x1="605.6" y1="350.6" x2="605.6" y2="243.8" gradientUnits="userSpaceOnUse">
			<stop offset="0" stop-color="#ccedff"/>
			<stop offset="1" stop-color="#9d68c2"/>
		</linearGradient>
		<linearGradient id="g73" x1="818.2" y1="298.6" x2="818.2" y2="251.5" gradientUnits="userSpaceOnUse">
			<stop offset="0" stop-color="#ccedff"/>
			<stop offset="1" stop-color="#9d68c2"/>
		</linearGradient>
		<linearGradient id="g74" x1="873.7" y1="298.6" x2="873.7" y2="251.5" gradientUnits="userSpaceOnUse">
			<stop offset="0" stop-color="#ccedff"/>
			<stop offset="1" stop-color="#9d68c2"/>
		</linearGradient>
		<linearGradient id="g75" x1="761.8" y1="298.6" x2="761.8" y2="251.5" gradientUnits="userSpaceOnUse">
			<stop offset="0" stop-color="#ccedff"/>
			<stop offset="1" stop-color="#9d68c2"/>
		</linearGradient>
		<linearGradient id="g76" x1="250.7" y1="183" x2="250.7" y2="133.7" gradientUnits="userSpaceOnUse">
			<stop offset="0" stop-color="#d93de3"/>
			<stop offset="1" stop-color="#ff6dba"/>
		</linearGradient>
		<linearGradient id="g77" x1="307.2" y1="183" x2="307.2" y2="133.7" gradientUnits="userSpaceOnUse">
			<stop offset="0" stop-color="#a242ea"/>
			<stop offset="1" stop-color="#fe117e"/>
		</linearGradient>
		<linearGradient id="g78" x1="147.4" y1="685.7" x2="174.1" y2="473.7" gradientUnits="userSpaceOnUse">
			<stop offset="0" stop-color="#067eff"/>
			<stop offset="1" stop-color="#3e37a0"/>
		</linearGradient>
		<linearGradient id="g79" x1="883.6" y1="177.6" x2="883.6" y2="159.7" gradientUnits="userSpaceOnUse">
			<stop offset="0" stop-color="#459fff"/>
			<stop offset="1" stop-color="#a96dff"/>
		</linearGradient>
		<linearGradient id="g80" x1="41.4" y1="387.1" x2="41.4" y2="364.8" gradientUnits="userSpaceOnUse">
			<stop offset="0" stop-color="#459fff"/>
			<stop offset="1" stop-color="#a96dff"/>
		</linearGradient>
		<linearGradient id="g81" x1="909.8" y1="177.6" x2="909.8" y2="159.7" gradientUnits="userSpaceOnUse">
			<stop offset="0" stop-color="#b31a8f"/>
			<stop offset="1" stop-color="#fe117e"/>
		</linearGradient>
		<linearGradient id="g82" x1="336.1" y1="236.5" x2="336.1" y2="223.8" gradientUnits="userSpaceOnUse">
			<stop offset="0" stop-color="#b31a8f"/>
			<stop offset="1" stop-color="#fe117e"/>
		</linearGradient>
		<linearGradient id="g83" x1="759.4" y1="515.3" x2="759.4" y2="502.7" gradientUnits="userSpaceOnUse">
			<stop offset="0" stop-color="#8642a0"/>
			<stop offset="1" stop-color="#6456c0"/>
		</linearGradient>
		<linearGradient id="g84" x1="103" y1="577.7" x2="103" y2="566.4" gradientUnits="userSpaceOnUse">
			<stop offset="0" stop-color="#8642a0"/>
			<stop offset="1" stop-color="#6456c0"/>
		</linearGradient>
		<linearGradient id="g85" x1="90.7" y1="516.5" x2="90.7" y2="423.2" gradientUnits="userSpaceOnUse">
			<stop offset="0" stop-color="#d906e3"/>
			<stop offset="1" stop-color="#ff6df9"/>
		</linearGradient>
		<linearGradient id="g86" x1="718.6" y1="648.6" x2="718.6" y2="531.9" gradientUnits="userSpaceOnUse">
			<stop offset="0" stop-color="#d906e3"/>
			<stop offset="1" stop-color="#ff6df9"/>
		</linearGradient>
		<linearGradient id="g87" x1="659.3" y1="582.9" x2="659.3" y2="498.7" gradientUnits="userSpaceOnUse">
			<stop offset="0" stop-color="#1852a0"/>
			<stop offset="1" stop-color="#067ed3"/>
		</linearGradient>
		<linearGradient id="g88" x1="652.9" y1="582.9" x2="652.9" y2="493.2" gradientUnits="userSpaceOnUse">
			<stop offset="0" stop-color="#1852a0"/>
			<stop offset="1" stop-color="#067ed3"/>
		</linearGradient>
		<linearGradient id="g89" x1="644.2" y1="578" x2="644.2" y2="493.2" gradientUnits="userSpaceOnUse">
			<stop offset="0" stop-color="#188dc1"/>
			<stop offset="1" stop-color="#06bfe7"/>
		</linearGradient>
		<linearGradient id="g90" x1="661" y1="113.3" x2="683.7" y2="29.1" gradientUnits="userSpaceOnUse">
			<stop offset="0" stop-color="#188dc1"/>
			<stop offset="1" stop-color="#06bfe7"/>
		</linearGradient>
		<linearGradient id="g91" x1="659.4" y1="113.6" x2="676.3" y2="50.8" gradientUnits="userSpaceOnUse">
			<stop offset="0" stop-color="#1852a0"/>
			<stop offset="1" stop-color="#067ed3"/>
		</linearGradient>
		<linearGradient id="g92" x1="93.9" y1="262.3" x2="78.5" y2="204.9" gradientUnits="userSpaceOnUse">
			<stop offset="0" stop-color="#188dc1"/>
			<stop offset="1" stop-color="#06bfe7"/>
		</linearGradient>
		<linearGradient id="g93" x1="95.1" y1="262.5" x2="83.5" y2="219.8" gradientUnits="userSpaceOnUse">
			<stop offset="0" stop-color="#1852a0"/>
			<stop offset="1" stop-color="#067ed3"/>
		</linearGradient>
	</defs>
	<style>
		.s0 { fill: #ffffff } 
		.s1 { fill: #f1f1f4 } 
		.s2 { fill: #e0f3ff } 
		.s3 { fill: url(#g1) } 
		.s4 { fill: url(#g2) } 
		.s5 { fill: #e5e2ff } 
		.s6 { fill: url(#g3) } 
		.s7 { opacity: .6;mix-blend-mode: multiply;fill: url(#g4) } 
		.s8 { opacity: .6;mix-blend-mode: multiply;fill: url(#g5) } 
		.s9 { opacity: .5;mix-blend-mode: screen;fill: url(#g6) } 
		.s10 { fill: url(#g7) } 
		.s11 { opacity: .5;mix-blend-mode: screen;fill: url(#g8) } 
		.s12 { opacity: .5;mix-blend-mode: screen;fill: url(#g9) } 
		.s13 { fill: url(#g10) } 
		.s14 { fill: url(#g11) } 
		.s15 { opacity: .8;mix-blend-mode: multiply;fill: url(#g12) } 
		.s16 { opacity: .8;mix-blend-mode: multiply;fill: url(#g13) } 
		.s17 { opacity: .8;mix-blend-mode: multiply;fill: url(#g14) } 
		.s18 { fill: #fe9083 } 
		.s19 { fill: url(#g15) } 
		.s20 { opacity: .5;mix-blend-mode: multiply;fill: url(#g16) } 
		.s21 { fill: url(#g17) } 
		.s22 { opacity: .5;mix-blend-mode: multiply;fill: url(#g18) } 
		.s23 { fill: url(#g19) } 
		.s24 { fill: url(#g20) } 
		.s25 { fill: #cb4d7a } 
		.s26 { fill: #ee8183 } 
		.s27 { fill: url(#g21) } 
		.s28 { opacity: .6;mix-blend-mode: multiply;fill: url(#g22) } 
		.s29 { fill: url(#g23) } 
		.s30 { fill: #e28183 } 
		.s31 { opacity: .9;mix-blend-mode: multiply;fill: url(#g24) } 
		.s32 { fill: url(#g25) } 
		.s33 { opacity: .6;mix-blend-mode: multiply;fill: url(#g26) } 
		.s34 { fill: url(#g27) } 
		.s35 { fill: url(#g28) } 
		.s36 { opacity: .9;mix-blend-mode: multiply;fill: url(#g29) } 
		.s37 { opacity: .5;mix-blend-mode: multiply;fill: url(#g30) } 
		.s38 { opacity: .5;mix-blend-mode: multiply;fill: url(#g31) } 
		.s39 { opacity: .5;mix-blend-mode: multiply;fill: url(#g32) } 
		.s40 { opacity: .5;mix-blend-mode: multiply;fill: url(#g33) } 
		.s41 { opacity: .5;mix-blend-mode: multiply;fill: url(#g34) } 
		.s42 { opacity: .5;mix-blend-mode: multiply;fill: url(#g35) } 
		.s43 { opacity: .5;mix-blend-mode: multiply;fill: url(#g36) } 
		.s44 { opacity: .5;mix-blend-mode: multiply;fill: url(#g37) } 
		.s45 { opacity: .5;mix-blend-mode: multiply;fill: url(#g38) } 
		.s46 { opacity: .8;mix-blend-mode: multiply;fill: url(#g39) } 
		.s47 { opacity: .5;mix-blend-mode: multiply;fill: url(#g40) } 
		.s48 { opacity: .3;mix-blend-mode: multiply;fill: url(#g41) } 
		.s49 { opacity: .5;mix-blend-mode: multiply;fill: url(#g42) } 
		.s50 { opacity: .5;mix-blend-mode: multiply;fill: url(#g43) } 
		.s51 { opacity: .5;mix-blend-mode: multiply;fill: url(#g44) } 
		.s52 { opacity: .5;mix-blend-mode: multiply;fill: url(#g45) } 
		.s53 { fill: url(#g46) } 
		.s54 { fill: #ebefff } 
		.s55 { opacity: .5;mix-blend-mode: multiply;fill: url(#g47) } 
		.s56 { opacity: .3;mix-blend-mode: multiply;fill: url(#g48) } 
		.s57 { opacity: .5;mix-blend-mode: multiply;fill: url(#g49) } 
		.s58 { opacity: .5;mix-blend-mode: multiply;fill: url(#g50) } 
		.s59 { opacity: .5;mix-blend-mode: multiply;fill: url(#g51) } 
		.s60 { opacity: .5;mix-blend-mode: multiply;fill: #7a4ac0 } 
		.s61 { fill: url(#g52) } 
		.s62 { fill: url(#g53) } 
		.s63 { fill: url(#g54) } 
		.s64 { opacity: .6;mix-blend-mode: multiply;fill: url(#g55) } 
		.s65 { fill: #38368e } 
		.s66 { fill: url(#g56) } 
		.s67 { fill: url(#g57) } 
		.s68 { fill: #ffebed } 
		.s69 { fill: #7f9ec9 } 
		.s70 { fill: #131163 } 
		.s71 { fill: #c6659c } 
		.s72 { fill: #cb5f7d } 
		.s73 { fill: #9f4a8b } 
		.s74 { fill: #ffbcaf } 
		.s75 { opacity: .6;mix-blend-mode: multiply;fill: url(#g58) } 
		.s76 { fill: url(#g59) } 
		.s77 { fill: #d2726c } 
		.s78 { opacity: .6;mix-blend-mode: multiply;fill: url(#g60) } 
		.s79 { opacity: .6;mix-blend-mode: multiply;fill: url(#g61) } 
		.s80 { opacity: .5;mix-blend-mode: multiply;fill: url(#g62) } 
		.s81 { fill: url(#g63) } 
		.s82 { fill: url(#g64) } 
		.s83 { fill: url(#g65) } 
		.s84 { opacity: .8;mix-blend-mode: multiply;fill: url(#g66) } 
		.s85 { opacity: .8;mix-blend-mode: multiply;fill: url(#g67) } 
		.s86 { fill: #34c7ff } 
		.s87 { fill: url(#g68) } 
		.s88 { fill: url(#g69) } 
		.s89 { fill: url(#g70) } 
		.s90 { opacity: .6;fill: #36d1f7 } 
		.s91 { fill: #744ca2 } 
		.s92 { opacity: .6;mix-blend-mode: multiply;fill: url(#g71) } 
		.s93 { opacity: .3;mix-blend-mode: multiply;fill: url(#g72) } 
		.s94 { opacity: .3;mix-blend-mode: multiply;fill: url(#g73) } 
		.s95 { opacity: .3;mix-blend-mode: multiply;fill: url(#g74) } 
		.s96 { opacity: .3;mix-blend-mode: multiply;fill: url(#g75) } 
		.s97 { mix-blend-mode: multiply;fill: #d1d4fb } 
		.s98 { fill: #e0ffff } 
		.s99 { fill: url(#g76) } 
		.s100 { fill: url(#g77) } 
		.s101 { opacity: .8;fill: url(#g78) } 
		.s102 { fill: #473da2 } 
		.s103 { fill: url(#g79) } 
		.s104 { fill: url(#g80) } 
		.s105 { fill: url(#g81) } 
		.s106 { fill: url(#g82) } 
		.s107 { fill: url(#g83) } 
		.s108 { fill: url(#g84) } 
		.s109 { opacity: .7;fill: url(#g85) } 
		.s110 { fill: #953da2 } 
		.s111 { opacity: .7;fill: url(#g86) } 
		.s112 { fill: url(#g87) } 
		.s113 { fill: url(#g88) } 
		.s114 { fill: url(#g89) } 
		.s115 { opacity: .5;mix-blend-mode: multiply;fill: #601734 } 
		.s116 { mix-blend-mode: soft-light;fill: #b3d9ff } 
		.s117 { fill: #ff1d9c } 
		.s118 { fill: #6877ff } 
		.s119 { fill: #4f31e0 } 
		.s120 { fill: url(#g90) } 
		.s121 { fill: url(#g91) } 
		.s122 { fill: url(#g92) } 
		.s123 { fill: url(#g93) } 
	</style>
	<g id="illustration">
		<g id="&lt;Clip Group&gt;">
			<path id="&lt;Path&gt;" class="s0" d="m1088 751h-1200v-800h1200z"/>
			<g id="&lt;Group&gt;">
				<path id="&lt;Compound Path&gt;" fill-rule="evenodd" class="s1" d="m184.4 343.2q0-0.7 0.7-0.7l13.4 0.4q2 0 3.4 0.6 1.4 0.5 2.2 1.5 0.9 0.9 1.2 2.3 0.4 1.3 0.3 2.9l-0.1 3.7q0 1.6-0.5 2.9-0.4 1.3-1.3 2.2-0.9 0.9-2.3 1.4-1.4 0.4-3.4 0.4l-7.2-0.2-1.5-4.3h-0.2l-0.1 4.2-5.1-0.2zm4.7 12.7l8.6 0.3q1.4 0 2-0.6 0.7-0.6 0.7-2.3l0.1-3q0.1-1.6-0.5-2.2-0.6-0.7-2.1-0.7l-8.2-0.3q-0.2 0-0.3 0.1-0.1 0.2-0.1 0.3z"/>
				<path id="&lt;Compound Path&gt;" class="s1" d="m212.9 350.9h-0.2l-0.1 5.3q-0.1 0.4 0.3 0.4l15.1 0.4-0.2 4.7-19.7-0.6q-0.8 0-0.7-0.8l0.5-16.4q0-0.7 0.7-0.7l19.2 0.6q0.7 0 0.7 0.7l-0.1 4.7-4.8 1.6h-0.2l0.1-2.4q0-0.3-0.2-0.3l-10.2-0.3q-0.2 0-0.2 0.1-0.1 0.1-0.1 0.2l-0.1 2.3 8.4 0.2-0.1 3.7-7-0.2z"/>
				<path id="&lt;Compound Path&gt;" class="s1" d="m246.4 350.5h-0.2l0.1-1.9q0-0.3-0.3-0.3l-9.4-0.3q-0.6 0-0.8 0.2-0.2 0.2-0.2 0.6v0.4q0 0.6 0.2 0.7 0.1 0.2 0.6 0.3l11.1 1.8q1 0.2 1.8 0.6 0.7 0.3 1.1 0.8 0.5 0.5 0.7 1.3 0.1 0.7 0.1 1.7v1.4q-0.1 1.1-0.4 2-0.3 0.8-0.9 1.4-0.6 0.5-1.6 0.8-1.1 0.3-2.5 0.2l-15.9-0.5 0.1-4.6 14.3 0.4q0.6 0 0.8-0.2 0.2-0.2 0.3-0.8v-0.5q0-0.5-0.2-0.6-0.1-0.2-0.6-0.3l-10.7-1.7q-1-0.2-1.8-0.5-0.8-0.3-1.2-0.8-0.5-0.5-0.7-1.2-0.2-0.7-0.2-1.7v-1.3q0.1-1.9 1.2-3 1-1 3.4-0.9l15.9 0.5q0.8 0 0.8 0.8l-0.1 3.7z"/>
				<path id="&lt;Compound Path&gt;" class="s1" d="m253.1 362.4l0.6-17.8 5 0.1-0.5 17.9z"/>
				<path id="&lt;Compound Path&gt;" class="s1" d="m277 355.5q0-0.4 0-0.8 0-0.5-0.1-0.8v-0.2l5 0.1-0.2 8.8q-0.1 0.7-0.7 0.7l-13.4-0.4q-2-0.1-3.4-0.6-1.4-0.6-2.2-1.5-0.9-1-1.2-2.3-0.4-1.3-0.3-2.9l0.1-3.7q0-1.6 0.5-3 0.4-1.3 1.3-2.1 0.9-0.9 2.3-1.4 1.4-0.5 3.4-0.4l13.4 0.4q0.7 0 0.7 0.8l-0.1 3.8-4.8 1.6h-0.2l0.1-1.7q0-0.3-0.2-0.3l-8.6-0.2q-0.7-0.1-1.2 0.1-0.5 0.1-0.9 0.4-0.3 0.3-0.5 0.9-0.1 0.5-0.1 1.3l-0.1 3.2q-0.1 1.6 0.5 2.3 0.6 0.6 2 0.7l8.5 0.2q0.3 0 0.3-0.3z"/>
				<path id="&lt;Compound Path&gt;" class="s1" d="m292.6 345.7q0.6 0.1 0.8 0.2 0.3 0.2 0.4 0.6l6.4 13q0.2 0.3 0.5 0.4h0.3q0.3 0 0.4-0.4l0.4-13.5 4.6 0.2-0.6 17.1q0 0.7-0.7 0.7l-7.2-0.2q-0.6 0-0.8-0.2-0.3-0.1-0.5-0.5l-6.6-13.1q-0.1-0.3-0.5-0.3h-0.2q-0.4 0-0.4 0.4l-0.4 13.4-4.6-0.1 0.5-17.2q0-0.7 0.7-0.7z"/>
			</g>
			<path id="&lt;Path&gt;" class="s2" d="m736.1 342.1c0 171.2-138.8 310-310 310-171.2 0-310-138.8-310-310 0-171.3 138.8-310.1 310-310.1 171.2 0 310 138.8 310 310.1z"/>
			<g id="&lt;Group&gt;">
				<path id="&lt;Compound Path&gt;" fill-rule="evenodd" class="s3" d="m200.5 327.3c0.5 3-0.8 8.3-7.1 14.9l26.6 64.5c5.2 0.9 10 4.3 12.4 9.5 4 8.5 0.3 18.6-8.1 22.6-8.5 3.9-18.6 0.3-22.6-8.2-2.4-5.2-1.9-11 0.7-15.7l-32.4-61.8c-9.4 0.6-14.2-1.9-16.1-4.1-0.3-0.4-2.3-5-2.3-5-5.2-14.3-0.7-28.1-0.7-28.1l4.7-2.2 7.9 20.4c6.6 3.7 13 2.4 13 2.4 0 0 5.1-4 6.5-11.4l-10.6-19.2 4.7-2.2c0 0 13.5 5.4 21.1 18.5 0 0 2.2 4.4 2.3 5.1zm25.2 92.1l-7.8-5.4-8.6 4-0.8 9.4 7.8 5.4 8.5-4z"/>
				<path id="&lt;Compound Path&gt;" fill-rule="evenodd" class="s4" d="m195.7 347.3l26.6 64.5c5.3 0.9 10.1 4.3 12.5 9.5 4 8.5 0.3 18.5-8.2 22.5-8.5 4-18.6 0.3-22.5-8.2-2.5-5.2-2-11 0.7-15.6l-32.4-61.9c-11.1 0.7-18.5-9.1-18.5-9.1-5.1-14.3-0.6-28.1-0.6-28.1l4.7-2.2 7.9 20.5c6.6 3.6 12.9 2.3 12.9 2.3v0.1c0 0 5.1-4.1 6.5-11.5l-10.6-19.2 4.7-2.2c0 0 13.5 5.4 21.1 18.6 0 0 2.9 11.9-4.8 20zm32.3 77.1l-7.7-5.4-8.6 4-0.8 9.5 7.7 5.4 8.6-4z"/>
				<path id="&lt;Path&gt;" class="s5" d="m155.6 313.7l2.4 5-4.7 2.2-2.4-5z"/>
				<path id="&lt;Path&gt;" class="s5" d="m177.1 303.7l2.3 5-4.7 2.2-2.3-5z"/>
				<path id="&lt;Path&gt;" class="s5" d="m224.8 428.8l2.4 5.1-8.6 4-2.3-5.1z"/>
				<g id="&lt;Group&gt;">
					<path id="&lt;Compound Path&gt;" fill-rule="evenodd" class="s6" d="m194.8 355.5l21.3 52.6c0 0-3.7 5.2-10.6 4.9l-26.2-50.3c0 0 5.9-7.5 15.5-7.2zm-1.2 1q-3.3 0.4-6.5 1.9c-2.8 1.3-5 3-6.3 4.1l26.2 49.3q1.9-0.3 3.7-1.1c1.4-0.7 2.6-1.5 3.3-2.2z"/>
					<path id="&lt;Path&gt;" class="s5" d="m214 408.5l2.1-0.4c0 0-3 5.3-10.6 4.9l1.5-1.2c0 0 3.8-0.4 7-3.3z"/>
					<path id="&lt;Path&gt;" class="s7" d="m186.2 357.4c5.2-2.5 8.6-1.9 8.6-1.9l-1.2 1c-8.3 1.4-12.8 6-12.8 6l-1.5 0.2c0 0 1.7-2.9 6.9-5.3z"/>
				</g>
				<path id="&lt;Path&gt;" class="s8" d="m172.4 358.1c0 0 12.6-2.2 23.3-10.8l3.4 8.2c0 0-3.9-3.8-12.3-0.3-9.9 4-9.4 12-9.4 12z"/>
				<path id="&lt;Path&gt;" class="s9" d="m222.3 411.8l-3 3.1-25.4-61.2c0 0 2.8 0.1 5.2 1.8z"/>
				<path id="&lt;Path&gt;" class="s0" d="m199.1 355.5c0 0-2.6 8.2 5 12.1z"/>
			</g>
			<g id="&lt;Group&gt;">
				<g id="&lt;Group&gt;">
					<path id="&lt;Path&gt;" class="s10" d="m580.5 751h-94c-9.9-54.6-32.8-125.7-32.8-125.7-5.5-3.3-16.4 0.7-16.4 0.7l-34.3 125h-85.9c-4.6-77.1 37.6-164.7 37.6-164.7-0.1-0.3-1.5-3-1.1-4.8 0.1-0.7 1.6-2.2 3.2-3.7 2.3-2.1 5.1-4.2 5.1-4.2l160.2-1c0 0 1.6 0.8 3.7 2 3.5 2.2 8.2 5.4 8.2 7.8 0 3.3-1.3 5.5-1.6 6l-0.1 0.1c34.4 64.8 48.2 162.5 48.2 162.5z"/>
					<path id="&lt;Path&gt;" class="s11" d="m396.7 694.9c-11.5 49.8-36.5 86.6-55.8 82.2-19.3-4.5-25.6-48.5-14.1-98.3 11.5-49.9 36.4-86.7 55.7-82.2 19.3 4.4 25.6 48.4 14.2 98.3z"/>
					<path id="&lt;Path&gt;" class="s12" d="m562.6 676.3c13.8 49.2 9.6 93.5-9.5 98.8-19.1 5.4-45.7-30.2-59.5-79.5-13.8-49.2-9.5-93.5 9.5-98.9 19.1-5.3 45.7 30.3 59.5 79.6z"/>
					<g id="&lt;Group&gt;">
						<path id="&lt;Path&gt;" class="s13" d="m391.8 751.1l-0.9-0.2c10.9-64.4 38.6-118.4 38.9-118.9l0.1-0.2 7.1-6.2 0.6 0.8-6.9 6.1c-1.3 2.4-28.2 55.5-38.9 118.6z"/>
					</g>
					<g id="&lt;Group&gt;">
						<path id="&lt;Path&gt;" class="s14" d="m499.2 751.1c-10.7-63.1-38.3-116.7-39.5-119.1l-6.3-5.6 0.7-0.8 6.4 5.9c0.3 0.5 28.8 55 39.7 119.4z"/>
					</g>
					<path id="&lt;Path&gt;" class="s15" d="m534 582.4c0 3.3-1.3 5.5-1.6 6l-0.1 0.1c-33.3 7.5-58.7 38.6-58.7 38.6 18.2 34.9 48.5 123.9 48.5 123.9h-35.6c-9.9-54.6-32.8-125.7-32.8-125.7-5.5-3.3-16.4 0.7-16.4 0.7l-34.3 125h-22.3c8-52.4 31.5-116.3 31.5-116.3-23.1-26.9-57.5-48.4-57.5-48.4l-4.1-2.5 3-2.3c14.8 14.3 62.8 32.9 64.2 33.5l-61-37.2c2.3-2.1 5.1-4.2 5.1-4.2l160.2-1c0 0 1.6 0.8 3.7 2l-43.8 24.1z"/>
					<path id="&lt;Path&gt;" class="s16" d="m453.7 625.3l18.7-12.2-4.4 12.2-3.3 36.5z"/>
					<path id="&lt;Path&gt;" class="s17" d="m432.4 643.9l-3.2-12.6-53.1-35.1 41.7 18.8 19.5 11z"/>
				</g>
				<path id="&lt;Path&gt;" class="s18" d="m490.9 250.3c0.1 0.9 0.2 1.3 0.2 1.3q-1.4 6.1-3.3 11.3c-3.9 11.3-8.8 19.3-12.4 24.3-3.2 4.3-5.5 6.3-5.5 6.3-29.2-9.1-43.5-37.7-49.1-51.9q0-0.1 0-0.2c-1.1-2.7-1.8-4.8-2.2-6.2q0 0 0 0c-0.4-1.2-0.5-1.8-0.5-1.8q0.1-0.4 0.3-0.7l0.1-0.1c0.5-1 0.9-2 1.4-3 3.8-8.4 6.3-16.2 8-22.4 1.4-5.2 2.2-9.2 2.5-11.4 0.2-1.1 0.3-1.7 0.3-1.7l13.6 7.2 46.8 24.8c-0.7 4.3-0.9 8.3-1 11.9 0 2.5 0.1 4.7 0.2 6.6 0.2 2.3 0.4 4.2 0.6 5.4 0 0.1 0 0.2 0 0.3z"/>
				<path id="&lt;Path&gt;" class="s19" d="m477.9 296.7c-2.7 2.7-5.9 5.1-9.7 7.1q-0.1 0-0.2 0.1 0 0-0.3-0.2c-1-0.6-4.5-2.7-9.2-6.3-12.2-9.2-32.7-27.8-38.5-52.9q0-0.1 0-0.1c-0.7-3-1.2-6.1-1.4-9.2q0 0 0 0-0.1-1.3-0.2-2.5c0 0 4.1 9.5 11.1 19.8 8.3 12.1 20.7 25.4 35.6 25.4 12.8 0.1 19.4-8.7 22.7-16.8 1.4-3.4 2.3-6.7 2.7-9.2q0 0 0 0 0.2-1.1 0.4-1.9 0-0.4 0.1-0.8c0.1-0.9 0.1-1.4 0.1-1.4 0 0 5 30.7-13.2 48.9z"/>
				<path id="&lt;Path&gt;" class="s20" d="m477.9 296.7c-2.7 2.7-5.9 5.1-9.7 7.1h-0.2l-0.3-0.1c-1-0.6-4.5-2.7-9.2-6.3-12.2-9.2-32.7-27.8-38.5-52.9q0-0.1 0-0.1c-0.7-3-1.2-6.1-1.4-9.2q0 0 0 0-0.1-1.3-0.2-2.5c0 0 4.1 9.5 11.1 19.8 0 0 8.1 22.2 25.6 33.2 8.7 5.5 15.4 4.7 20.3 1.5 4.8-3.2 8-8.9 9.9-13.1 1.8-4.3 2.4-8.2 2.5-11.2q0-1 0-1.8c1.4-3.4 2.3-6.7 2.7-9.2q0 0 0 0 0.2-1.1 0.4-1.9 0-0.4 0.1-0.8c0.1-0.9 0.1-1.4 0.1-1.4 0 0 5 30.7-13.2 48.9z"/>
				<path id="&lt;Path&gt;" class="s21" d="m590.2 478.1q-0.3 0.1-0.3 0.1c-1.6 0.2-6.7-0.9-13.4-6.7q0 0-0.1-0.1 0 0-0.1 0c-5.6-4.9-12.3-13.1-19-26.5-13.4-26.8-17.2-44.7-17.8-47.8l-0.1-0.5-7.8 12.4c-5.3 16-15.4 81.9-15.2 84.8 0.2 2.8 8.9 16.6 8.7 18.3q0 0 0 0.1c-0.2 1.7-4.2 5.5-5.3 9.6-0.7 2.7 4.6 11.4 8.3 17.8v0.1c2 3.3 3.5 6.1 3.5 7.1 0 3-9.5 17.8-9.5 17.8v8l-0.2 0.1-0.4 0.4-0.4 0.3c-3.6 2.9-18.8 12.2-66.5 14.7-56.5 3-94.1-15.1-94.1-15.1l2.8-7.8c0 0-2.6-2.3-2.8-3.4-0.2-1.2 2-3.8 2-3.8 0 0-5.6-3-5.6-6.8 0-3.8 11.3-15.6 11-25.6-0.4-10.1-9.1-19-10.3-24.6-1.1-5.7 14.8-19.7 14.8-19.7-13.6-43.2-16.3-101.2-16.3-101.2l-2.6-3.1c0 0-16.3 37.2-31.1 55.4-1.8 2.1-3.6 4.3-5.6 6.3-4.1 4.5-8.5 8.7-12.7 12.3-10.2 8.9-19.5 14.8-21.9 14.3-3.8-0.7-18.9-30.7-18.2-61.4 0.3-14.6 9.1-30.9 18.2-44q1.5-2.1 3-4.1c6.5-8.8 12.7-15.8 15.7-18.9 1.1-1.3 1.8-1.9 1.8-1.9 0 0-2.1-6.7-3.5-12.5q-0.1-0.3-0.1-0.5 0-0.1-0.1-0.2 0-0.1 0-0.1c-0.8-3.6-1.4-6.7-0.9-7.4 1.3-2.1 8.6-4.3 9.9-5.8 1.2-1.6 6.5-27.1 10.6-29.9 3.9-2.6 10.7-4.6 33.4-13.5q1.7-0.6 3.5-1.4c25.5-10.1 50.5-22.3 50.5-22.3l9.6-11.8h4.3l-1.4 3-0.1 0.1q1 4.5 2.4 8.7 0 0.1 0 0.2c13.2 41.7 47.2 55.1 47.2 55.1 23.6-17.4 23.1-45.1 23.1-45.1v-3.8l4.5 1.3 3 7.2c0 0 5.1 8 25.4 16.9 3.5 1.6 7.2 3.5 11.1 5.7 18.6 10.6 39.2 26.9 40.8 30.3q0.2 0.5 0.5 1.7v0.1c2.2 8.5 6.7 40.6 10.9 52 2.6 7.2 6.7 11.1 9.7 13.1q0 0.1 0 0.1c2.3 1.5 3.9 2 3.9 2q0.5 2.6 0.9 5.2c8.7 54.8-7.8 92.1-11.6 94.7z"/>
				<path id="&lt;Path&gt;" class="s22" d="m372.6 374.5l-16.5 5.6-2.6-3.1c0 0-16.3 37.2-31.1 55.4-1.8 2.1-3.6 4.3-5.6 6.3-4.1 4.5-8.5 8.7-12.7 12.3l-12.5-54.1-6.4-41.1c6.5-8.8 12.7-15.8 15.7-18.9 1.1-1.3 1.8-1.9 1.8-1.9 0 0-2.1-6.7-3.5-12.5q-0.1-0.2-0.1-0.5 0-0.1-0.1-0.2 0-0.1 0-0.1c-0.8-3.6-1.4-6.7-0.9-7.4 1.3-2.1 8.6-4.3 9.9-5.8 1.2-1.6 6.5-27.1 10.6-29.9 0 0-2.7 24.5 11.4 55.6l6.8 9.6 19.9 16.1c0 0 7.6 10 15.9 14.6z"/>
				<path id="&lt;Path&gt;" class="s23" d="m324.9 418.9c-3.5 26.2-42.7 46.4-42.7 46.4-8.7 0-18.4-15.1-27.3-33.8-8.8-18.7-9.4-72.4-9.8-75.8-0.5-3.3-5.4-9.9-5.7-12.8-0.3-2.8 7.9-8.7 7.9-8.7v-0.1l-0.1-0.2c-0.8-1.8-5.7-12.2-5.3-14.1 0.3-2.1 9.6-6.6 9.6-6.6l0.6 10.2c0 0 21.5-4.1 28.8-20.8l1.3-5.1 3.6 2.4v22c0 0 0.8 3.4 1.9 3.4 1.1 0 9.5-4.2 11.3-3.6 1.8 0.6 3.5 12.3 5.9 13.8 2.3 1.6 8.6 5.9 9.5 8 0.4 0.9 0.5 4.3 0.5 8.3 0.1 4.9 0.1 10.6 0.8 13.9 1.4 5.8 12.7 26.9 9.2 53.2z"/>
				<path id="&lt;Path&gt;" class="s24" d="m682.9 396.4c-1.8 2.7-10.6 8.6-12.9 10.8-2.3 2.3 0 9.8 0 9.8-37.1 39.4-75.9 59.1-79.8 61.1q-0.3 0.1-0.3 0.1c-23.3-15.7-21.3-41.5-13.6-63.2 7.4-20.9 20.1-38.1 20.7-38.8q0 0 0 0c0.4-0.2 7.1-3 11.9-3.3 1.5-0.1 3 0.5 4.3 1.3 2.9 1.8 5.3 4.6 7.6 3.4 3.4-1.7 11.1-19.8 16.2-20.3 3.7-0.3 8.7 3.4 12 5.5 1.5 0.9 2.6 1.5 3.2 1.4 1.9-0.5 8.3-8.3 8.8-8.5 0.5-0.2 3.5 2 3.5 2l-2.1 2.5c3.2 18.2 13.5 30.5 13.5 30.5l7-10.2c0 0 1.8 13.1 0 15.9z"/>
				<path id="&lt;Path&gt;" class="s25" d="m491 249.5q0 0.4-0.1 0.8-0.1 0.8-0.4 1.6 0 0 0 0c-2.4 8.9-12 17.9-24.1 13.5-13.3-4.7-38.5-58.2-38.5-58.2l2.5-11.4 59.9 48.8 0.7 4.6z"/>
				<g id="&lt;Group&gt;">
					<path id="&lt;Path&gt;" class="s26" d="m289.8 256.9l-20.5 23.4-31.3 1.1-3.3-12.7c-0.4-14.3 25-38.3 25-38.3l4.4 1.3 9.1 12.5h4.2c0 0 2.2-29.7-0.6-42.1-2.8-12.4 3.4-27.8 6-29.3 2.7-1.5 6.3 0 6.3 0 0 0 2.1 16.9 0.4 31.8-1.6 14.9 2.1 35.1 2.1 35.1z"/>
					<path id="&lt;Path&gt;" class="s27" d="m259.7 230.4c0 0 0.7 15.9 4.3 29.5 0 0-0.6 5.6-7.2 6l-1.6-1.8c0 0-1.1 6.4-6.9 6.8l-5.5-5.5 1.4 4.6c0 0-2 4.8-7.2 4.6 0 0-8.7-6.8-9.3-15.7l8.7-7.3v-5.6l10.2-7.2 0.2-4.1c0 0 6-4.4 12.9-4.3z"/>
					<path id="&lt;Path&gt;" class="s28" d="m290.2 230.4l-2.5 14-1.9 5.9c-19.9 12.2-28.6 23.3-28.6 23.3 4.1-8.6 21.7-23.3 21.7-23.3l-1.4-2.6c-9.8 0.2-15.2 4.8-15.2 4.8l-1.5-9.6 1.5-7.7 3.1 10.7 3.6-1.7c-0.2-5.4-4.9-12.5-4.9-12.5l9.1 12.5h4.2l0.3-35.8c0 0 6.3-1.1 8.5-2.6 2.2-1.6 3.7-5.5 3.7-5.5-2.1 9.9 0.3 30.1 0.3 30.1z"/>
					<path id="&lt;Path&gt;" class="s29" d="m304.7 262.6c-1.6 4.9-18.8 25.4-20.7 29.8-1.9 4.4-3.1 10.2-3.1 10.2-8.4 18.3-28.8 20.8-28.8 20.8l-1-16.5c0 0-10.9-6.3-12.8-9.7v-0.1l-0.2-0.6c-0.6-3.2-0.1-15.1-0.1-15.1l19.2-7.8c8.3-10.8 28.6-23.3 28.6-23.3l1-5.7c-14.6-7.1-12.2-28.8-9.7-31.5 2.5-2.6 7-2.6 7-2.6 0 0 5.3 17.4 8.7 25.6 3.4 8.1 13.5 21.6 11.9 26.5z"/>
					<path id="&lt;Path&gt;" class="s30" d="m246.8 234.7c0 0 2.1 19.9 8.4 29.4 0 0-8-9.9-8.6-25.3z"/>
					<path id="&lt;Path&gt;" class="s30" d="m236.4 246c0 0 2 16 11.9 24.9 0 0-8.7-4.3-11.9-19.3z"/>
					<path id="&lt;Path&gt;" class="s31" d="m282.2 297.5c-7.4 23.9-30.1 25.9-30.1 25.9l-1-16.5c13.9 2.3 35.5-18.7 35.5-18.7-1.7 2.4-4.4 9.3-4.4 9.3z"/>
				</g>
				<g id="&lt;Group&gt;">
					<path id="&lt;Path&gt;" class="s32" d="m744.7 316.8c0 0-19.9 36.4-43.2 47.5h-7.9l-18.4 27.9c0 0-11.9-7.5-12.8-32 0 0 4.2-4.3 5.2-9.2 0 0-6.6-5.2-8.3-8.9-1.8-3.8-2.4-15.2-3.7-19.9-1.3-4.7-12-14.4-14.4-15.6-2.4-1.3-13.3-1.9-13.3-1.9 0 0-1.5-4 0-5.8 1.6-1.9 18.5-8.5 27.7-2.2 0 0 0.6 4.8 1.6 7.3 1.1 2.6 9.1 11.5 10.4 11.5 1.3 0 6.7-4.5 9.1-8.1 2.3-3.4 14.5-29.7 17.5-38.6q0-0.1 0.1-0.3c0-0.1 0.1-0.2 0.1-0.4q0-0.1 0.1-0.2 0-0.1 0-0.1c2.3-7.7 15.5-22.5 22.6-26.5 0 0 3-0.8 4.7 3 0 0-5.7 16.2-11.6 25.8-1 1.6-2.1 3.5-3.2 5.5q0 0-0.1 0c-5 9.3-10.7 21.5-11.5 23.3l-0.1 0.2 3.1 1.6 8.6-8.1 8.7-8.3 20.1 21.2-2 2.6-6.2 8 3.1 0.6 7.4-8.2z"/>
					<path id="&lt;Path&gt;" class="s33" d="m740.1 324.5l-6.4 9.4c0 0-34.9-27-42.5-29.2-7.6-2.3-10.3-0.8-10.3-0.8l-7.9 10c0 0 14.4 12.7 15.7 29.9 0 0-4.8-21.7-21.1-28.3 1.3 0 6.7-4.5 9.1-8.1 2.3-3.4 14.5-29.7 17.5-38.6-0.4 1.5-0.9 4.5 0.3 6.8 1.7 3.2 11.8 0.2 12.4 0q0.1 0 0.1 0l-11.6 23.3-0.1 0.2 3.1 1.6 8.6-8.1-4.3 10 31.1 5.5-6.2 8 3.1 0.6z"/>
					<path id="&lt;Path&gt;" class="s34" d="m715.7 284.3c0 0 6.1-0.9 10 7l-0.9 2.5c0 0 5.9 1.2 11.6 10.7 0 0-5 9.3-17.5 13.4 0 0-5.8-1.6-6.8-6.5l1.1-3.2-4.5 3.4c0 0-5.5 1.7-7.9-6.4z"/>
					<path id="&lt;Path&gt;" class="s35" d="m735.2 323.1c-5.2-0.9-5.6-5.2-5.6-5.2l12-13.2c6.2 3.8 4.9 9.6 4.9 9.6-3.1 6-11.3 8.8-11.3 8.8z"/>
					<path id="&lt;Path&gt;" class="s36" d="m659.3 342.1c0 0 13.9 15.5 34.3 22.2l-8.8 13.4-18.4-23.3 1.2-3.4c0 0-7.3-5.5-8.3-8.9z"/>
					<path id="&lt;Path&gt;" class="s30" d="m727.5 295c-4.2 8.7-15.4 16.4-15.4 16.4l1.1-3.2c5.8-4.8 11.6-14.4 11.6-14.4 1.3 0.2 2.7 1.2 2.7 1.2z"/>
				</g>
				<path id="&lt;Path&gt;" class="s37" d="m682.9 396.4c-1.8 2.7-10.6 8.6-12.9 10.8-2.3 2.3 0 9.8 0 9.8-37.1 39.4-75.9 59.1-79.8 61.1q-0.3 0.1-0.3 0.1c-3 0.4-17.8-3.8-32.6-33.3-13.4-26.8-17.2-44.7-17.8-47.8l-0.1-0.5 3.2-4.4 4.9-54.6 3.4 11c12.9-15.5 25-39.4 25-39.4l0.5 1.7v0.1c2.2 8.5 6.7 40.6 10.9 52 2.6 7.2 6.7 11.1 9.7 13.1v0.1c-11.9 10.8-17.8 26.4-20.7 38.8-2.6 11.3-2.8 20-2.8 20 0 0 3.3-15.4 13.6-33.9 3.8-6.7 9.3-12.8 14.7-17.7 4.1-3.7 8.1-6.8 11.4-9.2 2.9 1.8 5.3 4.6 7.6 3.4-15.6 23.4-15.2 69.8-0.6 61 14.7-8.9 18-27.6 18-27.6-3.4-22.9-2.4-48.7 0.4-53.6 3.4 0.1 13 6.9 13.6 6.8-0.9 26.9 11.7 44.8 11.7 44.8l8.4-12.9c-12.2-20.4-11.3-40.4-11.3-40.4 0.5-0.2 3.5 2 3.5 2l-2.1 2.5c3.2 18.2 13.5 30.5 13.5 30.5l7-10.2c0 0 1.8 13.1 0 15.9z"/>
				<path id="&lt;Path&gt;" class="s38" d="m522.1 564.6v8l-0.2 0.1-0.4 0.4-0.4 0.3c-3.6 2.9-18.8 12.2-66.5 14.7-56.5 3-94.1-15.1-94.1-15.1l2.8-7.8c0 0-2.6-2.3-2.8-3.4-0.2-1.2 2-3.8 2-3.8 0 0-5.6-3-5.6-6.8 0-3.5 9.2-13.4 10.7-22.7q0.3-1.5 0.3-2.9c-0.4-10-9.1-18.9-10.3-24.6q0 0 0 0c-1.1-5.7 14.8-19.7 14.8-19.7-13.6-43.2-16.3-101.2-16.3-101.2l-2.6-3.1c0 0-16.3 37.2-31.1 55.4-14.8 18.2-36.4 33.7-40.2 32.9-8.7 0-18.4-15.1-27.3-33.8-8.8-18.7-9.4-72.4-9.8-75.8-0.5-3.3-5.4-9.9-5.7-12.8 9.5 16.3 24.6 11.5 24.6 11.5-11 0.3-16.7-20.2-16.7-20.2v-0.1l-0.1-0.2-5.3-14.1c0.6 0.7 13.1 14.7 25.2 6.1 12.3-8.9 18.7-26 18.7-26v22c0 0 0.8 3.4 1.9 3.4-0.7 10.1-2.9 22.5-5.5 34.6-5.6 26.3-13.3 51.6-13.3 51.6 0 0 20.9-11.3 28.2-40.1 3.5-13.8 4.1-25.8 3.8-34.5-0.3-7.5-1.3-12.6-1.7-14.4q-0.1-0.3-0.1-0.5 0-0.1-0.1-0.2 0 0 0-0.1l2 4.3 3.9 9.5c4.4 37-4.8 92.7-4.8 92.7 13.4-16.7 16.2-53.6 15.6-62.5-0.2-4.3-0.6-9.6-0.8-13.9-0.3-4.7-0.5-8.3-0.5-8.3l27.4 16.4-5-16.1 19.9 16.1c0 0 18 21.6 36.4 24.1 18.5 2.5 86.2 1 86.2 1 0 0-58.9 3.8-76.1 8.8-17.2 5.1-20.4 10.9-20.4 10.9 12.4 63.2 81.1 84.5 83.3 85.1-62.4-9.3-91.4-62.4-91.4-62.4 0 0-1 29.9 3.8 41.2 4.8 11.4 33.1 39.2 69.4 45q4.6 0.7 9.1 0.9c30.7 1.4 56.1-14.2 58.7-15.9q0.2-0.2 0.2-0.2 0 0-0.1 0.1c-0.9 1.5-13.5 19.2-64.3 21.2q-4.6 0.1-9-0.1-0.1 0-0.1 0c-47-1.9-71-33.3-71-33.3 0 0-17.4 9.4-6.3 23.2q0.2 0.3 0.3 0.5c3.3 3.8 10.5 8.4 19.1 13.1q0.3 0.3 0.7 0.4c10.3 5.7 22.4 11.6 31.8 16.5q0 0 0.1 0c5.7 3 10.4 5.6 13 7.5q0.1 0 0.1 0c2.6 1.9 3.1 3.2 0.6 3.5-13.2 1.5-62.9-9.4-65-6.3-2 3 2.5 10.8 2.5 10.8 45.7 22.7 143.4 11.5 146.5 11.2-81.8 20.9-148.7-5.6-148.7-5.6l2.2 7.8c0 0 36.4 12.6 79.4 13.7 42.9 1 69.7-10 69.7-10z"/>
				<path id="&lt;Path&gt;" class="s39" d="m488.6 384.7c0 0 32.5 1.8 54 7.5l-11 16.8c0 0-16.7-14.7-43-24.3z"/>
				<path id="&lt;Path&gt;" class="s40" d="m517.2 486.8c0 0-9.7 15.3-37.9 19.8-28.2 4.6-39.7 1.2-39.7 1.2 0 0 19.2-0.8 39.2-8.6 19.9-7.8 40.2-24.8 40.2-24.8z"/>
				<path id="&lt;Path&gt;" class="s41" d="m528.1 539.6v0.1c-37.5 9.7-85.2-4.3-84.8-6 0.4-1.7 13 0.8 42.4-5.1 28.5-5.7 38.8-15.8 39.4-16.4-0.2 1.7-4.2 5.5-5.3 9.6-0.7 2.7 4.6 11.4 8.3 17.8z"/>
				<path id="&lt;Path&gt;" class="s42" d="m426.1 389.8c-32.1 3.3-40.7 12.2-40.7 12.2-9 1.2-29.3-21.9-29.3-21.9l-2.6-3.1c0 0-16.3 37.2-31.1 55.4-1.8 2.1-3.6 4.3-5.6 6.3l2.1-4.7c0 0 3.5-1.6 4.5-19.7 1-18-7.6-45-7.7-48.6 0-3.7-1.3-22.2-1.3-22.2l27.4 16.4-5-16.1 19.9 16.1c0 0 7.9 11.7 27.6 21.5 18.6 9.3 39.5 8.5 41.8 8.4z"/>
				<path id="&lt;Path&gt;" class="s43" d="m353.5 377l19.1-2.5c0 0 7.6 5.1 22.9 11.3l-12.7 18.9c0 0 5 26.9 19.6 42 0 0-38.6-21.4-44.1-39.5z"/>
				<path id="&lt;Path&gt;" class="s44" d="m261.4 328c12.7-2.9 24.4-28.1 24.4-28.1v22c0 0-10.8 33.4-21.8 32.5-11.1-0.8-16.7-20.2-16.7-20.2l-5.4-14.4c0 0 6.8 11 19.5 8.2z"/>
				<path id="&lt;Path&gt;" class="s45" d="m318.6 278.6c-3.1 20.6 11.4 55.6 11.4 55.6-12.2-6-22-25.7-22-25.7 5.3-26.6 10.6-29.9 10.6-29.9z"/>
				<path id="&lt;Path&gt;" class="s46" d="m547.5 337.6l3.4 11 3.4 90.1c0 0-8.7-17.1-14.8-41.6l3.1-4.9c0 0 5.4-34 4.9-54.6z"/>
				<path id="&lt;Path&gt;" class="s47" d="m652.2 364.2c0 0-1.9 44.2 16.9 48l0.9 4.8c0 0-24.3-0.9-17.8-52.8z"/>
				<path id="&lt;Path&gt;" class="s48" d="m612.4 396.9c0 0-1.8-8.7-9.6-6.3-7.8 2.3-22.3 24-22.3 24 9.1-23.6 32.7-40.4 32.7-40.4 6.9 5 7.6 3.4 7.6 3.4-5.3 7.1-8.4 19.3-8.4 19.3z"/>
				<path id="&lt;Path&gt;" class="s49" d="m239.4 342.9c0 0 9.1 16.8 26.1 11.6 0 0-10.2 6.8-20.4 1.2 0 0-6.4-10.9-5.7-12.8z"/>
				<path id="&lt;Path&gt;" class="s50" d="m304.9 367.6c-4.8 25.2-26 36.1-26 36.1 32.6-35.2 20.1-82 20.1-82 0 0 10.7 20.7 5.9 45.9z"/>
				<path id="&lt;Path&gt;" class="s51" d="m518.3 323.6c-11.6 13.1-36.8 22.4-36.8 22.4 0 0 20.1-10.3 30.2-25.4 10.2-15.2 11.6-36.3 11.6-36.3 0 0 6.6 26.2-5 39.3z"/>
				<path id="&lt;Path&gt;" class="s52" d="m394.4 252.5c0 0 0 17.7 5.7 35.7 5.6 18 55 49.4 55 49.4 0 0-50.9-21.1-60.7-40.1-9.9-19 0-45 0-45z"/>
				<path id="&lt;Path&gt;" class="s53" d="m536 343.9l-1.7 25.9c-74.3-4.9-140.5-4.4-140.5-4.4v-28.8c77.6-0.4 142.2 7.3 142.2 7.3z"/>
				<g id="&lt;Group&gt;">
					<path id="&lt;Compound Path&gt;" fill-rule="evenodd" class="s54" d="m406.1 343.2q0-0.7 0.7-0.7l13.4 0.4q2 0 3.4 0.6 1.4 0.5 2.2 1.5 0.8 0.9 1.2 2.3 0.3 1.3 0.3 2.9l-0.1 3.7q-0.1 1.6-0.5 2.9-0.4 1.3-1.3 2.2-0.9 0.9-2.3 1.4-1.4 0.4-3.4 0.4l-7.3-0.2-1.5-4.3h-0.2l-0.1 4.2-5-0.2zm4.6 12.7l8.6 0.3q1.5 0 2.1-0.6 0.6-0.6 0.7-2.3l0.1-3q0-1.6-0.6-2.2-0.6-0.7-2-0.7l-8.2-0.3q-0.2 0-0.3 0.1-0.1 0.2-0.1 0.3z"/>
					<path id="&lt;Compound Path&gt;" class="s54" d="m434.5 350.9h-0.1l-0.2 5.3q0 0.4 0.3 0.4l15.1 0.4-0.1 4.7-19.8-0.6q-0.7 0-0.7-0.8l0.5-16.4q0-0.7 0.8-0.7l19.2 0.6q0.7 0 0.7 0.7l-0.2 4.7-4.7 1.6h-0.2l0.1-2.4q0-0.3-0.3-0.3l-10.1-0.3q-0.2 0-0.3 0.1 0 0.1 0 0.2l-0.1 2.3 8.3 0.2-0.1 3.7-7-0.2z"/>
					<path id="&lt;Compound Path&gt;" class="s54" d="m468.1 350.5h-0.2v-1.9q0.1-0.3-0.2-0.3l-9.5-0.3q-0.5 0-0.7 0.2-0.2 0.2-0.2 0.6v0.4q0 0.6 0.1 0.7 0.2 0.2 0.7 0.3l11 1.8q1.1 0.2 1.8 0.6 0.7 0.3 1.2 0.8 0.5 0.5 0.6 1.3 0.2 0.7 0.2 1.7l-0.1 1.4q0 1.1-0.3 2-0.3 0.8-0.9 1.4-0.7 0.5-1.7 0.8-1 0.3-2.5 0.2l-15.9-0.5 0.1-4.6 14.3 0.4q0.7 0 0.9-0.2 0.2-0.2 0.2-0.8v-0.5q0-0.5-0.1-0.6-0.2-0.2-0.6-0.3l-10.7-1.7q-1.1-0.2-1.8-0.5-0.8-0.3-1.3-0.8-0.5-0.5-0.7-1.2-0.2-0.7-0.1-1.7v-1.3q0.1-1.9 1.1-3 1.1-1 3.5-0.9l15.9 0.5q0.8 0 0.7 0.8l-0.1 3.7z"/>
					<path id="&lt;Compound Path&gt;" class="s54" d="m474.8 362.4l0.5-17.8 5.1 0.1-0.5 17.9z"/>
					<path id="&lt;Compound Path&gt;" class="s54" d="m498.6 355.5q0.1-0.4 0-0.8 0-0.5 0-0.8v-0.2l5 0.1-0.3 8.8q0 0.7-0.6 0.7l-13.5-0.4q-2-0.1-3.4-0.6-1.3-0.6-2.2-1.5-0.8-1-1.2-2.3-0.3-1.3-0.3-2.9l0.2-3.7q0-1.6 0.4-3 0.5-1.3 1.4-2.1 0.8-0.9 2.3-1.4 1.4-0.5 3.4-0.4l13.4 0.4q0.7 0 0.6 0.8l-0.1 3.8-4.7 1.6h-0.2v-1.7q0-0.3-0.2-0.3l-8.5-0.2q-0.8-0.1-1.3 0.1-0.5 0.1-0.8 0.4-0.3 0.3-0.5 0.9-0.2 0.5-0.2 1.3l-0.1 3.2q0 1.6 0.6 2.3 0.6 0.6 2 0.7l8.5 0.2q0.3 0 0.3-0.3z"/>
					<path id="&lt;Compound Path&gt;" class="s54" d="m514.3 345.7q0.6 0.1 0.8 0.2 0.2 0.2 0.4 0.6l6.4 13q0.1 0.3 0.4 0.4h0.3q0.4 0 0.4-0.4l0.4-13.5 4.6 0.2-0.5 17.1q0 0.7-0.7 0.7l-7.3-0.2q-0.5 0-0.7-0.2-0.3-0.1-0.5-0.5l-6.7-13.1q-0.1-0.3-0.4-0.3h-0.3q-0.3 0-0.4 0.4l-0.4 13.4-4.6-0.1 0.6-17.2q0-0.7 0.7-0.7z"/>
				</g>
				<path id="&lt;Path&gt;" class="s55" d="m498.6 256.3c-1.6 18.6-7.2 31.6-13.3 40.3-8.3 12-17.3 16.1-17.3 16.1-9-3.9-16.8-8.8-23.5-14.1-28.5-22.8-37.7-54.4-38.4-57 12 29 29.7 46.7 43.1 56.6 10.8 8 18.8 11 18.8 11v-9.3q-3.2-1.2-6.2-2.7c-23.6-11.9-36-36.7-41.8-52.7q0-0.1 0-0.1c-3.2-8.7-4.4-14.8-4.4-14.8h4.3l-1.4 3-0.1 0.1q1 4.5 2.4 8.7 0 0.1 0 0.2c13.2 41.7 47.2 55.1 47.2 55.1 23.6-17.4 23.1-45.1 23.1-45.1v-3.8l4.5 1.3z"/>
				<path id="&lt;Path&gt;" class="s56" d="m652.2 364.2c0 0-6.4-1.7-8.7 1.9-2.2 3.6-5.3 44.9-5.3 44.9-6-32.6 0.4-53.6 0.4-53.6 3.6 1.2 13.6 6.8 13.6 6.8z"/>
				<path id="&lt;Path&gt;" class="s57" d="m576.3 471.4c-5.6-4.9-12.3-13.1-19-26.5-13.4-26.8-17.2-44.7-17.8-47.8l3.1-4.9 4.3-41.2 4-2.4c0 0 14.2-15.7 25-39.4q0.2 0.6 0.5 1.7v0.1c2.2 8.5 6.7 40.6 10.9 52 2.6 7.2 6.7 11.1 9.7 13.1 0 0-24.6 36.6-25.8 62.6-1.1 23.7 4.2 31.5 5.1 32.7z"/>
				<path id="&lt;Path&gt;" class="s58" d="m430.2 547.5c0 0-44.4-7.3-62.5-18.9q-0.1 0-0.1-0.1 0.3-1.5 0.3-2.9c-0.4-10-9.1-18.9-10.3-24.6 0.2 0.6 1.5 3.6 7.8 9 4 3.4 10 7.8 19.1 13.1q0.3 0.3 0.7 0.4c12.8 7.6 23.8 12.7 31.8 16.5q0 0 0.1 0c7.2 3.4 11.8 5.6 13 7.5q0.1 0 0.1 0z"/>
				<path id="&lt;Path&gt;" class="s59" d="m525.1 512.2c-0.2 1.7-4.2 5.5-5.3 9.6 0 0-16.3 17.2-76.5 11.9 0.4-1.7 13 0.8 42.4-5.1 28.5-5.7 38.8-15.8 39.4-16.4z"/>
				<path id="&lt;Path&gt;" class="s60" d="m535.1 278.9l-38.5 12.5-11.3 5.2v0.1h-7.4-9.9l-6.2 0.5-3.3 0.2-9.3 0.8-4.7 0.4-46.2-16.8-8.3-2.9-38-13.8q1.7-0.6 3.5-1.4c25.5-10.1 50.5-22.3 50.5-22.3l9.6-11.8h4.3c3.8-8.4 6.3-16.2 8-22.4l2.5-11.4c0.2-1.1 0.3-1.7 0.3-1.7l13.6 7.2 45.8 36.7c0 2.5 0.1 4.7 0.2 6.6l0.7 4.6c0.1-0.9 0.1-1.4 0.1-1.4l4.5 1.3 3 7.2c0 0 5.1 8 25.4 16.9 3.5 1.6 7.2 3.5 11.1 5.7z"/>
				<g id="&lt;Group&gt;">
					<path id="&lt;Path&gt;" class="s61" d="m505.8 243.8c0 0-18 4-37.8-5.6-19.8-9.6-36.5-37.9-37.5-44.9-1-7.1 7.6-25.6 7.6-40 0-14.4-7.1-39.1 4.8-52.5 11.9-13.4 66.4-15.4 84.1 1.8 0 0 5.5 13.7 5.5 21.5 0 1.9-0.3 4.6-0.8 7.8-0.2 1.2-0.4 2.5-0.6 3.8-1.6 9.4-3.8 20.9-2.8 25.9 0.4 1.8 1 3.4 1.6 4.9v0.1c2.2 5 5.4 9 6 13.4 0.8 5.7-6.9 46.1-30.1 63.8z"/>
					<path id="&lt;Path&gt;" class="s62" d="m432.2 182.2c0 0-11.1 1.4-14.1-7.9-3.1-9.3-5.7-29.2-5.7-29.2 1.1-5.5 8.3-8.3 8.3-8.3 12.3 0.2 17.2 12.5 17.2 12.5 4 18.1-5.7 32.9-5.7 32.9z"/>
					<path id="&lt;Path&gt;" class="s63" d="m490.5 188.2l0.6 1.1c0 0 5.1 5.2 16.9 7.5 11.8 2.2 13.5-4.3 13.5-4.3 4.2 1.3 5 4.1 5 4.1 0 0-1.9-2.5-3.7-2.1-1.7 0.3-7.2 7.3-15.3 5.6-8.2-1.7-14.6-8-16.4-9.3-1.7-1.3-5.8-1-5.8-1 1.9-0.9 5.2-1.6 5.2-1.6z"/>
					<path id="&lt;Path&gt;" class="s64" d="m504.9 116.2c0.5 19-8.3 44.7-8.3 44.7-11.7 3-32-6.8-32-6.8l-7.9 5.5c0 0 10.8 13.3 12.7 27.8l-5.1 4.5-18-9.6-7.4-43.5 2.1-32.9 16.7-13.4 68.4 1.1 9.9 20-4.3 6.5c0 0-5.3-14.6-28.6-14-23.3 0.6-35.1 21.2-35.1 21.2l-0.2 1.3c7.1-8 37.1-12.4 37.1-12.4z"/>
					<path id="&lt;Path&gt;" class="s65" d="m466.8 130.1c0 0 1.1-7.4 13.7-10.4 14-3.3 25.4-6.1 25.4-6.1 0 0-2.5 8.1-7.2 11.2 0 0-14.8-0.5-22.3 1.2-7.5 1.7-9.6 4.1-9.6 4.1z"/>
					<path id="&lt;Path&gt;" class="s65" d="m531.1 135.7c0 0 0.4-2.9-2.5-3-4.2-0.1-8.9 6-8.9 6 4.8-13.1 12-18.6 12-18.6 2.3 7.8-0.6 15.6-0.6 15.6z"/>
					<path id="&lt;Path&gt;" class="s66" d="m471.5 151.2c0 0 0.8-15.7 16.1-19.7 0 0 5.5 7.1 6.1 15.1 0 0-8.2-1.5-22.2 4.6z"/>
					<path id="&lt;Path&gt;" class="s67" d="m515.5 157.4c0 0 1.2-12.5 8.4-17.1 0 0 4.9 3.7 4.4 14.1 0 0-4.3-1.5-12.8 3z"/>
					<path id="&lt;Path&gt;" class="s68" d="m492.8 146.5c0.3 8-2.4 12-2.4 12-13.9-1.2-18.9-7.3-18.9-7.3 8.5-5.9 21.3-4.7 21.3-4.7z"/>
					<path id="&lt;Path&gt;" class="s68" d="m528 154.4c-0.2 6.2-2.7 10.1-2.7 10.1-7.7-0.7-9.8-5.2-9.8-5.2v-1.9c7.6-4.3 12.5-3 12.5-3z"/>
					<path id="&lt;Path&gt;" class="s69" d="m492.8 146.5c0.7 7.8-2.4 12-2.4 12-2.6-0.1-7.2-1.2-7.2-1.2-0.3-6.8 3.2-11.1 3.2-11.1 2.4-0.5 6.4 0.3 6.4 0.3z"/>
					<path id="&lt;Path&gt;" class="s69" d="m528 154.4c0.1 6.1-2.7 10.1-2.7 10.1-2.2 0-4.9-1.2-4.9-1.2 0.4-6.6 2.4-8.7 2.4-8.7 3.2-1 5.2-0.2 5.2-0.2z"/>
					<path id="&lt;Path&gt;" class="s65" d="m485.3 157.8c0 0-1.3-8.5 3.6-11.8l3.9 0.5c0 0 1.4 6.8-2.4 12 0 0-3.9-0.4-5.1-0.7z"/>
					<path id="&lt;Path&gt;" class="s65" d="m528 154.4c0 6.8-2.7 10.1-2.7 10.1-2-0.1-3.4-0.6-3.4-0.6 0.8-5.9 2.6-9.7 2.6-9.7 1.4-0.4 3.5 0.2 3.5 0.2z"/>
					<path id="&lt;Path&gt;" class="s70" d="m493.7 146.6l2.9 2.3c-15.8-3.1-25.1 2.3-25.1 2.3 10.9-8.1 22.2-4.6 22.2-4.6z"/>
					<path id="&lt;Path&gt;" class="s70" d="m528 152.9l3.6 2.7c-8.7-2.1-16.1 1.8-16.1 1.8 6.7-5.4 12.5-4.5 12.5-4.5z"/>
					<path id="&lt;Path&gt;" class="s0" d="m481.5 151.2c0 0 2.6-0.6 4.8 1.7 0 0-3.1 0.9-4.8-1.7z"/>
					<path id="&lt;Path&gt;" class="s0" d="m518.9 158.5c0 0 3.9-0.8 5.3 1.1 0 0-2.1 1.4-5.3-1.1z"/>
					<path id="&lt;Path&gt;" class="s71" d="m490.4 158.5l1.1-1.8-0.3 4.2c-11.6-1.7-18.8-8.8-18.8-8.8 6.9 5.8 18 6.4 18 6.4z"/>
					<path id="&lt;Path&gt;" class="s71" d="m525.3 164.5l0.5-0.8 0.3 2.3c-9.4-2.1-10.6-6.7-10.6-6.7 3.1 4.4 9.8 5.2 9.8 5.2z"/>
					<path id="&lt;Path&gt;" class="s72" d="m496.6 177.7c0 0 3.5-0.7 9.9 0 6.5 0.8 13.7 2.5 17.7 0 0 0-5.3 5.3-9.8 6.1-4.6 0.8-11.5-3.2-11.5-3.2h-3c0 0-2.4-1.1-3.3-2.9z"/>
					<path id="&lt;Path&gt;" class="s73" d="m500.3 180.6c0 0 1.6-1 2.9-0.7 1.3 0.2 2.7 2.1 2.7 2.1 0 0-2.8-1.4-5.6-1.4z"/>
					<path id="&lt;Path&gt;" class="s74" d="m516.3 178.9c-5.6-0.7-11.4-1.5-11.4-1.5 0 0 3.9-18 8.1-17.4 4.2 0.5 12.9 16.1 11.2 17.7 0 0-2.3 2-7.9 1.2z"/>
					<path id="&lt;Path&gt;" class="s75" d="m531.7 131.9c-0.1 1.8-0.6 3.8-0.6 3.8-1.6 9.4-3.8 20.9-2.8 25.9 0.4 1.8 1 3.4 1.6 4.9v0.1l-0.5 0.8c0 0-12.9-2.6-13.9-7.4-1.1-4.9 4.2-21.3 4.2-21.3 0 0 8.4-10.2 10.7-9.9 1.1 0.2 1.3 1.6 1.3 3.1z"/>
					<path id="&lt;Compound Path&gt;" fill-rule="evenodd" class="s76" d="m534.5 191.1c-0.2 1.9-6.7 42.3-25.4 54.5q0 0.1 0 0.1c0 0-17 4.1-42.7-5.5 0 0-29-16.5-36-44.4 0 0-1.6-6.5 1.8-13.6 0 0 4.9-2 7.1-14.8 2.5-14.2-5-23.9-5-23.9 0 0 1-7.7-1.3-16.4-2.2-8.8-6.5-17.2-4.6-23.4 1.9-6.2 17.7-10.1 24.9-16 1.3-1 2.3-2 3.2-3q0 0 0 0 0.1 0 0.2-0.1c0.9-1 1.7-2 2.4-3l0.8-0.9 0.8-0.9c2.1-2.5 4.7-4.9 10.2-7.4 11-5.1 18.7-5.9 26.6-13q0.1-0.1 0.1-0.1c0 0 0.4 7.2-2.2 13.4 0 0 24.2-5.4 29.9-5.4 5.7 0 7.6 18.1 7.6 18.1v0.1c0.4 0.5 7.2 9.6 9.6 15.9 1.4 3.4-10.4 27.2-10.4 27.2 0 0 1.4-11.3-5.8-21.7l-2.7 2.4c0 0-0.1-0.2-0.3-0.6-1.1-2.1-5-8.4-11.8-10.2 0 0 0 1.3-21.4-0.9-21.4-2.3-30.2-3.4-35.3 1.5-5.1 4.9-3.2 16.5 1.5 20.4 0 0-13 13.9-12.7 33.4 0.4 18.8 14.6 32.7 20.6 35.1q0.3 0.1 0.7 0.2c5.5 1.5 8.3-8.5 41-4.2 23.1 3.1 21.5 6 24.1 11.5 0.7 1.5 4.2-3.9 4.5-4.4zm-6.5 12.3c0.2-8.6-5.9-11.4-7.1-10.9-1.1 0.5-4.5 2.2-14 1.6-9.4-0.6-15.8-5.9-15.8-5.9 0 0-12.2 1.3-15.7 11.1-3.5 9.9 12.7 16.4 15.7 16.2 3.1-0.3 10.6-8.9 10.6-8.9 0 0 8.3-0.6 9.8 0.9 1.5 1.5 2.4 13 7 13.8 4.5 0.8 9.4-12 9.5-17.9z"/>
					<path id="&lt;Path&gt;" class="s77" d="m517.3 163.4c0 0 8.2 10.2 7.4 14-0.9 4.2-10.3 6.4-10.3 6.4 0 0 7.6-2.6 9.1-6.4 0 0-1.9-7.7-6.2-14z"/>
					<path id="&lt;Path&gt;" class="s78" d="m532.1 128.6c0 0 1.4-11.3-5.8-21.7 5.7-10.4 6.6-21.5 6.6-21.5v0.1c2 4.8 3.1 14.2 3.1 14.2l6.5 1.7c1.4 3.4-10.4 27.2-10.4 27.2z"/>
					<path id="&lt;Path&gt;" class="s79" d="m523.3 108.7c-1.1-2.1-5-8.4-11.8-10.2 0 0 0 1.3-21.4-0.9-21.4-2.3-30.2-3.4-35.3 1.5-5.1 4.9-3.2 16.5 1.5 20.4 0 0-13 13.9-12.7 33.4 0.4 18.8 14.6 32.7 20.6 35.1l-0.3 2c0 0 1.1 43 11.5 46.5 10.5 3.4 32.2 1.6 34.2 3.6 1.9 1.9-0.3 5.2-0.5 5.5q0 0.1 0 0.1c0 0-17 4.1-42.7-5.5 0 0-29-16.5-36-44.4 0 0-1.6-6.5 1.8-13.6 0 0 4.9-2 7.1-14.8 2.5-14.2-5-23.9-5-23.9 0 0 1-7.7-1.3-16.4-2.2-8.8-6.5-17.2-4.6-23.4 12.1 1.9 20-4.4 20-4.4 0 0 2.2-3 11.5-4.5 9.4-1.5 47.1 2.3 47.1 2.3 0 0-3.8-3.1-11.7-5.2-7.5-2-33.2 0.3-36 0.5 3-0.5 32.1-5.5 35.4-4.5 3.5 1 16.1 6.8 16.1 6.8-1.1-5.8-12.4-19.7-12.4-19.7 0 0-15.9 0.3-26.3 2.5-9.3 1.9-14.4 6.2-15.4 7.1l2.4-3 0.8-0.9 0.8-0.9 3.6-0.6 18.3-7.4c6.1-3.3 14-11.4 14.9-12.4q0.1-0.1 0.1-0.1c0 0 0.4 7.2-2.2 13.4 15.4-1.9 20.6-0.9 20.6-0.9 7 9.9 7.3 36.9 7.3 36.9z"/>
					<path id="&lt;Path&gt;" class="s80" d="m466.4 240.2c0 0 9.4-2.2 23.7-1.6 14.3 0.5 22.5 0.6 19 7.1 0 0-18 4-42.7-5.5z"/>
					<path id="&lt;Path&gt;" class="s81" d="m495.4 72.7c0 0 28.5-6.3 30-5.9 1.4 0.4 2.7 2.2 2.7 2.2-3.4-0.6-12.1 2.8-12.1 2.8-2.8-1.1-20.6 0.9-20.6 0.9z"/>
					<path id="&lt;Path&gt;" class="s82" d="m498.4 75c0 0-0.7 9.5-3.7 12.9l-35.4 4.5-10.4-1.8c0 0 4.1-1.7 8.5-6.9 4.4-5.1 27.5-10.2 41-8.7z"/>
					<path id="&lt;Path&gt;" class="s83" d="m542.5 101.4l-6.5-1.7c-0.2-5-3.1-14.3-3.1-14.3 7.6 8.9 9.6 16 9.6 16z"/>
					<path id="&lt;Path&gt;" class="s84" d="m429.8 162.6c-0.3 2.2 1.5 9.6-0.2 9.7-1.7 0.1-6.2-4.6-5-11.2 1.2-6.5 3.3-9 3.3-9 0 0-6.5-4.8-8.1-3.6-1.6 1.3-1.5 11.6-0.9 18.9 0.6 7.3 4.8 11.1 4.8 11.1 0 0-3-1.4-5-6.8-2-5.4-3.9-27.6-3.9-27.6 0 0 7-1.9 13.1 4 6.1 5.9 8.6 17.9 8.6 17.9-2.6-5.1-6.4-5.5-6.7-3.4z"/>
					<path id="&lt;Path&gt;" class="s85" d="m434.8 160.2c0 0-4.4-1.2-4.9 1.5-0.6 2.7 0.4 7.6 0.4 9.5 0 1.9-5.1 2.3-5.9-6.7-0.7-9 6-13.4 6-13.4 1.5 2 4.4 9.1 4.4 9.1z"/>
					<path id="&lt;Path&gt;" class="s86" d="m534.5 191.1c0 0-8.2 37.7-25.4 54.6 0 0 19.6-7.7 25.4-54.6z"/>
					<path id="&lt;Path&gt;" class="s86" d="m533.5 86.3c-0.7 10.8-7.2 20.6-7.2 20.6 0 0 5.1-13.1 4.2-24.9-0.8-11.8-5.1-15.2-5.1-15.2 3.4 1.3 8.7 8.8 8.1 19.5z"/>
				</g>
				<path id="&lt;Path&gt;" class="s87" d="m493.1 91.5c9.5 1.3 13.9 5.6 13.9 5.6 0 0-2.3-0.2-13.3-1.2-11.1-1-21.2-4.4-21.2-4.4 0 0 11.1-1.3 20.6 0z"/>
				<path id="&lt;Path&gt;" class="s88" d="m521.2 187.6c1.4-0.3 4.2 1.1 5.9 2.4 2.3 1.9 4.6 10.3 4.6 10.3l-1.7 6.7c0 0-0.5-4.2-2-9-1.9-6.1-6.7-6.1-6.7-6.1z"/>
				<path id="&lt;Path&gt;" class="s89" d="m519.6 187.6l-0.7 4.3c-3.9 1.6-9.8 1.2-9.8 1.2l-0.8-7.2c3.8-0.2 11.3 1.7 11.3 1.7z"/>
				<path id="&lt;Path&gt;" class="s86" d="m575.5 307c1.6 3.7 0.9 3.9 3.8 19 2.9 15.1 7.1 34.3 7.1 34.3-6.1-11.8-7.9-38.9-12.4-47.6-4.4-8.6-38.9-33.8-38.9-33.8 13.1 6.6 38.8 24.4 40.4 28.1z"/>
				<path id="&lt;Path&gt;" class="s86" d="m516.4 493.8c0.1 5.5 10.5 13.9 10.3 17.3-0.3 3.4-7.8 7.2-6.8 12.4 0.4 2 13.5 21.7 13 24-0.5 2.4-10.8 17.1-10.8 17.1 0 0 9.1-15 9.2-16.4 0.4-4.7-13.7-20.1-14-22.6-0.4-2.4 7.8-13.4 7.8-13.4-0.5-2.7-11.2-12.5-12-17.3-0.8-4.8 15.8-75.9 15.8-75.9 0 0-12.6 69.2-12.5 74.8z"/>
				<path id="&lt;Path&gt;" class="s86" d="m532.3 588.5c0 0 35.9 81.2 48.2 162.5 0 0-2.1-79.3-48.2-162.5z"/>
				<path id="&lt;Path&gt;" class="s74" d="m304.7 262.6c0 0-9.3-2-13.1-10.1-3.9-8.1-1.4-19.8-1.4-19.8 0 0 7.3 13.9 10.9 18.7 3.6 4.8 4.6 10.2 3.6 11.2z"/>
			</g>
			<g id="&lt;Group&gt;">
				<path id="&lt;Path&gt;" class="s90" d="m604.7 206.2l327.2-2.1c7.6-0.1 13.8 6.2 13.6 13.8l-4.4 185.8c-0.2 7.3-6.2 13.2-13.6 13.2h-316.2c-7.3 0-13.3-5.8-13.5-13.1l-6.5-183.6c-0.3-7.6 5.8-13.9 13.4-14z"/>
				<g id="&lt;Group&gt;">
					<path id="&lt;Compound Path&gt;" fill-rule="evenodd" class="s91" d="m927.5 417.4h-316.2c-7.6 0-13.8-6-14-13.6l-6.5-183.6c-0.1-3.8 1.3-7.4 3.9-10.2 2.7-2.7 6.2-4.2 10-4.3l327.2-2.1c3.8 0 7.4 1.4 10.1 4.2 2.7 2.7 4.1 6.3 4 10.1l-4.4 185.8c-0.2 7.7-6.4 13.7-14.1 13.7zm4.5-212.8q-0.1 0-0.1 0l-327.1 2.1c-3.6 0.1-6.9 1.5-9.4 4-2.4 2.6-3.7 6-3.6 9.5l6.5 183.6c0.2 7.1 5.9 12.6 13 12.6h316.2c7.1 0 12.9-5.7 13.1-12.7l4.4-185.8c0.1-3.5-1.2-6.9-3.7-9.4-2.5-2.5-5.8-3.9-9.3-3.9z"/>
				</g>
				<path id="&lt;Path&gt;" class="s92" d="m591.6 219.3c-0.1-6.8 5.3-12.5 12.2-12.5l327-2.6c8.5-0.1 15.4 7.1 14.9 15.7l-0.6 9.7h-353.3z"/>
				<path id="&lt;Path&gt;" class="s93" d="m717.7 243.8v106.8h-108.1v-106.2z"/>
				<path id="&lt;Path&gt;" class="s94" d="m869.3 298.6h-47.1v-47.1h47.1z"/>
				<path id="&lt;Path&gt;" class="s95" d="m924.8 298.6h-47.1v-47.1h47.1z"/>
				<path id="&lt;Path&gt;" class="s96" d="m812.8 298.6h-47v-47.1h47z"/>
				<path id="&lt;Path&gt;" class="s97" d="m924.8 337.3h-120.3v-11.3h120.3z"/>
				<path id="&lt;Path&gt;" class="s97" d="m924.8 346.6h-150.4v-3.5h150.4z"/>
				<path id="&lt;Path&gt;" class="s97" d="m804.6 308.1h-28.8v-3.5h28.8z"/>
				<path id="&lt;Path&gt;" class="s97" d="m860.1 308.1h-28.7v-3.5h28.7z"/>
				<path id="&lt;Path&gt;" class="s97" d="m915.6 308.1h-28.7v-3.5h28.7z"/>
				<path id="&lt;Path&gt;" class="s97" d="m814.2 352.3h-48.4v-3.5h48.4z"/>
				<path id="&lt;Path&gt;" class="s97" d="m924.8 357.9h-150.4v-3.5h150.4z"/>
				<path id="&lt;Path&gt;" class="s97" d="m924.8 363.5h-159v-3.5h159z"/>
				<path id="&lt;Path&gt;" class="s97" d="m924.8 369.1h-159v-3.5h159z"/>
				<path id="&lt;Path&gt;" class="s97" d="m924.8 391.8h-150.4v-3.5h150.4z"/>
				<path id="&lt;Path&gt;" class="s97" d="m924.8 397.4h-159v-3.5h159z"/>
				<path id="&lt;Path&gt;" class="s97" d="m924.8 403h-159v-3.5h159z"/>
				<path id="&lt;Path&gt;" class="s97" d="m918.4 374.7h-152.6v-3.5h152.6z"/>
				<path id="&lt;Path&gt;" class="s97" d="m924.8 380.3h-150.4v-3.5h150.4z"/>
				<path id="&lt;Path&gt;" class="s97" d="m894.6 385.9h-128.8v-3.5h128.8z"/>
				<g id="&lt;Group&gt;" style="mix-blend-mode: soft-light">
					<path id="&lt;Compound Path&gt;" fill-rule="evenodd" class="s98" d="m639.9 329.3c-17 0-30.8-13.8-30.8-30.7 0-17 13.8-30.8 30.8-30.8 16.9 0 30.7 13.8 30.7 30.8 0 16.9-13.8 30.7-30.7 30.7zm0-59.5c-15.9 0-28.8 12.9-28.8 28.8 0 15.8 12.9 28.7 28.8 28.7 15.8 0 28.7-12.9 28.7-28.7 0-15.9-12.9-28.8-28.7-28.8z"/>
				</g>
				<path id="&lt;Path&gt;" class="s0" d="m656.6 298.6c0 9.2-7.5 16.7-16.7 16.7-9.3 0-16.8-7.5-16.8-16.7 0-9.3 7.5-16.8 16.8-16.8 9.2 0 16.7 7.5 16.7 16.8z"/>
				<g id="&lt;Group&gt;" style="mix-blend-mode: soft-light">
					<path id="&lt;Compound Path&gt;" fill-rule="evenodd" class="s98" d="m717.7 274.6c-17 0-30.8-13.8-30.8-30.8 0-16.9 13.8-30.7 30.8-30.7 17 0 30.8 13.8 30.8 30.7 0 17-13.8 30.8-30.8 30.8zm0-59.5c-15.9 0-28.8 12.9-28.8 28.7 0 15.9 12.9 28.8 28.8 28.8 15.9 0 28.8-12.9 28.8-28.8 0-15.8-12.9-28.7-28.8-28.7z"/>
				</g>
				<path id="&lt;Path&gt;" class="s0" d="m733.4 243.8c0 8.7-7 15.8-15.7 15.8-8.7 0-15.7-7.1-15.7-15.8 0-8.7 7-15.7 15.7-15.7 8.7 0 15.7 7 15.7 15.7z"/>
				<g id="&lt;Group&gt;" style="mix-blend-mode: soft-light">
					<path id="&lt;Path&gt;" class="s0" d="m604.2 215.2l2.2-3.4 12.2 10.6-1.9 2.6z"/>
					<path id="&lt;Path&gt;" class="s0" d="m606.3 225l-1.8-2.6 12.1-10.6 2.3 3.4z"/>
				</g>
				<path id="&lt;Path&gt;" class="s0" d="m936.6 219.5h-108.9v-5.4h108.9z"/>
			</g>
			<g id="&lt;Group&gt;">
				<path id="&lt;Path&gt;" class="s99" d="m312 133.7l-0.8 49.3-56.5-0.5v-47.3z"/>
				<path id="&lt;Path&gt;" class="s100" d="m312 133.7l3.7 6.2-1.9 43-2.6 0.1z"/>
				<path id="&lt;Path&gt;" class="s0" d="m264.8 151.2l5.2-7.6 28.2 23.7-4.3 5.8z"/>
				<path id="&lt;Path&gt;" class="s0" d="m269.8 173.1l-4.3-5.8 28.2-23.7 5.3 7.6z"/>
			</g>
			<g id="&lt;Group&gt;">
				<path id="&lt;Path&gt;" class="s101" d="m386.5 691.4h-193.3c-8.6 0-15.7-6.9-15.9-15.5l-3.6-158.6c-0.2-8.9 7-16.2 15.9-16.2h201.3c8.9 0 16.1 7.3 15.8 16.2l-4.3 158.7c-0.3 8.5-7.3 15.4-15.9 15.4z"/>
				<g id="&lt;Group&gt;">
					<path id="&lt;Compound Path&gt;" fill-rule="evenodd" class="s102" d="m386.5 691.9h-193.3c-8.8 0-16.2-7.2-16.4-16l-3.6-158.6c-0.1-4.4 1.6-8.6 4.7-11.8 3.1-3.2 7.2-4.9 11.7-4.9h201.3c4.4 0 8.6 1.7 11.7 4.9 3.1 3.2 4.7 7.4 4.6 11.9l-4.3 158.6c-0.3 8.9-7.4 15.9-16.4 15.9zm-196.9-190.3c-4.2 0-8.1 1.6-11 4.6-2.9 3-4.5 6.9-4.4 11.1l3.6 158.6c0.2 8.2 7.1 15 15.4 15h193.3c8.4 0 15.1-6.6 15.4-15l4.3-158.6c0.1-4.1-1.4-8.1-4.3-11.1-2.9-3-6.8-4.6-11-4.6z"/>
				</g>
				<g id="&lt;Group&gt;">
					<path id="&lt;Path&gt;" class="s0" d="m327.5 537.9h-101.7v-4.4h101.7z"/>
					<path id="&lt;Path&gt;" class="s0" d="m276.7 548.5h-50.9v-4.4h50.9z"/>
					<path id="&lt;Path&gt;" class="s0" d="m276.7 557.3h-50.9v-4.3h50.9z"/>
					<path id="&lt;Path&gt;" class="s0" d="m322.9 557.3h-40.5v-4.3h40.5z"/>
					<path id="&lt;Path&gt;" class="s0" d="m307.8 566.1h-82v-4.3h82z"/>
					<path id="&lt;Path&gt;" class="s0" d="m255 575h-29.2v-4.4h29.2z"/>
					<path id="&lt;Path&gt;" class="s0" d="m311.5 601.5h-50.5v-4.3h50.5z"/>
					<path id="&lt;Path&gt;" class="s0" d="m317.3 583.8h-91.5v-4.3h91.5z"/>
					<path id="&lt;Path&gt;" class="s0" d="m296.2 592.7h-70.4v-4.4h70.4z"/>
					<path id="&lt;Path&gt;" class="s0" d="m258.9 601.5h-33.1v-4.3h33.1z"/>
					<path id="&lt;Path&gt;" class="s0" d="m276.7 610.4h-50.9v-4.4h50.9z"/>
					<path id="&lt;Path&gt;" class="s0" d="m240.4 619.2h-14.6v-4.4h14.6z"/>
					<path id="&lt;Path&gt;" class="s0" d="m299.4 619.2h-53v-4.4h53z"/>
					<path id="&lt;Path&gt;" class="s0" d="m311.5 627.8h-50.5v-4.4h50.5z"/>
					<path id="&lt;Path&gt;" class="s0" d="m258.9 627.8h-33.1v-4.4h33.1z"/>
					<path id="&lt;Path&gt;" class="s0" d="m276.7 636.6h-50.9v-4.3h50.9z"/>
					<path id="&lt;Path&gt;" class="s0" d="m240.4 645.5h-14.6v-4.4h14.6z"/>
					<path id="&lt;Path&gt;" class="s0" d="m299.4 645.5h-53v-4.4h53z"/>
				</g>
			</g>
			<path id="&lt;Path&gt;" class="s103" d="m905.4 168.7c0 4.9-4 8.9-8.9 8.9-4.9 0-8.9-4-8.9-8.9 0-5 4-9 8.9-9 4.9 0 8.9 4 8.9 9z"/>
			<path id="&lt;Path&gt;" class="s104" d="m67.6 376c0 6.1-4.9 11.1-11.1 11.1-6.1 0-11.1-5-11.1-11.1 0-6.2 5-11.2 11.1-11.2 6.2 0 11.1 5 11.1 11.2z"/>
			<path id="&lt;Path&gt;" class="s105" d="m931.7 168.7c0 4.9-4 8.9-9 8.9-4.9 0-8.9-4-8.9-8.9 0-5 4-9 8.9-9 5 0 9 4 9 9z"/>
			<path id="&lt;Path&gt;" class="s106" d="m352.7 230.1c0 3.5-2.8 6.4-6.3 6.4-3.5 0-6.3-2.9-6.3-6.4 0-3.5 2.8-6.3 6.3-6.3 3.5 0 6.3 2.8 6.3 6.3z"/>
			<path id="&lt;Path&gt;" class="s107" d="m776 509c0 3.5-2.8 6.3-6.3 6.3-3.5 0-6.3-2.8-6.3-6.3 0-3.5 2.8-6.3 6.3-6.3 3.5 0 6.3 2.8 6.3 6.3z"/>
			<path id="&lt;Path&gt;" class="s108" d="m118.3 572c0 3.1-2.5 5.7-5.6 5.7-3.1 0-5.7-2.6-5.7-5.7 0-3.1 2.6-5.6 5.7-5.6 3.1 0 5.6 2.5 5.6 5.6z"/>
			<g id="&lt;Group&gt;">
				<path id="&lt;Path&gt;" class="s109" d="m209 516.5h-97.6c-7.9 0-14.3-6.2-14.6-14l-2.1-64.2c-0.3-8.3 6.3-15.1 14.5-15.1h101.7c8.3 0 14.9 6.8 14.6 15l-2 64.2c-0.2 7.9-6.6 14.1-14.5 14.1z"/>
				<g id="&lt;Group&gt;">
					<path id="&lt;Compound Path&gt;" fill-rule="evenodd" class="s110" d="m209 517h-97.6c-8.2 0-14.8-6.4-15.1-14.5l-2.1-64.2c-0.2-4.1 1.3-8 4.2-11 2.9-3 6.7-4.6 10.8-4.6h101.8c4.1 0 7.9 1.6 10.8 4.6 2.8 2.9 4.3 6.8 4.2 10.9l-2 64.2c-0.2 8.2-6.8 14.6-15 14.6zm-99.8-93.3c-3.8 0-7.4 1.5-10.1 4.3-2.7 2.8-4.1 6.4-3.9 10.3l2.1 64.1c0.3 7.7 6.5 13.6 14.1 13.6h97.6c7.6 0 13.8-5.9 14-13.6l2-64.2c0.1-3.8-1.3-7.5-4-10.2-2.6-2.8-6.2-4.3-10-4.3z"/>
				</g>
				<g id="&lt;Group&gt;">
					<path id="&lt;Path&gt;" class="s0" d="m136.8 457.1l-13.1 14.9 14.2 12.2v10.8l-24.6-20.8 24.1-27.9z"/>
				</g>
				<g id="&lt;Group&gt;">
					<path id="&lt;Path&gt;" class="s0" d="m179.7 447.5l24.1 27.9-24.5 20.8v-10.7l14.1-12.3-15.7-16.7z"/>
				</g>
				<g id="&lt;Group&gt;">
					<path id="&lt;Path&gt;" class="s0" d="m142.7 495l20.9-46.2h9.9l-23.8 46.2z"/>
				</g>
			</g>
			<g id="&lt;Group&gt;">
				<path id="&lt;Path&gt;" class="s111" d="m865.6 648.6h-122.1c-9.8 0-17.8-7.7-18.2-17.6l-2.7-80.3c-0.3-10.3 7.9-18.8 18.2-18.8h127.3c10.3 0 18.5 8.5 18.2 18.8l-2.4 80.3c-0.3 9.8-8.4 17.6-18.3 17.6z"/>
				<g id="&lt;Group&gt;">
					<path id="&lt;Compound Path&gt;" fill-rule="evenodd" class="s110" d="m865.6 649.1h-122.1c-10.1 0-18.3-7.9-18.7-18l-2.7-80.4c-0.1-5.1 1.7-9.9 5.3-13.6 3.5-3.7 8.3-5.7 13.4-5.7h127.3c5.1 0 9.9 2 13.4 5.7 3.6 3.6 5.5 8.5 5.3 13.6l-2.4 80.3c-0.4 10.2-8.6 18.1-18.8 18.1zm-124.8-116.7c-4.8 0-9.3 1.9-12.7 5.4-3.4 3.5-5.1 8.1-5 12.9l2.7 80.3c0.4 9.6 8.1 17.1 17.7 17.1h122.1c9.7 0 17.5-7.5 17.8-17.1l2.4-80.3c0.2-4.9-1.6-9.5-5-12.9-3.3-3.5-7.9-5.4-12.7-5.4z"/>
				</g>
				<path id="&lt;Path&gt;" class="s97" d="m858.9 611.2h-111.8v-66.4h111.8z"/>
				<path id="&lt;Path&gt;" class="s0" d="m821.7 576.5l-28.6 18.3v-33.5z"/>
				<path id="&lt;Path&gt;" class="s97" d="m858.9 629.5h-111.8v-6h111.8z"/>
				<path id="&lt;Path&gt;" class="s0" d="m776 623.5v6h-28.9v-6z"/>
			</g>
			<g id="&lt;Group&gt;">
				<g id="&lt;Group&gt;">
					<path id="&lt;Compound Path&gt;" fill-rule="evenodd" class="s112" d="m675.1 557q-2.2 3.5-4.7 6.4l2.8 7.8-11.8 8.9-1.2-8.8c-2.4 1.1-4.9 1.7-7.2 1.7l-1.2 4-1.6 5.9-10.5-4.1 4-9.3c-1.8-1.5-3.3-3.5-4.5-5.9l-6.6 6.2-3.1-14.7 6.9-4.3c-0.1-3.2 0.1-6.6 0.8-10.2l-6.5-1.1 6.1-16.7 5.7 3.2c1.7-3.1 3.6-5.9 5.7-8.3l-2.7-7.9 11.8-8.9 1.2 8.9c2.4-1.1 4.8-1.7 7.2-1.7l2.6-9.4 10.7 3.5-4.1 9.3q0.6 0.5 1.2 1.1 2 2.1 3.3 4.9l6.6-6.3 3.1 14.7-6.8 4.3c0.1 2.7-0.1 5.5-0.6 8.4q-0.1 0.9-0.3 1.8l6.6 1.1-6.1 16.7-5.7-3.2q-0.6 1-1.1 2zm-9.9-33.2c-5.9-2-13.2 3.8-16.5 13-3.2 9.2-1.1 18.4 4.8 20.4 5.8 2.1 2.6-7.4 5.8-16.7 3.3-9.2 11.7-14.6 5.9-16.7zm-5.9 16.7l5.9-16.7c2 1.5-2.6 7.5-5.9 16.7zm0 0q0 0 0 0zm0 0.1v-0.1q0 0 0 0.1zm-5.8 16.6c1.5-0.5 2.6-7.4 5.8-16.6z"/>
				</g>
				<path id="&lt;Compound Path&gt;" fill-rule="evenodd" class="s113" d="m675.1 557l-9.2 5.6 7.3 8.6-11.8 8.9-9.6-3.1-5.5-1.8 1.5 2.9 2.4 4.8-15.1-4.9-10.5-4.1 3.4-7.8-10.5-1.2 5.5-19.8 11-30.5-3.6-9.7 11.8-8.9 9.2 4.4 1.9-7.2 10.6 4.1 4.4 1.4 10.7 3.5-2.9 5.8 9.9 3.2 2.3 14.3-6.9 3.4-0.7 9.2 1 0.5 6.3 2.9-6.1 16.7zm-4.2-50.7l2.8 6.7 2.4-5zm-17.4 51l5.8-16.7 5.9-16.7c-5.9-2.1-13.3 3.7-16.5 13-3.2 9.2-1.1 18.3 4.8 20.4z"/>
				<g id="&lt;Group&gt;">
					<path id="&lt;Compound Path&gt;" fill-rule="evenodd" class="s114" d="m661.1 550.1c-1.7 3.1-3.6 5.9-5.8 8.4l2.8 7.8-11.8 8.9-1.2-8.8c-2.4 1.1-4.8 1.6-7.2 1.7l-2.8 9.9-10.5-4.1 4-9.3c-1.8-1.5-3.3-3.6-4.5-6l-6.6 6.3-3.1-14.7 6.9-4.3c-0.1-3.2 0.2-6.7 0.9-10.2l-6.6-1.1 6.1-16.7 5.7 3.2c1.7-3.1 3.6-5.9 5.7-8.3l-2.7-7.9 11.8-8.9 1.2 8.8c2.4-1 4.8-1.6 7.2-1.6l2.7-10 10.6 4.1-4.1 9.3c1.9 1.5 3.4 3.6 4.5 6l6.6-6.3 3.2 14.7-6.9 4.3c0.1 3.2-0.2 6.7-0.9 10.2l6.6 1.1-6.1 16.7zm-6.3-10.8c3.2-9.2 1.1-18.3-4.7-20.4-5.9-2-13.3 3.8-16.5 13-3.2 9.2-1.1 18.3 4.8 20.4 5.8 2.1 13.2-3.8 16.4-13z"/>
				</g>
				<path id="&lt;Path&gt;" class="s115" d="m682.3 530.2l-15.1-4.9 6.9-4.3 15 4.9z"/>
				<path id="&lt;Path&gt;" class="s116" d="m673.2 571.2l-15.1-4.9-2.8-7.8 15.1 4.9z"/>
				<path id="&lt;Path&gt;" class="s115" d="m663.9 497.3l15.1 4.9-2.6 5.9-5.5-1.8-2.8 2.7-8.3-2.4z"/>
				<path id="&lt;Path&gt;" class="s115" d="m645.1 566.4l0.7 4.9-7.9-3.2c3 0.5 7.2-1.7 7.2-1.7z"/>
				<path id="&lt;Path&gt;" class="s115" d="m655.8 526.2c-1.5 1.1-3.4 3.6-3.4 3.6l-13.3-7c13.2-11.3 16.7 3.4 16.7 3.4z"/>
			</g>
			<path id="&lt;Path&gt;" class="s117" d="m333.6 24.9l12.8 25.7-8.6 3.9-12-23.6z"/>
			<path id="&lt;Path&gt;" class="s118" d="m50 618.9l11.2 12.4-4.6 5.3-11.9-13z"/>
			<path id="&lt;Path&gt;" class="s119" d="m648.2 181.7l-11.9 7.3-4.8-9.1 13.1-7.6z"/>
			<path id="&lt;Path&gt;" class="s119" d="m707.1 641.2l-17.1 12.1-4.8-9 16.6-9.8z"/>
			<g id="&lt;Group&gt;">
				<path id="&lt;Path&gt;" class="s120" d="m684.5 119.6l-2.9-67.3h88.1l-3.6 67.1z"/>
				<path id="&lt;Path&gt;" class="s121" d="m684.5 119.6h-2.9l-2.7-63.4 2.7-3.9z"/>
				<path id="&lt;Path&gt;" class="s0" d="m710.8 69.2l-7.7-0.2 0.8 35.6 6.9-0.2v4.8l-11.9 1.2-1.9-46.2 13.8 1.5z"/>
				<path id="&lt;Path&gt;" class="s0" d="m739.2 65.7l13.8-1.5-1.9 46.2-11.9-1.2v-4.8l6.9 0.2 0.8-35.6-7.7 0.2z"/>
			</g>
			<g id="&lt;Group&gt;">
				<path id="&lt;Path&gt;" class="s122" d="m21.1 266.8l-2.5-45.7h60.1l-2 45.9z"/>
				<path id="&lt;Path&gt;" class="s123" d="m78.7 221.1l1.8 2.7-1.8 43.2h-2z"/>
				<path id="&lt;Path&gt;" class="s0" d="m55.5 230.3c0 0 6.6-0.2 7.8 0.3 1.1 0.5-0.3 11.3-0.3 11.3l2.6 2.4-2.4 2.3c0 0 0.1 10.9-1.5 11.8-1.5 0.9-6.8 0-6.8 0v-2.7c0 0 4.3 0.3 5-0.3 0.7-0.6 0.7-10.1 0.7-10.1l1.1-1.2-1.1-1.4c0 0 0.2-6.8 0.1-8.7-0.1-1.2-5.2-1.3-5.2-1.3z"/>
				<path id="&lt;Path&gt;" class="s0" d="m40.4 232.7c0 0-5 0.1-5.1 1.3-0.1 1.9 0.1 8.7 0.1 8.7l-1.2 1.4 1.2 1.2c0 0-0.1 9.5 0.7 10.1 0.7 0.6 5 0.3 5 0.3v2.7c0 0-5.3 0.9-6.9 0-1.5-0.9-1.4-11.8-1.4-11.8l-2.4-2.3 2.6-2.4c0 0-1.5-10.8-0.3-11.3 1.2-0.5 7.7-0.3 7.7-0.3z"/>
			</g>
			<g id="&lt;Group&gt;">
				<g id="&lt;Group&gt;">
					<path id="&lt;Compound Path&gt;" fill-rule="evenodd" class="s91" d="m583.7 125.7l-14.7-38.6 38.2 8zm-13.2-37.2l13.5 35.2 21.4-27.9z"/>
				</g>
				<g id="&lt;Group&gt;">
					<path id="&lt;Path&gt;" class="s91" d="m689.2 672l-0.8-0.6 13-17.6 0.8 0.6z"/>
				</g>
				<g id="&lt;Group&gt;">
					<path id="&lt;Path&gt;" class="s91" d="m567.8 509.3l-13.9-17.3 0.8-0.6 13.9 17.3z"/>
				</g>
				<g id="&lt;Group&gt;">
					<path id="&lt;Path&gt;" class="s91" d="m139.2 630.8l-27.8-20.2 0.6-0.8 27.8 20.2z"/>
				</g>
				<g id="&lt;Group&gt;">
					<path id="&lt;Path&gt;" class="s91" d="m115.6 634.2l-0.8-0.6 20.8-27.2 0.8 0.6z"/>
				</g>
				<g id="&lt;Group&gt;">
					<path id="&lt;Path&gt;" class="s91" d="m94.4 335.7l-17.9-9.4 0.4-0.9 18 9.5z"/>
				</g>
				<g id="&lt;Group&gt;">
					<path id="&lt;Path&gt;" class="s91" d="m784.1 93.7l-0.7-0.6 20.7-23.7 0.7 0.7z"/>
				</g>
				<g id="&lt;Group&gt;">
					<path id="&lt;Path&gt;" class="s91" d="m389.6 170l-9.3-18.6 0.9-0.4 9.2 18.6z"/>
				</g>
				<g id="&lt;Group&gt;">
					<path id="&lt;Path&gt;" class="s91" d="m234.2 485.3l-0.6-0.7 23.8-20 0.6 0.8z"/>
				</g>
			</g>
		</g>
	</g>
</svg>