<svg version="1.2" xmlns="http://www.w3.org/2000/svg" viewBox="0 0 2983 2879" width="1000" height="965">
	<title>Wavy_Tech-30_Single-02-ai</title>
	<defs>
		<clipPath clipPathUnits="userSpaceOnUse" id="cp1">
			<path d="m2273.89 418.56c5.63 40.55 5.09 81.34 6.15 122.16 1.36 52.06-3.64 121.74 12.71 171.1 15.23 45.95 54.9 84.68 84.21 121.84 61.11 77.51 87.64 171.34 45.01 264.37-20.54 44.81-48.77 85.91-77.1 126.06-54.26 76.9-152.33 164.33-101.8 268.56 21.68 44.72 57.07 80.75 72.53 128.9 11.14 34.7 7.9 87.54-0.12 122.61-34.43 150.63-239.01 233.28-375.65 250.29-317.21 39.48-338.32 217.96-309.16 332.62 29.17 114.66-355.7-219.33-355.7-219.33 0 0-71.57-51.31 113.42-158.82 184.98-107.5 114.84-180.21 75.07-269.84-39.77-89.63-179.42-237.02 77.93-340.66 257.35-103.64 286.42-157.81 222.16-310.23-64.26-152.42-72.91-857.33 264.36-861.12 47.58-0.53 104.91 11.5 144.3 38.99 65.87 45.96 91.21 137.07 101.68 212.5z"/>
		</clipPath>
		<clipPath clipPathUnits="userSpaceOnUse" id="cp2">
			<path d="m2903.2 789.85c-11.67 39.24-29.07 76.14-45.01 113.74-20.34 47.93-53.75 109.29-59.32 160.99-5.18 48.13 14.88 99.81 26.16 145.78 23.52 95.86 8.79 192.25-68.56 259.25-37.25 32.28-79.98 58-122.39 82.8-81.24 47.51-206.72 86.45-203.91 202.25 1.2 49.69 18.49 97.15 12.61 147.37-4.23 36.2-29.07 82.94-50.9 111.55-93.74 122.82-314.19 113.29-445.59 72.17-305.07-95.48-398.22 58.21-419.18 174.65-20.96 116.44-232.88-346.98-232.88-346.98 0 0-43.87-76.35 169.02-97.56 212.9-21.21 179.19-116.45 180.12-214.5 0.94-98.05-65.11-290.05 212.06-277.76 277.16 12.28 326.07-24.98 330.72-190.32 4.66-165.34 288.82-810.5 597.36-674.22 43.52 19.22 90.71 53.92 115.18 95.26 40.91 69.11 26.23 162.54 4.51 235.53z"/>
		</clipPath>
		<linearGradient id="g1" x1="2028.9" y1="292.8" x2="1946" y2="2147.7" gradientUnits="userSpaceOnUse">
			<stop offset="0" stop-color="#e38ddd"/>
			<stop offset="1" stop-color="#9571f6"/>
		</linearGradient>
		<linearGradient id="g2" x1="1453" y1="70.3" x2="1854.1" y2="582.9" gradientUnits="userSpaceOnUse">
			<stop offset="0" stop-color="#e38ddd"/>
			<stop offset="1" stop-color="#9571f6"/>
		</linearGradient>
		<linearGradient id="g3" x1="1680.2" y1="465.4" x2="1883.2" y2="848.3" gradientUnits="userSpaceOnUse">
			<stop offset="0" stop-color="#e38ddd"/>
			<stop offset="1" stop-color="#9571f6"/>
		</linearGradient>
		<linearGradient id="g4" x1="1758.6" y1="637.3" x2="2271.7" y2="1605.1" gradientUnits="userSpaceOnUse">
			<stop offset="0" stop-color="#e38ddd"/>
			<stop offset="1" stop-color="#9571f6"/>
		</linearGradient>
		<linearGradient id="g5" x1="916.8" y1="554.3" x2="594.3" y2="2067.9" gradientUnits="userSpaceOnUse">
			<stop offset="0" stop-color="#ffc444"/>
			<stop offset=".3" stop-color="#fba94a"/>
			<stop offset="1" stop-color="#f36f56"/>
		</linearGradient>
		<linearGradient id="g6" x1="2735.8" y1="1784.3" x2="1909.7" y2="3179.6" gradientUnits="userSpaceOnUse">
			<stop offset="0" stop-color="#ffc444"/>
			<stop offset=".3" stop-color="#fba94a"/>
			<stop offset="1" stop-color="#f36f56"/>
		</linearGradient>
		<linearGradient id="g7" x1="1872.4" y1="1707.9" x2="1080" y2="3046.2" gradientUnits="userSpaceOnUse">
			<stop offset="0" stop-color="#ffc444"/>
			<stop offset=".3" stop-color="#fba94a"/>
			<stop offset="1" stop-color="#f36f56"/>
		</linearGradient>
		<linearGradient id="g8" x1="2860.6" y1="498.7" x2="2507.5" y2="2155.2" gradientUnits="userSpaceOnUse">
			<stop offset="0" stop-color="#ffc444"/>
			<stop offset=".3" stop-color="#fba94a"/>
			<stop offset="1" stop-color="#f36f56"/>
		</linearGradient>
		<linearGradient id="g9" x1="3214.9" y1="-1780.6" x2="2050.3" y2="3684" gradientUnits="userSpaceOnUse">
			<stop offset="0" stop-color="#ffc444"/>
			<stop offset=".3" stop-color="#fba94a"/>
			<stop offset="1" stop-color="#f36f56"/>
		</linearGradient>
		<linearGradient id="g10" x1="2268.6" y1="1422.4" x2="2493.3" y2="2500" gradientUnits="userSpaceOnUse">
			<stop offset="0" stop-color="#aa80f9"/>
			<stop offset="1" stop-color="#6165d7"/>
		</linearGradient>
		<linearGradient id="g11" x1="2526.1" y1="2639.6" x2="2600.8" y2="2641.8" gradientUnits="userSpaceOnUse">
			<stop offset="0" stop-color="#444b8c"/>
			<stop offset="1" stop-color="#26264f"/>
		</linearGradient>
		<linearGradient id="g12" x1="2573.2" y1="2614.5" x2="2600.7" y2="2614.5" gradientUnits="userSpaceOnUse">
			<stop offset="0" stop-color="#ffc444"/>
			<stop offset="1" stop-color="#f36f56"/>
		</linearGradient>
		<linearGradient id="g13" x1="2282.2" y1="2617" x2="2359" y2="2638.1" gradientUnits="userSpaceOnUse">
			<stop offset="0" stop-color="#444b8c"/>
			<stop offset="1" stop-color="#26264f"/>
		</linearGradient>
		<linearGradient id="g14" x1="2328.5" y1="2606.1" x2="2362.4" y2="2606.1" gradientUnits="userSpaceOnUse">
			<stop offset="0" stop-color="#ffc444"/>
			<stop offset="1" stop-color="#f36f56"/>
		</linearGradient>
		<linearGradient id="g15" x1="2277.6" y1="1408.1" x2="2526.4" y2="2600.6" gradientUnits="userSpaceOnUse">
			<stop offset="0" stop-color="#aa80f9"/>
			<stop offset="1" stop-color="#6165d7"/>
		</linearGradient>
		<linearGradient id="g16" x1="2874.6" y1="2345" x2="2780.1" y2="1896.3" gradientUnits="userSpaceOnUse">
			<stop offset="0" stop-color="#aa80f9"/>
			<stop offset="1" stop-color="#6165d7"/>
		</linearGradient>
		<linearGradient id="g17" x1="2494" y1="1376.9" x2="2734.3" y2="2529" gradientUnits="userSpaceOnUse">
			<stop offset="0" stop-color="#aa80f9"/>
			<stop offset="1" stop-color="#6165d7"/>
		</linearGradient>
		<linearGradient id="g18" x1="2526" y1="1823.7" x2="2609.9" y2="1823.7" gradientUnits="userSpaceOnUse">
			<stop offset="0" stop-color="#ffc444"/>
			<stop offset="1" stop-color="#f36f56"/>
		</linearGradient>
		<linearGradient id="g19" x1="2173.9" y1="1869.4" x2="2224" y2="1869.4" gradientUnits="userSpaceOnUse">
			<stop offset="0" stop-color="#ffc444"/>
			<stop offset="1" stop-color="#f36f56"/>
		</linearGradient>
		<linearGradient id="g20" x1="2669.2" y1="1481.2" x2="2666.3" y2="1683" gradientUnits="userSpaceOnUse">
			<stop offset="0" stop-color="#ffc444"/>
			<stop offset="1" stop-color="#f36f56"/>
		</linearGradient>
		<linearGradient id="g21" x1="2556.9" y1="1408.1" x2="2617.3" y2="1429.6" gradientUnits="userSpaceOnUse">
			<stop offset="0" stop-color="#ffc444"/>
			<stop offset="1" stop-color="#f36f56"/>
		</linearGradient>
		<linearGradient id="g22" x1="2542" y1="1450.5" x2="2556.8" y2="1455.8" gradientUnits="userSpaceOnUse">
			<stop offset="0" stop-color="#ffc444"/>
			<stop offset="1" stop-color="#f36f56"/>
		</linearGradient>
		<linearGradient id="g23" x1="2274.6" y1="590.4" x2="1900.4" y2="1043.3" gradientUnits="userSpaceOnUse">
			<stop offset="0" stop-color="#ffc444"/>
			<stop offset="1" stop-color="#f36f56"/>
		</linearGradient>
		<linearGradient id="g24" x1="2251.9" y1="933.2" x2="2387.6" y2="1430.4" gradientUnits="userSpaceOnUse">
			<stop offset="0" stop-color="#ffc444"/>
			<stop offset="1" stop-color="#f36f56"/>
		</linearGradient>
		<linearGradient id="g25" x1="2077.7" y1="961.7" x2="2213.8" y2="1532.5" gradientUnits="userSpaceOnUse">
			<stop offset="0" stop-color="#ffc444"/>
			<stop offset="1" stop-color="#f36f56"/>
		</linearGradient>
		<linearGradient id="g26" x1="1019.2" y1="-122" x2="887.9" y2="396.6" gradientUnits="userSpaceOnUse">
			<stop offset="0" stop-color="#aa80f9"/>
			<stop offset="1" stop-color="#6165d7"/>
		</linearGradient>
		<linearGradient id="g27" x1="1133.2" y1="182.2" x2="1427.9" y2="525.9" gradientUnits="userSpaceOnUse">
			<stop offset="0" stop-color="#aa80f9"/>
			<stop offset="1" stop-color="#6165d7"/>
		</linearGradient>
		<linearGradient id="g28" x1="1022.3" y1="266.8" x2="1325.7" y2="644.5" gradientUnits="userSpaceOnUse">
			<stop offset="0" stop-color="#aa80f9"/>
			<stop offset="1" stop-color="#6165d7"/>
		</linearGradient>
		<linearGradient id="g29" x1="156.4" y1="1787.3" x2="642.5" y2="1787.3" gradientUnits="userSpaceOnUse">
			<stop offset="0" stop-color="#26264f"/>
			<stop offset="1" stop-color="#444b8c"/>
		</linearGradient>
		<linearGradient id="g30" x1="781" y1="1738" x2="758.4" y2="1930.6" gradientUnits="userSpaceOnUse">
			<stop offset="0" stop-color="#26264f"/>
			<stop offset="1" stop-color="#444b8c"/>
		</linearGradient>
		<linearGradient id="g31" x1="806.1" y1="1778.6" x2="808.9" y2="1577.1" gradientUnits="userSpaceOnUse">
			<stop offset="0" stop-color="#893976"/>
			<stop offset="1" stop-color="#311944"/>
		</linearGradient>
		<linearGradient id="g32" x1="519.3" y1="1768.9" x2="502.9" y2="1977.2" gradientUnits="userSpaceOnUse">
			<stop offset="0" stop-color="#26264f"/>
			<stop offset="1" stop-color="#444b8c"/>
		</linearGradient>
		<linearGradient id="g33" x1="559.2" y1="1771.1" x2="562" y2="1571.9" gradientUnits="userSpaceOnUse">
			<stop offset="0" stop-color="#893976"/>
			<stop offset="1" stop-color="#311944"/>
		</linearGradient>
		<linearGradient id="g34" x1="839.2" y1="1108.1" x2="705.2" y2="1108.1" gradientUnits="userSpaceOnUse">
			<stop offset="0" stop-color="#ab316d"/>
			<stop offset="1" stop-color="#792d3d"/>
		</linearGradient>
		<linearGradient id="g35" x1="830.3" y1="1108.1" x2="705.3" y2="1108.1" gradientUnits="userSpaceOnUse">
			<stop offset="0" stop-color="#ab316d"/>
			<stop offset="1" stop-color="#792d3d"/>
		</linearGradient>
		<linearGradient id="g36" x1="800.7" y1="1098.7" x2="517" y2="1098.7" gradientUnits="userSpaceOnUse">
			<stop offset="0" stop-color="#ab316d"/>
			<stop offset="1" stop-color="#792d3d"/>
		</linearGradient>
		<linearGradient id="g37" x1="550.9" y1="616.6" x2="957" y2="313.8" gradientUnits="userSpaceOnUse">
			<stop offset="0" stop-color="#26264f"/>
			<stop offset="1" stop-color="#444b8c"/>
		</linearGradient>
		<linearGradient id="g38" x1="1362.9" y1="755.8" x2="1317" y2="734" gradientUnits="userSpaceOnUse">
			<stop offset="0" stop-color="#893976"/>
			<stop offset="1" stop-color="#311944"/>
		</linearGradient>
		<linearGradient id="g39" x1="904.3" y1="790.7" x2="374.7" y2="1398.3" gradientUnits="userSpaceOnUse">
			<stop offset="0" stop-color="#ff9085"/>
			<stop offset="1" stop-color="#fb6fbb"/>
		</linearGradient>
		<linearGradient id="g40" x1="516.8" y1="715.3" x2="295.4" y2="1508.9" gradientUnits="userSpaceOnUse">
			<stop offset="0" stop-color="#ff9085"/>
			<stop offset="1" stop-color="#fb6fbb"/>
		</linearGradient>
		<linearGradient id="g41" x1="770.5" y1="1015.2" x2="859.2" y2="1162.2" gradientUnits="userSpaceOnUse">
			<stop offset="0" stop-color="#6165d7"/>
			<stop offset="1" stop-color="#aa80f9"/>
		</linearGradient>
		<linearGradient id="g42" x1="770.5" y1="1065" x2="989.2" y2="1181.4" gradientUnits="userSpaceOnUse">
			<stop offset="0" stop-color="#26264f"/>
			<stop offset="1" stop-color="#444b8c"/>
		</linearGradient>
		<linearGradient id="g43" x1="908.4" y1="791.7" x2="934.4" y2="877.1" gradientUnits="userSpaceOnUse">
			<stop offset="0" stop-color="#aa80f9"/>
			<stop offset="1" stop-color="#6165d7"/>
		</linearGradient>
		<linearGradient id="g44" x1="786.6" y1="1035.8" x2="1004.6" y2="1151.8" gradientUnits="userSpaceOnUse">
			<stop offset="0" stop-color="#26264f"/>
			<stop offset="1" stop-color="#444b8c"/>
		</linearGradient>
		<linearGradient id="g45" x1="873.7" y1="984" x2="797.6" y2="984" gradientUnits="userSpaceOnUse">
			<stop offset="0" stop-color="#893976"/>
			<stop offset="1" stop-color="#311944"/>
		</linearGradient>
		<linearGradient id="g46" x1="395.4" y1="745.3" x2="913.1" y2="745.3" gradientUnits="userSpaceOnUse">
			<stop offset="0" stop-color="#ff9085"/>
			<stop offset="1" stop-color="#fb6fbb"/>
		</linearGradient>
		<linearGradient id="g47" x1="602.2" y1="729.9" x2="395.4" y2="1470.9" gradientUnits="userSpaceOnUse">
			<stop offset="0" stop-color="#ff9085"/>
			<stop offset="1" stop-color="#fb6fbb"/>
		</linearGradient>
		<linearGradient id="g48" x1="922.7" y1="695.5" x2="860.5" y2="546.8" gradientUnits="userSpaceOnUse">
			<stop offset="0" stop-color="#893976"/>
			<stop offset="1" stop-color="#311944"/>
		</linearGradient>
		<linearGradient id="g49" x1="911.6" y1="632" x2="771.2" y2="501.5" gradientUnits="userSpaceOnUse">
			<stop offset="0" stop-color="#893976"/>
			<stop offset="1" stop-color="#311944"/>
		</linearGradient>
		<linearGradient id="g50" x1="1840.1" y1="378.3" x2="2455.1" y2="378.3" gradientUnits="userSpaceOnUse">
			<stop offset="0" stop-color="#ff9085"/>
			<stop offset="1" stop-color="#fb6fbb"/>
		</linearGradient>
		<linearGradient id="g51" x1="2402.2" y1="754.4" x2="1983.6" y2="901.8" gradientUnits="userSpaceOnUse">
			<stop offset="0" stop-color="#ff9085"/>
			<stop offset="1" stop-color="#fb6fbb"/>
		</linearGradient>
		<linearGradient id="g52" x1="1920.1" y1="474.6" x2="2078.4" y2="474.6" gradientUnits="userSpaceOnUse">
			<stop offset="0" stop-color="#ff9085"/>
			<stop offset="1" stop-color="#fb6fbb"/>
		</linearGradient>
		<linearGradient id="g53" x1="2046.4" y1="600.8" x2="1902.4" y2="698.3" gradientUnits="userSpaceOnUse">
			<stop offset="0" stop-color="#ff9085"/>
			<stop offset="1" stop-color="#fb6fbb"/>
		</linearGradient>
		<linearGradient id="g54" x1="1963" y1="507.9" x2="2120.3" y2="507.9" gradientUnits="userSpaceOnUse">
			<stop offset="0" stop-color="#ff9085"/>
			<stop offset="1" stop-color="#fb6fbb"/>
		</linearGradient>
		<linearGradient id="g55" x1="2042.6" y1="664.3" x2="1962.6" y2="718.5" gradientUnits="userSpaceOnUse">
			<stop offset="0" stop-color="#ff9085"/>
			<stop offset="1" stop-color="#fb6fbb"/>
		</linearGradient>
		<linearGradient id="g56" x1="2005.5" y1="540.8" x2="2161.8" y2="540.8" gradientUnits="userSpaceOnUse">
			<stop offset="0" stop-color="#ff9085"/>
			<stop offset="1" stop-color="#fb6fbb"/>
		</linearGradient>
		<linearGradient id="g57" x1="2062.8" y1="711" x2="2013.1" y2="744.6" gradientUnits="userSpaceOnUse">
			<stop offset="0" stop-color="#ff9085"/>
			<stop offset="1" stop-color="#fb6fbb"/>
		</linearGradient>
		<linearGradient id="g58" x1="2047.5" y1="573.4" x2="2202.8" y2="573.4" gradientUnits="userSpaceOnUse">
			<stop offset="0" stop-color="#ff9085"/>
			<stop offset="1" stop-color="#fb6fbb"/>
		</linearGradient>
		<linearGradient id="g59" x1="2230.2" y1="657.2" x2="2007.5" y2="808.1" gradientUnits="userSpaceOnUse">
			<stop offset="0" stop-color="#ff9085"/>
			<stop offset="1" stop-color="#fb6fbb"/>
		</linearGradient>
		<linearGradient id="g60" x1="2089" y1="605.6" x2="2243.3" y2="605.6" gradientUnits="userSpaceOnUse">
			<stop offset="0" stop-color="#ff9085"/>
			<stop offset="1" stop-color="#fb6fbb"/>
		</linearGradient>
		<linearGradient id="g61" x1="2253.7" y1="700.4" x2="2055.6" y2="834.6" gradientUnits="userSpaceOnUse">
			<stop offset="0" stop-color="#ff9085"/>
			<stop offset="1" stop-color="#fb6fbb"/>
		</linearGradient>
		<linearGradient id="g62" x1="2130.1" y1="637.4" x2="2283.5" y2="637.4" gradientUnits="userSpaceOnUse">
			<stop offset="0" stop-color="#ff9085"/>
			<stop offset="1" stop-color="#fb6fbb"/>
		</linearGradient>
		<linearGradient id="g63" x1="2324.1" y1="711.1" x2="2085.4" y2="872.8" gradientUnits="userSpaceOnUse">
			<stop offset="0" stop-color="#ff9085"/>
			<stop offset="1" stop-color="#fb6fbb"/>
		</linearGradient>
		<linearGradient id="g64" x1="2170.8" y1="669" x2="2323.2" y2="669" gradientUnits="userSpaceOnUse">
			<stop offset="0" stop-color="#ff9085"/>
			<stop offset="1" stop-color="#fb6fbb"/>
		</linearGradient>
		<linearGradient id="g65" x1="2318.4" y1="772.8" x2="2143.3" y2="891.4" gradientUnits="userSpaceOnUse">
			<stop offset="0" stop-color="#ff9085"/>
			<stop offset="1" stop-color="#fb6fbb"/>
		</linearGradient>
		<linearGradient id="g66" x1="2211.1" y1="700.2" x2="2362.5" y2="700.2" gradientUnits="userSpaceOnUse">
			<stop offset="0" stop-color="#ff9085"/>
			<stop offset="1" stop-color="#fb6fbb"/>
		</linearGradient>
		<linearGradient id="g67" x1="2307.7" y1="837.3" x2="2202.4" y2="908.6" gradientUnits="userSpaceOnUse">
			<stop offset="0" stop-color="#ff9085"/>
			<stop offset="1" stop-color="#fb6fbb"/>
		</linearGradient>
		<linearGradient id="g68" x1="1124.5" y1="562.6" x2="1134.1" y2="1031.6" gradientUnits="userSpaceOnUse">
			<stop offset="0" stop-color="#ff9085"/>
			<stop offset="1" stop-color="#fb6fbb"/>
		</linearGradient>
		<linearGradient id="g69" x1="1285.9" y1="946.6" x2="1612" y2="1166.6" gradientUnits="userSpaceOnUse">
			<stop offset="0" stop-color="#ff9085"/>
			<stop offset="1" stop-color="#fb6fbb"/>
		</linearGradient>
		<linearGradient id="g70" x1="1227.3" y1="1051.2" x2="1556" y2="1288.6" gradientUnits="userSpaceOnUse">
			<stop offset="0" stop-color="#ff9085"/>
			<stop offset="1" stop-color="#fb6fbb"/>
		</linearGradient>
		<linearGradient id="g71" x1="2010.5" y1="-221" x2="1717.1" y2="60.5" gradientUnits="userSpaceOnUse">
			<stop offset="0" stop-color="#ff9085"/>
			<stop offset="1" stop-color="#fb6fbb"/>
		</linearGradient>
		<linearGradient id="g72" x1="1867.1" y1="104.1" x2="1919.7" y2="451" gradientUnits="userSpaceOnUse">
			<stop offset="0" stop-color="#ff9085"/>
			<stop offset="1" stop-color="#fb6fbb"/>
		</linearGradient>
		<linearGradient id="g73" x1="1744.1" y1="107.5" x2="1792.6" y2="515.5" gradientUnits="userSpaceOnUse">
			<stop offset="0" stop-color="#ff9085"/>
			<stop offset="1" stop-color="#fb6fbb"/>
		</linearGradient>
	</defs>
	<style>
		.s0 { fill: #ffffff } 
		.s1 { fill: #f4f7fa } 
		.s2 { fill: #eaedf3 } 
		.s3 { fill: #d8dee8 } 
		.s4 { fill: url(#g1) } 
		.s5 { opacity: .7;mix-blend-mode: soft-light;fill: #ffffff } 
		.s6 { fill: url(#g2) } 
		.s7 { fill: url(#g3) } 
		.s8 { fill: url(#g4) } 
		.s9 { fill: url(#g5) } 
		.s10 { fill: url(#g6) } 
		.s11 { fill: url(#g7) } 
		.s12 { opacity: .8;fill: #ffffff } 
		.s13 { fill: url(#g8) } 
		.s14 { opacity: .1;mix-blend-mode: multiply;fill: url(#g9) } 
		.s15 { opacity: .2;mix-blend-mode: soft-light;fill: #ffffff } 
		.s16 { fill: url(#g10) } 
		.s17 { fill: url(#g11) } 
		.s18 { fill: url(#g12) } 
		.s19 { fill: url(#g13) } 
		.s20 { fill: url(#g14) } 
		.s21 { fill: #26264f } 
		.s22 { fill: url(#g15) } 
		.s23 { fill: url(#g16) } 
		.s24 { fill: url(#g17) } 
		.s25 { fill: #444b8c } 
		.s26 { fill: url(#g18) } 
		.s27 { opacity: .3;mix-blend-mode: multiply;fill: #26264f } 
		.s28 { fill: url(#g19) } 
		.s29 { fill: url(#g20) } 
		.s30 { fill: url(#g21) } 
		.s31 { fill: url(#g22) } 
		.s32 { fill: url(#g23) } 
		.s33 { fill: url(#g24) } 
		.s34 { fill: url(#g25) } 
		.s35 { fill: url(#g26) } 
		.s36 { fill: url(#g27) } 
		.s37 { fill: url(#g28) } 
		.s38 { fill: url(#g29) } 
		.s39 { fill: url(#g30) } 
		.s40 { fill: url(#g31) } 
		.s41 { fill: url(#g32) } 
		.s42 { fill: url(#g33) } 
		.s43 { fill: url(#g34) } 
		.s44 { opacity: .3;mix-blend-mode: multiply;fill: url(#g35) } 
		.s45 { fill: url(#g36) } 
		.s46 { fill: url(#g37) } 
		.s47 { fill: url(#g38) } 
		.s48 { fill: url(#g39) } 
		.s49 { fill: url(#g40) } 
		.s50 { fill: url(#g41) } 
		.s51 { fill: url(#g42) } 
		.s52 { fill: url(#g43) } 
		.s53 { opacity: .3;mix-blend-mode: multiply;fill: url(#g44) } 
		.s54 { fill: url(#g45) } 
		.s55 { opacity: .3;mix-blend-mode: multiply;fill: url(#g46) } 
		.s56 { fill: url(#g47) } 
		.s57 { fill: url(#g48) } 
		.s58 { fill: url(#g49) } 
		.s59 { fill: url(#g50) } 
		.s60 { fill: url(#g51) } 
		.s61 { opacity: .2;mix-blend-mode: multiply;fill: url(#g52) } 
		.s62 { fill: url(#g53) } 
		.s63 { opacity: .2;mix-blend-mode: multiply;fill: url(#g54) } 
		.s64 { fill: url(#g55) } 
		.s65 { opacity: .2;mix-blend-mode: multiply;fill: url(#g56) } 
		.s66 { fill: url(#g57) } 
		.s67 { opacity: .2;mix-blend-mode: multiply;fill: url(#g58) } 
		.s68 { fill: url(#g59) } 
		.s69 { opacity: .2;mix-blend-mode: multiply;fill: url(#g60) } 
		.s70 { fill: url(#g61) } 
		.s71 { opacity: .2;mix-blend-mode: multiply;fill: url(#g62) } 
		.s72 { fill: url(#g63) } 
		.s73 { opacity: .2;mix-blend-mode: multiply;fill: url(#g64) } 
		.s74 { fill: url(#g65) } 
		.s75 { opacity: .2;mix-blend-mode: multiply;fill: url(#g66) } 
		.s76 { fill: url(#g67) } 
		.s77 { fill: url(#g68) } 
		.s78 { fill: url(#g69) } 
		.s79 { fill: url(#g70) } 
		.s80 { fill: url(#g71) } 
		.s81 { fill: url(#g72) } 
		.s82 { fill: url(#g73) } 
	</style>
	<g id="Background">
		<g id="&lt;Group&gt;">
			<g id="&lt;Group&gt;">
				<path id="&lt;Path&gt;" class="s0" d="m3369 3301h-3710v-3710h3710z"/>
			</g>
		</g>
	</g>
	<g id="Illustration">
		<g id="&lt;Group&gt;">
			<path id="&lt;Path&gt;" class="s1" d="m2663.6 2227.1c-571.7 731-1910.2 742.6-2280.7 336.4-147.9-162.1-186.9-440.4-244.2-849.2-27.6-196.9-31.6-355.5-33.9-464.3-8-370.3-12-555.4 47.6-681.4 170.8-360.5 763.9-500.7 1147.2-507.2q40.1-0.7 81 0.6c448.8 13.4 955.3 200.3 1267.6 599.6 32.3 41.2 62.4 84.7 90.3 130.5 285 468.9 237 1036.2-74.9 1435z"/>
			<g id="&lt;Group&gt;">
				<g id="&lt;Group&gt;">
					<path id="&lt;Path&gt;" class="s2" d="m2273.9 418.6c5.6 40.5 5.1 81.3 6.1 122.1 1.4 52.1-3.6 121.8 12.8 171.1 15.2 46 54.8 84.7 84.2 121.9 61.1 77.5 87.6 171.3 45 264.3-20.6 44.8-48.8 85.9-77.1 126.1-54.3 76.9-152.4 164.3-101.8 268.5 21.7 44.8 57 80.8 72.5 128.9 11.1 34.8 7.9 87.6-0.1 122.7-34.4 150.6-239 233.2-375.7 250.2-317.2 39.5-338.3 218-309.1 332.7 29.1 114.6-355.7-219.4-355.7-219.4 0 0-71.6-51.3 113.4-158.8 185-107.5 114.8-180.2 75.1-269.8-39.8-89.7-179.5-237 77.9-340.7 257.3-103.6 286.4-157.8 222.2-310.2-64.3-152.4-73-857.3 264.3-861.1 47.6-0.6 104.9 11.5 144.3 39 65.9 45.9 91.2 137 101.7 212.5z"/>
					<g id="&lt;Clip Group&gt;" clip-path="url(#cp1)">
						<g id="&lt;Group&gt;" style="opacity: .8;mix-blend-mode: soft-light">
							<g id="&lt;Group&gt;">
								<path id="&lt;Path&gt;" class="s0" d="m1263.8 2313.9c-2.2 1-4.9 0.2-6.3-1.9-1.4-2.3-0.7-5.4 1.6-6.9 1.4-0.9 144.4-91.8 300.5-235 143.8-131.9 328.5-336.5 391.6-561.8 52.7-188.2 89.6-495.3 101.3-842.4 10.5-311.2-2.6-539.7-21.3-580.8-1.1-2.5 0-5.5 2.5-6.6 2.5-1.1 5.4 0 6.6 2.5 21.8 48 31.6 305.1 22.1 585.3-11.7 347.8-48.7 655.7-101.6 844.7-63.7 227.6-249.8 433.8-394.6 566.6-156.7 143.7-300.4 235-301.8 235.9q-0.3 0.2-0.6 0.4z"/>
							</g>
							<g id="&lt;Group&gt;">
								<path id="&lt;Path&gt;" class="s0" d="m2056.9 725.7c-2.5 1.2-5.2 0.7-6.3-1.8-1.6-3.3-154.2-329.3-321.6-392-2.6-1-3.8-3.7-2.9-6.3 1-2.6 3.9-3.8 6.5-2.8 171.2 64.1 320.7 383.3 327 396.9 1.1 2.5-0.2 4.9-2.7 6q0 0 0 0z"/>
							</g>
							<g id="&lt;Group&gt;">
								<path id="&lt;Path&gt;" class="s0" d="m2027.9 1120.7c-1.8 0.9-4.1 0.5-5.6-1-1.9-2-1.9-5.1 0.1-7.1 0.9-0.8 86.7-83.8 195.1-156.5 146.4-98.2 262-131.8 343.6-99.8 2.6 1.1 3.8 3.9 2.8 6.5-1 2.6-3.9 3.8-6.4 2.8-187.8-73.7-524.8 250.9-528.1 254.2q-0.7 0.6-1.5 0.9z"/>
							</g>
							<g id="&lt;Group&gt;">
								<path id="&lt;Path&gt;" class="s0" d="m1692.8 1950.8q-0.8 0.4-1.6 0.5c-2.8 0.2-5.2-1.8-5.5-4.5-0.1-1.4-14.5-145.5-57.2-295.1-39.1-137.1-110.7-307-229.1-337.8-2.7-0.7-4.3-3.4-3.6-6 0.7-2.7 3.4-4.3 6.1-3.6 98.8 25.6 178.2 141.7 236.2 344.8 42.9 150.4 57.4 295.3 57.5 296.7 0.3 2.2-1 4.2-2.8 5z"/>
							</g>
							<g id="&lt;Group&gt;">
								<path id="&lt;Path&gt;" class="s0" d="m1878.5 1700.9c-2 0.9-4.3 0.4-5.8-1.3-1.8-2-1.6-5.2 0.4-7 15-13.1 368.9-320.9 518-306.6 2.7 0.3 4.7 2.7 4.5 5.5-0.3 2.7-2.7 4.7-5.5 4.5-144.8-14-506.8 300.9-510.4 304.1q-0.6 0.5-1.2 0.8z"/>
							</g>
						</g>
					</g>
				</g>
				<g id="&lt;Group&gt;">
					<path id="&lt;Path&gt;" class="s3" d="m2903.2 789.9c-11.7 39.2-29.1 76.1-45 113.7-20.3 47.9-53.8 109.3-59.3 161-5.2 48.1 14.9 99.8 26.1 145.8 23.5 95.8 8.8 192.2-68.5 259.2-37.3 32.3-80 58-122.4 82.8-81.3 47.5-206.7 86.5-203.9 202.3 1.2 49.7 18.5 97.1 12.6 147.3-4.3 36.2-29.1 83-50.9 111.6-93.8 122.8-314.2 113.3-445.6 72.1-305.1-95.4-398.2 58.3-419.2 174.7-20.9 116.4-232.9-347-232.9-347 0 0-43.8-76.3 169.1-97.5 212.9-21.3 179.1-116.5 180.1-214.5 0.9-98.1-65.1-290.1 212-277.8 277.2 12.3 326.1-25 330.8-190.3 4.6-165.4 288.8-810.5 597.3-674.2 43.5 19.2 90.7 53.9 115.2 95.2 40.9 69.1 26.2 162.6 4.5 235.6z"/>
					<g id="&lt;Clip Group&gt;" clip-path="url(#cp2)">
						<g id="&lt;Group&gt;" style="opacity: .8;mix-blend-mode: soft-light">
							<g id="&lt;Group&gt;">
								<path id="&lt;Path&gt;" class="s0" d="m1198.7 2096.4c-2.5 0-4.6-1.8-4.9-4.3-0.4-2.7 1.5-5.2 4.2-5.6 1.7-0.3 169.5-23.7 370.9-89.4 185.5-60.5 438.4-170.1 589.2-349.1 125.9-149.5 286.7-413.7 441.1-724.7 138.5-279 221.3-492.4 221.3-537.5 0-2.7 2.2-5 5-5 2.7 0 4.9 2.3 4.9 5 0 52.8-97.6 290.8-222.3 541.9-154.8 311.8-316 576.6-442.4 726.7-152.3 180.8-407.1 291.3-593.9 352.2-202.2 65.9-370.8 89.5-372.4 89.7q-0.4 0.1-0.7 0.1z"/>
							</g>
							<g id="&lt;Group&gt;">
								<path id="&lt;Path&gt;" class="s0" d="m2578.4 980.3c-2.7 0-4.9-1.9-5-4.7 0-3.6-3.8-363.8-130.2-490.2-2-1.9-2-5 0-7 1.9-1.9 5.1-1.9 7 0.1 129.3 129.3 133.1 482.1 133.2 497.1 0 2.7-2.2 4.7-5 4.7q0 0 0 0z"/>
							</g>
							<g id="&lt;Group&gt;">
								<path id="&lt;Path&gt;" class="s0" d="m2388.4 1327.1c-2 0-3.9-1.3-4.6-3.3-1-2.6 0.4-5.5 3-6.4 1.1-0.4 113.6-40.4 242.3-61.7 174-28.7 293.1-11.4 354.1 51.6 2 2 1.9 5.1-0.1 7-1.9 1.9-5.1 1.9-7-0.1-140.4-144.8-581.5 11-586 12.6q-0.8 0.3-1.7 0.3z"/>
							</g>
							<g id="&lt;Group&gt;">
								<path id="&lt;Path&gt;" class="s0" d="m1739.5 1943.7q-0.8 0-1.6-0.3c-2.6-0.9-4-3.7-3.1-6.3 0.4-1.4 47-138.5 70.1-292.3 21.2-141 26.5-325.3-68.6-402.3-2.1-1.8-2.4-4.9-0.7-7 1.7-2.2 4.9-2.5 7-0.8 79.3 64.3 103.5 202.8 72.1 411.7-23.2 154.7-70 292.6-70.5 293.9-0.7 2.1-2.7 3.4-4.7 3.4z"/>
							</g>
							<g id="&lt;Group&gt;">
								<path id="&lt;Path&gt;" class="s0" d="m2012.1 1793.2c-2.2 0-4.2-1.4-4.8-3.6-0.8-2.6 0.7-5.4 3.3-6.2 19.1-5.7 468.7-139.3 598.4-64.4 2.4 1.3 3.2 4.4 1.9 6.8-1.4 2.3-4.4 3.2-6.8 1.8-126.1-72.7-586 64-590.6 65.3q-0.7 0.3-1.4 0.3z"/>
							</g>
						</g>
					</g>
				</g>
			</g>
			<g id="&lt;Group&gt;">
				<path id="&lt;Path&gt;" class="s4" d="m1722.4 420.7l268 601.7c9.2 20.8-3.1 46.8-27.6 58l-823.2 376.9c-26.8 12.3-56.5 4.6-66.3-17.3l-281.4-632c-9.7-21.9 4.5-48.8 31.8-60.1l836.9-346.3c24.9-10.3 52.5-1.8 61.8 19.1z"/>
				<path id="&lt;Path&gt;" class="s5" d="m1708 426.7l268.1 602.2c6.3 14.1-2 31.8-18.7 39.4l-378.2 172.9-445.6 203.7c-18.3 8.3-38.8 3.2-45.5-11.7l-281.1-631.4c-6.7-14.9 3.4-33.4 22-41.1l836.8-347c14-5.8 29.4-2.8 37.8 6.5 1.8 1.9 3.3 4.1 4.4 6.5z"/>
				<g id="&lt;Group&gt;">
					<path id="&lt;Path&gt;" class="s0" d="m1338 720.2l-434.9 184.2-9-20.2 435.1-183.8z"/>
					<path id="&lt;Path&gt;" class="s0" d="m1712.6 538.5l8.6 19.3-47.8 20.3-8.6-19.4z"/>
				</g>
				<g id="&lt;Group&gt;" style="mix-blend-mode: soft-light">
					<path id="&lt;Path&gt;" class="s0" d="m1015.5 914.3l-90.7 38.7-9.3-20.8 90.8-38.6z"/>
					<path id="&lt;Path&gt;" class="s0" d="m1510.2 703.2l-436.4 186.2-9.2-20.6 436.6-185.7z"/>
					<path id="&lt;Path&gt;" class="s0" d="m1178.8 886.4l-89.3 38.3-9.2-20.7 89.4-38.2z"/>
					<path id="&lt;Path&gt;" class="s0" d="m1665.6 677.6l-429.4 184.2-9.2-20.5 429.6-183.7z"/>
					<path id="&lt;Path&gt;" class="s0" d="m1194.5 921.5l-89.3 38.4-9.2-20.6 89.3-38.4z"/>
					<path id="&lt;Path&gt;" class="s0" d="m1680.8 711.8l-429.1 185-9.1-20.5 429.3-184.5z"/>
					<path id="&lt;Path&gt;" class="s0" d="m1062.8 1020.4l-90.6 39.2-9.2-20.8 90.6-39.1z"/>
					<path id="&lt;Path&gt;" class="s0" d="m1556.2 806.6l-435.3 188.6-9.2-20.6 435.5-188.2z"/>
					<path id="&lt;Path&gt;" class="s0" d="m1225.7 991.7l-89.1 38.8-9.2-20.7 89.2-38.7z"/>
					<path id="&lt;Path&gt;" class="s0" d="m1711.3 780.2l-428.4 186.6-9.1-20.5 428.5-186.1z"/>
					<path id="&lt;Path&gt;" class="s0" d="m1241.4 1026.8l-89.1 38.9-9.2-20.6 89.1-38.9z"/>
					<path id="&lt;Path&gt;" class="s0" d="m1726.5 814.4l-428 187.4-9.1-20.5 428.2-186.9z"/>
					<path id="&lt;Path&gt;" class="s0" d="m1257 1061.9l-89 39.1-9.2-20.6 89-39.1z"/>
					<path id="&lt;Path&gt;" class="s0" d="m1741.7 848.6l-427.6 188.2-9.1-20.5 427.8-187.7z"/>
					<path id="&lt;Path&gt;" class="s0" d="m1418.6 1032.5l-87.6 38.6-9.1-20.4 87.6-38.6z"/>
					<path id="&lt;Path&gt;" class="s0" d="m1824.3 853.1l-349.6 154.5-9-20.3 349.8-154.2z"/>
					<path id="&lt;Path&gt;" class="s0" d="m1141.6 1197.3l-90.2 40-9.3-20.8 90.2-40z"/>
					<path id="&lt;Path&gt;" class="s0" d="m1632.9 978.9l-433.5 192.6-9.2-20.6 433.7-192.1z"/>
					<path id="&lt;Path&gt;" class="s0" d="m1303.9 1167.2l-88.8 39.6-9.2-20.6 88.8-39.6z"/>
					<path id="&lt;Path&gt;" class="s0" d="m1787.4 951.3l-426.6 190.4-9.1-20.4 426.8-190.1z"/>
					<path id="&lt;Path&gt;" class="s0" d="m1319.5 1202.3l-88.7 39.8-9.2-20.7 88.8-39.7z"/>
					<path id="&lt;Path&gt;" class="s0" d="m1802.6 985.5l-426.2 191.2-9.1-20.4 426.4-190.9z"/>
					<path id="&lt;Path&gt;" class="s0" d="m1188.8 1303.4l-90 40.6-9.2-20.9 90-40.4z"/>
					<path id="&lt;Path&gt;" class="s0" d="m1679 1082.3l-432.5 195-9.1-20.6 432.6-194.6z"/>
					<path id="&lt;Path&gt;" class="s0" d="m1350.8 1272.5l-88.6 40.1-9.1-20.6 88.5-40.1z"/>
					<path id="&lt;Path&gt;" class="s0" d="m1833.1 1053.9l-425.5 192.8-9.2-20.5 425.8-192.4z"/>
				</g>
				<path id="&lt;Path&gt;" class="s0" d="m1708 426.7l268.1 602.2c6.3 14.1-2 31.8-18.7 39.4l-378.1 172.9-284.9-639.7 409.4-181.4c1.7 1.9 3.1 4.2 4.2 6.6z"/>
				<path id="&lt;Path&gt;" class="s6" d="m1722.4 420.7l12.1 27-929.9 388.7-12.7-28.4c-9.7-21.9 4.5-48.8 31.8-60.1l836.9-346.3c24.9-10.3 52.5-1.8 61.8 19.1z"/>
				<g id="&lt;Group&gt;">
					<path id="&lt;Path&gt;" class="s0" d="m874.7 769.1c3.2 7.1-0.7 15.6-8.6 18.9-7.9 3.2-16.9 0.1-20.1-7-3.2-7.2 0.7-15.6 8.6-18.9 7.9-3.2 16.9-0.1 20.1 7z"/>
					<path id="&lt;Path&gt;" class="s0" d="m924.9 748.4c3.2 7.1-0.6 15.5-8.5 18.8-7.9 3.2-16.9 0.1-20-7-3.2-7.1 0.6-15.5 8.5-18.8 7.9-3.2 16.9-0.1 20 7z"/>
					<path id="&lt;Path&gt;" class="s0" d="m974.8 727.8c3.2 7.1-0.6 15.4-8.4 18.7-7.9 3.2-16.8 0.1-20-7-3.1-7.1 0.7-15.5 8.5-18.7 7.9-3.2 16.8-0.1 19.9 7z"/>
				</g>
				<g id="&lt;Group&gt;" style="opacity: .5;mix-blend-mode: soft-light">
					<path id="&lt;Path&gt;" class="s0" d="m1609.8 969.4c95.3 102.2 293.7 111.8 322.1 125.2l-792.3 362.7c-26.8 12.3-56.5 4.6-66.3-17.3l-281.4-632c-9.7-21.9 4.5-48.8 31.8-60.1l93.9-38.8c17.9 16.8 40.6 33.6 69.2 47.4 159 76.8 309.9-31.7 456.9 37.9 89.2 42.2 79.1 81.9 166.1 175z"/>
				</g>
				<g id="&lt;Group&gt;" style="opacity: .8">
					<path id="&lt;Path&gt;" class="s7" d="m1386.7 765.2l-50.5-113.4c-0.5-1.2-0.5-2.5-0.1-3.7 0.5-1.2 1.4-2.2 2.6-2.7l352.2-145.9c2.5-1.1 5.3 0.1 6.4 2.5l49.1 110.4c0.6 1.2 0.6 2.6 0.1 3.8-0.4 1.2-1.4 2.1-2.6 2.7l-350.9 148.8c-2.4 1-5.2-0.1-6.3-2.5z"/>
					<path id="&lt;Path&gt;" class="s8" d="m1774.5 670.4l153.9 345.6c1 2.4 0 5.2-2.4 6.3l-350.3 160.1c-1.2 0.5-2.5 0.5-3.8 0-1.2-0.4-2.2-1.4-2.7-2.6l-157.7-354c-0.5-1.2-0.5-2.5-0.1-3.7 0.5-1.2 1.4-2.1 2.6-2.6l354-151.6c2.5-1.1 5.4 0.1 6.5 2.5z"/>
				</g>
			</g>
			<g id="&lt;Group&gt;">
				<path id="&lt;Path&gt;" class="s9" d="m659 1754.6l-219.6 15.3 146-318.1z"/>
				<g id="&lt;Group&gt;">
					<g id="&lt;Group&gt;">
						<path id="&lt;Path&gt;" class="s10" d="m2295.4 1437v1087.2l-937.6 54.8h-2l-60.9-618.3 60.7-642.6 2.2 0.1z"/>
						<path id="&lt;Path&gt;" class="s11" d="m1354.3 1318.1v1260.9l-767.5-86.2v-1041l156.3-27.3 275.5-48z"/>
						<path id="&lt;Path&gt;" class="s12" d="m1017.9 1376.5l-10.3 153.6-259.1 17-6.2-122.6z"/>
					</g>
					<path id="&lt;Path&gt;" class="s13" d="m2291.4 1436.9l299.5 317.7-817.3-45.8-419.8-390.7z"/>
					<path id="&lt;Path&gt;" class="s14" d="m2295.4 2421.8v102.4l-941.1 54.8v-1260.8c0 7.9 7.6 345.7 175.7 406.3 170 61.2 316.3 158.4 316.3 429.5 0 217.1 299.8 169.6 449.1 267.8z"/>
					<path id="&lt;Path&gt;" class="s15" d="m1354.3 1325.5v1253.5l-767.5-86.2v-5.1c10.4-168.1 375.5-201.1 363.1-347-12.9-150.2 19-253.3 185.9-347.6 153.1-86.6 208.1-414.3 218.5-467.6z"/>
				</g>
			</g>
			<g id="&lt;Group&gt;">
				<path id="&lt;Path&gt;" class="s16" d="m2327.5 1727.7c-22.2-23.7 39.3-113 72.3-152 28.8-34.2 58.4-69.3 94.7-64.9 31.9 3.9 63 37.6 64.8 69.8 5 86.8-200.2 180.9-231.8 147.1z"/>
				<path id="&lt;Path&gt;" class="s17" d="m2594.6 2644.5c4.1 3.4 4.9 11.9 5.4 17.4 0.2 2.5 0.4 3.8 0.1 4.6-2 6.4-14.4 7.1-33.9 9.1-30.7 3.1-39.9 5.5-42.3 1-2.2-4.3 3.2-11.3 3.9-12.1 3.3-4.2 7.3-5.7 15.1-8.3 14.5-4.7 24.3-7.3 27.3-8.1 18.5-5 21.6-5.9 24.4-3.6z"/>
				<path id="&lt;Path&gt;" class="s18" d="m2600.7 2619.4l-7.9 34.4c-8.3 4.4-18.7-0.7-19.6-2.4l3.1-35z"/>
				<path id="&lt;Path&gt;" class="s19" d="m2350.9 2640c5 5.5 6.1 15.7 1.8 20.7-4.3 5-10.8 1.3-29.1 1.8-19.6 0.6-24.7 5.2-38 1.6-5.4-1.5-14.9-5.1-14.7-9 0.1-2.7 5-4.1 21.1-9.5 23-7.7 22.9-8.1 27.7-8.9 12.3-2 24.5-4 31.2 3.3z"/>
				<path id="&lt;Path&gt;" class="s20" d="m2362.4 2612.9l-14.6 31.7c-8.6 3.7-18.6-2.1-19.3-3.9l9.8-32.7z"/>
				<path id="&lt;Path&gt;" class="s21" d="m2599.8 1928.6c-14.4 114-41.4 199.3-64.3 257.5-25.4 64.6-49.9 106.6-62.1 186.8-7.6 50.4-3.6 71.5-15.6 112.4-19.4 66-59.5 112.7-91.3 142.4q-18.8-5.1-37.6-10.2c27.1-105.4 52.1-225.2 69.8-357.8 18-134.2 25.5-257.8 26.9-367.6q87.1 18.3 174.2 36.5z"/>
				<path id="&lt;Path&gt;" class="s21" d="m2707.9 1933.9c39.2 50.7 21.6 132.3-13.5 295.5-17.3 80.4-27.1 94.3-33.8 158.1-6 56.8-2.9 89.4-16.6 144.2-11.2 45.2-27.6 80.4-40 103.4q-19.2-2.3-38.4-4.7c-1.8-105.9-4.4-213.2-8-321.9-4.8-144.9-11.1-287.2-18.8-426.9 116.5-5.5 156.4 35.8 169.1 52.3z"/>
				<path id="&lt;Path&gt;" class="s22" d="m2731.1 1691.4c-1.9 77.6-9.4 103 2.9 152.2 11.8 47.1 24.6 47.9 45.3 110.5 18 54.5 39 117.7 14.6 141.3-21 20.2-55.7-7.8-132.2-20-136.6-21.7-229.9 33.2-254.9-3.2-4-5.8-3-8.9 1.4-66.2 2.7-34.6 3.5-69.3 7.2-103.8 25.7-241.6-22.9-339.1 39.9-381.3 27.2-18.3 65.6-16.2 142.4-11.8 53.8 3 97.8 12.9 127.8 21.3 6.3 68.6 6.5 123.9 5.6 161z"/>
				<g id="&lt;Group&gt;">
					<path id="&lt;Path&gt;" class="s23" d="m2539.6 1984c35.7-2.8 58.9 17.4 89.7 1.7 42.3-21.6 55.9-88.7 53.2-136.3-4.1-72.2-45.3-91.2-38.2-137.9 3.8-25.2 21.9-58.8 86.6-93 0.8 28.8 0.7 53.4 0.2 72.9-1.9 77.6-9.4 103 2.9 152.2 11.8 47.1 24.6 47.9 45.3 110.5 18 54.5 39 117.7 14.6 141.3-21 20.2-55.7-7.8-132.2-20-117.7-18.7-203.2 19.5-240.6 7.1 45.2-74.7 86.2-95.9 118.5-98.5z"/>
				</g>
				<path id="&lt;Path&gt;" class="s24" d="m2676.7 1535.4c25.6-21 76.9 2.8 90.6 9.1 76.4 35.4 145.1 130.7 128.1 231.4-2.6 15.1-14.4 85.8-74.2 120-54 30.9-126.9 23-185.3-20.8q-12-10.6-24-21.2-11.8-12.7-23.6-25.5c12.4-10.2 33.4-25.1 62.8-34.6 38.9-12.5 67.1 10 85.2-7.1 12.4-11.8 12.4-32.7 9.4-45.3-6.2-25.4-28.7-32.6-47.4-50.7-44-42.4-52.1-130.2-21.6-155.3z"/>
				<g id="&lt;Group&gt;">
					<path id="&lt;Path&gt;" class="s25" d="m2314.7 1863.4l308.9-4.6-82.2 39.7-227.5-14.9z"/>
					<path id="&lt;Path&gt;" class="s21" d="m2634.5 1867c0 5.8-3.6 11-9.1 13l-98.7 38.7-0.4-26.9 97.3-33c5.5-1.5 10.9 2.6 10.9 8.2z"/>
				</g>
				<path id="&lt;Path&gt;" class="s26" d="m2559.4 1876c-12.8 4.3-33.4 2.6-33.4 2.6 0 0 0 0 4.3-11.2 4.3-11.3 51.6-38.8 61.3-41.6 9.6-2.8 22 21.7 19.9 22.2-17.1 3.8-39.3 23.7-52.1 28z"/>
				<g id="&lt;Group&gt;">
					<g id="&lt;Group&gt;">
						<path id="&lt;Path&gt;" class="s21" d="m2518.1 1703.6l21.8 198.3c0.7 6.8-8.9 17-15.7 16.7l-319.5-19.6c-5.2-0.3-9.6-4.2-10.5-9.3l-40.1-191.5c-1.2-7 11.3-14.2 18.4-14l334.8 9.4c5.6 0.2 10.2 4.4 10.8 10z"/>
						<path id="&lt;Path&gt;" class="s21" d="m2510.8 1709.4l21.8 198.2c0.7 6.9-4.8 12.8-11.7 12.5l-323.5-15.4c-5.2-0.2-9.6-4.1-10.5-9.3l-33-192.3c-1.2-7 4.2-13.3 11.3-13.1l334.8 9.4c5.6 0.2 10.2 4.4 10.8 10z"/>
					</g>
					<path id="&lt;Path&gt;" class="s27" d="m2320.8 1858.3c28.3-12 18.3-34.8 51.7-63.3 44-37.5 88.8-21.2 104.5-50.3 4.9-9.1 7.2-23.2-1.3-46l24.3 0.7c5.6 0.2 10.2 4.4 10.8 10l21.8 198.2c0.7 6.9-4.8 12.8-11.7 12.5l-323.5-15.4c-5.2-0.2-9.6-4.1-10.5-9.3l-4.6-26.5c9.9-5.5 21.6-10.4 35.3-13.2 47.4-9.6 70.7 16.4 103.2 2.6z"/>
				</g>
				<path id="&lt;Path&gt;" class="s28" d="m2173.7 1875.2c-0.6-1.7 0.6-3.6 2.5-3.7 7.6-0.3 25.1-0.5 34.8 5.4 12.6 7.7 28.9 21.8 15.2 28.9l-12.8 6.6q-0.9 0.5-1.9 0.3c-4.5-1-23.7-5.2-25.8-6.3-1.9-1-9.2-22.6-12-31.2z"/>
				<g id="&lt;Group&gt;">
					<path id="&lt;Path&gt;" class="s29" d="m2591.9 1425.2c-0.1 22.8 2.4 40.8 4.8 53.2 2.7 14.1 4.7 17.8 7.3 20.8 3.8 4.4 9.5 8.2 42.2 16.3 17.7 4.4 20 4.3 20.4 6 1.9 8.6-46.5 37.9-96.5 30.8-30.6-4.3-58.5-21.7-56.7-30.9 1.7-9.2 32.2-4.3 41.4-21 6.3-11.6-0.8-28.1-9.2-41.7 8.1-15.3 38.2-18.3 46.3-33.5z"/>
					<g id="&lt;Group&gt;">
						<path id="&lt;Path&gt;" class="s21" d="m2547.9 1421.2c-3.6-11.4 1.6-27.4 13-34.6 9.8-6.1 20.8-3.6 27.5-2.1 19.1 4.5 39.6 20.4 41.7 40.2 1.2 11.8-16.6 29-19.5 32.2-3.4 3.6-7.2 3.8-11.5 5.9-5.8 3-15 7.7-30.1 15.6 0.4-3.8 0.6-8.6 0.2-14-0.1-2.1-0.8-10.2-3.5-17.8-5.4-15.1-14.4-14.5-17.8-25.4z"/>
						<path id="&lt;Path&gt;" class="s30" d="m2588.1 1474c0 0-19.2 15.6-42.8 5.4-21-9.1-7-58.6 10.5-64 5.8-1.8 15.5 0.1 22.2 4.9 4 2.8 4.9 5.1 11.5 9.6 6.1 4.1 8.2 4.1 9.6 6.5 1.8 3 1.8 8.9-7.5 21.6 5.6-2.8 11.2-2.6 14.1 0.3 0.4 0.5 1.6 2 1.8 3.8 1.1 6.6-6.5 11.9-19.4 11.9z"/>
						<path id="&lt;Path&gt;" class="s21" d="m2611.3 1451.1c-0.8 0.8-2 2.1-3.7 3.3-6 4.7-10.5 4.7-14.7 6.7-8.2 4.1-5 11.5-13.6 18.9-8.1 7-18.9 6.7-22.3 6.7-5-0.2-17-0.5-23.3-9.3-5.9-8.2-5-21 2.6-31.5 3.7 0.5 9.6 1.6 16 4.7 10.4 5 10.8 9.5 17.5 11.2 11.4 2.8 26.8-6.1 30.1-17 1.7-5.5-0.1-10.6 1.2-11 1.9-0.5 6.7 9.4 10.2 17.3z"/>
						<path id="&lt;Path&gt;" class="s31" d="m2542.6 1453.1c0 0 3.8 4 12 6.5 0.4 0.1 0.8 0.3 0.7 0.6 0 0.8-6.4 2.4-10.7-0.6-3.1-2.2-4.6-6.3-3.8-7 0.3-0.3 1.1 0 1.8 0.5z"/>
					</g>
				</g>
			</g>
			<g id="&lt;Group&gt;">
				<path id="&lt;Path&gt;" class="s32" d="m1903.6 1074.1c21.8-94 125.6-147.3 228.2-119.9 58.3 15.6 103.4 54 126.2 100.5q0.1 0 0.1 0 0.2 0.4 0.4 0.9 0.6 1.2 1.1 2.4 1.1 2.3 2 4.5 0.6 1.4 1.2 2.7 0.9 2.3 1.7 4.5 0.5 1.3 1 2.6 0.9 2.6 1.8 5.3 0.3 0.9 0.6 1.9 1.1 3.5 2 7.1 0.2 1 0.5 2 0.6 2.6 1.2 5.4 0.3 1.3 0.5 2.6 0.5 2.4 0.8 4.8 0.3 1.4 0.5 2.8 0.3 2.5 0.6 4.9 0.1 1.3 0.2 2.6 0.3 3.1 0.5 6.2 0 0.7 0 1.3 0.2 3.7 0.2 7.5-0.1 1.1-0.1 2.2-0.1 2.7-0.2 5.4-0.1 1.4-0.2 2.8-0.2 2.4-0.5 4.9-0.1 1.4-0.3 2.8-0.3 2.6-0.8 5.2-0.1 1.2-0.3 2.5-0.7 3.8-1.6 7.6c-14 60.3-62.9 105-124.3 120.8q-8.5 2.2-17.3 3.6-4.4 0.8-8.8 1.3c-20.9 2.4-42.9 1.7-65.1-2.8q-4.6-1-9.1-2.1c-1-0.2-2-0.5-3-0.8q-3-0.7-5.9-1.6-1.8-0.5-3.5-1.1-2.7-0.8-5.2-1.7-1.9-0.6-3.8-1.3-2.4-0.9-4.8-1.8-1.9-0.8-3.7-1.5-2.3-1-4.6-2-1.9-0.8-3.8-1.7-2.2-1-4.3-2.1-1.9-0.9-3.7-1.9-2.2-1.1-4.2-2.2-1.9-1-3.6-2.1-0.7-0.3-1.4-0.7 0.1 0 0.1 0c-66.3-39-104.1-111.8-87.3-184.3z"/>
				<g id="&lt;Group&gt;">
					<path id="&lt;Path&gt;" class="s33" d="m2283.4 1162.3c-21.8 93.8-125.1 147.3-227.2 120.4-98.3-25.8-158.9-117.1-138.5-204.6 20.3-87.6 114.9-143.1 214.6-123.3 103.6 20.5 172.9 113.8 151.1 207.5z"/>
					<g id="&lt;Group&gt;">
						<path id="&lt;Compound Path&gt;" class="s0" d="m2044.3 1154.7l-64.7-54.4 2.8-12 83.2-25.5-4.7 20.5-57.1 15.3 45.2 35.7z"/>
						<path id="&lt;Compound Path&gt;" class="s0" d="m2147.6 1064.4l-71.1 116.4-20.9-5 70.6-116.1z"/>
						<path id="&lt;Compound Path&gt;" class="s0" d="m2142.6 1156.3l59.3-12-47.3-39.9 4.8-20.8 68.3 61-2.9 12.6-87.1 19.9z"/>
					</g>
					<g id="&lt;Group&gt;" style="opacity: .3;mix-blend-mode: multiply">
						<path id="&lt;Path&gt;" class="s34" d="m2124.7 1289.1c-22.3 1.7-45.5-0.3-68.5-6.4-98.3-25.8-158.9-117.1-138.5-204.6 8.4-36.2 29.2-66.7 57.7-88.8 4 41.2 17 63.8 30.5 77.1 35.3 34.9 80.9 14.3 103.8 53 22.8 38.5-10.2 78.6 0.7 132.9 2.2 11.3 6.5 23.7 14.3 36.8z"/>
					</g>
				</g>
			</g>
			<g id="&lt;Group&gt;">
				<g id="&lt;Group&gt;">
					<path id="&lt;Path&gt;" class="s35" d="m908.9 421.2c-18-82.6 44.2-163.7 135.6-180.5 52-9.6 102.1 3.9 137.7 32.2q0 0 0 0 0.3 0.3 0.6 0.5 0.9 0.8 1.8 1.5 1.7 1.4 3.3 2.8 1 0.9 1.9 1.7 1.6 1.5 3.1 2.9 0.9 0.9 1.8 1.7 1.7 1.8 3.3 3.5 0.6 0.7 1.2 1.3 2.2 2.4 4.3 4.9 0.5 0.7 1.1 1.4 1.5 1.8 3 3.8 0.7 0.9 1.4 1.9 1.2 1.7 2.4 3.5 0.7 1 1.4 2 1.2 1.8 2.3 3.7 0.6 1 1.2 1.9 1.4 2.4 2.7 4.8 0.3 0.5 0.5 1 1.6 2.9 3 5.9 0.4 0.9 0.7 1.7 1 2.2 1.9 4.4 0.4 1.1 0.9 2.2 0.8 2.1 1.5 4.1 0.4 1.2 0.8 2.4 0.7 2.1 1.3 4.4 0.3 1 0.6 2 0.9 3.3 1.6 6.6c11.6 53.1-10.3 106.8-53 142.3q-5.9 4.9-12.3 9.4-3.2 2.2-6.6 4.3c-15.6 9.7-33.2 17.4-52.5 22.2q-4 0.9-8 1.7c-0.9 0.2-1.8 0.4-2.6 0.5q-2.7 0.5-5.3 1-1.6 0.2-3.3 0.4-2.3 0.4-4.7 0.6-1.7 0.2-3.4 0.4-2.3 0.2-4.5 0.4-1.8 0.1-3.6 0.2-2.2 0.1-4.3 0.1-1.8 0.1-3.6 0.1-2.2 0-4.3 0-1.8-0.1-3.6-0.1-2.1-0.1-4.2-0.2-1.8-0.1-3.6-0.3-0.7 0-1.3-0.1 0 0 0 0c-67.1-6-124.3-49.4-138.2-113.1z"/>
					<g id="&lt;Group&gt;">
						<path id="&lt;Path&gt;" class="s36" d="m1242.6 348.6c17.9 82.4-43.8 163.5-134.7 180.5-87.5 16.4-169.6-33.1-186.4-110-16.7-77 37.3-156.4 123.7-178.1 89.6-22.6 179.4 25.2 197.4 107.6z"/>
						<g id="&lt;Group&gt;" style="opacity: .2;mix-blend-mode: multiply">
							<path id="&lt;Path&gt;" class="s37" d="m1164.5 508.4c-17 9.7-36.1 16.8-56.6 20.7-87.5 16.4-169.6-33.1-186.4-110-6.9-31.8-1.8-63.8 12.4-91.9 18.6 31.1 37.4 44 53.1 49.5 41 14.4 69.4-19 102 3 32.5 21.9 21.4 66.1 50.4 105 6 8 14 16.3 25.1 23.7z"/>
						</g>
					</g>
				</g>
				<path id="&lt;Path&gt;" class="s0" d="m1046.2 330l103.6 32.2c6.5 2 8.7 12.2 3.7 17.1l-79.6 78c-4.5 4.4-11.4 1.3-13-5.8l-24-110.2c-1.5-7 3.4-13.1 9.3-11.3z"/>
			</g>
			<g id="&lt;Group&gt;">
				<g id="&lt;Group&gt;">
					<g id="&lt;Group&gt;">
						<path id="&lt;Path&gt;" class="s21" d="m926.5 2719v-900.6c0-2.4 1.9-4.3 4.3-4.3 2.3 0 4.3 1.9 4.3 4.3v900.6c0 2.3-2 4.2-4.3 4.2-2.4 0-4.3-1.9-4.3-4.2z"/>
					</g>
					<g id="&lt;Group&gt;">
						<path id="&lt;Path&gt;" class="s21" d="m683.9 2662.4v-866.8c0-2.3 1.9-4.2 4.2-4.2 2.4 0 4.3 1.9 4.3 4.2v866.8c0 2.4-1.9 4.3-4.3 4.3-2.3 0-4.2-1.9-4.2-4.3z"/>
					</g>
					<g id="&lt;Group&gt;">
						<path id="&lt;Path&gt;" class="s21" d="m125.7 2706.8c-2.2-0.8-3.4-3.3-2.5-5.5l324.3-893.7c0.8-2.2 3.3-3.4 5.5-2.6 2.2 0.8 3.4 3.3 2.6 5.5l-324.4 893.7c-0.6 1.8-2.3 2.8-4 2.8q-0.8 0-1.5-0.2z"/>
					</g>
					<g id="&lt;Group&gt;">
						<path id="&lt;Path&gt;" class="s21" d="m365.4 2776.8c-2.3-0.7-3.6-3.1-2.9-5.4l291.1-942.2c0.7-2.3 3.1-3.6 5.4-2.9 2.2 0.7 3.5 3.1 2.8 5.4l-291.1 942.2c-0.6 1.9-2.2 3.1-4.1 3.1q-0.6 0-1.2-0.2z"/>
					</g>
					<path id="&lt;Path&gt;" class="s21" d="m690.8 1794.7l243.4 18.1v5.4l-278.2 12.5-207.9-25.5v-5.4z"/>
					<path id="&lt;Path&gt;" class="s38" d="m690.8 1789.3l243.4 23.5-278.2 12.4-207.9-25.4z"/>
					<g id="&lt;Group&gt;">
						<path id="&lt;Path&gt;" class="s21" d="m428.5 2573l-231.7-60.8c-2.3-0.6-3.7-3-3.1-5.3 0.6-2.2 3-3.6 5.2-3l231.8 60.8c2.3 0.6 3.6 2.9 3 5.2-0.5 2-2.2 3.2-4.1 3.2q-0.5 0-1.1-0.1z"/>
					</g>
					<g id="&lt;Group&gt;">
						<path id="&lt;Path&gt;" class="s21" d="m494.5 2359.8l-227.4-40.3c-2.4-0.4-3.9-2.6-3.5-5 0.4-2.3 2.6-3.8 5-3.5l227.4 40.3c2.3 0.4 3.9 2.7 3.5 5-0.4 2.1-2.2 3.5-4.2 3.5q-0.4 0-0.8 0z"/>
					</g>
					<g id="&lt;Group&gt;">
						<path id="&lt;Path&gt;" class="s21" d="m563.5 2139.4q-0.2 0-0.5-0.1l-220.1-28.3c-2.2-0.3-3.7-2.3-3.5-4.5 0.3-2.2 2.3-3.7 4.5-3.4l220.1 28.3c2.2 0.3 3.7 2.3 3.4 4.5-0.2 2-1.9 3.5-3.9 3.5z"/>
					</g>
					<g id="&lt;Group&gt;">
						<path id="&lt;Path&gt;" class="s21" d="m607.2 1986.6q-0.3 0-0.6 0l-206.9-32.4c-2.2-0.4-3.7-2.4-3.4-4.6 0.4-2.2 2.4-3.6 4.6-3.3l207 32.4c2.1 0.3 3.6 2.4 3.3 4.5-0.3 2-2 3.4-4 3.4z"/>
					</g>
				</g>
				<g id="&lt;Group&gt;">
					<path id="&lt;Path&gt;" class="s39" d="m798.7 1768.9c0 0 57.3 32 58.1 36.8 0.8 4.8-37.6-3-53.3-3-15.8 0.1-28.6-5.6-26.9-13 1.7-7.4 8-26 8-26z"/>
					<path id="&lt;Path&gt;" class="s40" d="m804.5 1744.6l-3.5 29.5c0 0-9.3 3.7-15.5-0.6l-2.7-32.4z"/>
					<path id="&lt;Path&gt;" class="s41" d="m546.6 1749.1c0 0 1.9 26.8 4.6 36.3 2.8 9.5 7.9 10.5 15.7 16.9 7.9 6.4 4.5 11.8 4.5 11.8 0 0-37.9-4.2-40.7-11.3-2.1-5.1-6.8-24.9-9.2-35.1-0.9-3.9-0.4-8 1.5-11.4l6.9-12.3z"/>
					<path id="&lt;Path&gt;" class="s42" d="m558.2 1713c-2.5 2.2-14.6 43.5-14.6 43.5 0 0-4 5.6-11.5-2.7-7.5-8.3-3.4-3.7-3.4-3.7l1.4-40.7z"/>
					<path id="&lt;Path&gt;" class="s43" d="m837.9 1151c3.1 88 3.2 183.5-1.3 285.6-5.1 114.9-15.4 221.2-28.3 317.5q-7.2 0.2-15.1 0-5.3-0.2-10.3-0.6c-6.7-19.9-14.6-46.2-21.7-77.6-7.4-32.9-11.9-62.5-15.1-90.8-11.3-99.6 1.9-108.3-7.3-182.1-8.1-65.4-19.6-68-33.1-160.8-14.7-100.7-3.8-115.8 1.5-121.3 22.7-23.2 75.8-7.4 130.7 30.1z"/>
					<path id="&lt;Path&gt;" class="s44" d="m707.2 1120.9c21.6-22.1 71-8.7 123.1 25.1-60 72.4-66.5 119.4-59.3 149.9 8.1 34.5 32.8 44.4 32.7 82.1-0.1 46.3-37.5 58.6-36.7 107.6 0.5 32.4 17 32.1 20.9 72.1 4.5 47.3-16.9 63.7-10 98.7 3 15.1 11.6 34.8 35.9 55.1-1.8 14.3-3.6 28.6-5.5 42.6q-7.2 0.2-15.1 0-5.3-0.2-10.3-0.6c-6.7-19.9-14.6-46.2-21.7-77.6-7.4-32.9-11.9-62.5-15.1-90.8-11.3-99.6 1.9-108.3-7.3-182.1-8.1-65.4-19.6-68-33.1-160.8-14.7-100.7-3.8-115.8 1.5-121.3z"/>
					<path id="&lt;Path&gt;" class="s45" d="m800.7 1149.5c-51.6 84.5-107.3 189.6-157.1 315.5-37.6 95.1-64.9 184.4-85 264-2.7 1.4-9.1 4.2-17.3 3-11.1-1.7-17.8-9.6-19.6-11.9-8.1-57-7.2-105.3-4.4-140.2 1.7-22.3 4.9-59.5 17.6-105.4 14.3-51.4 24.1-54.3 42.7-108.7 19.3-56.4 14.6-70.5 33.1-141.2 7.6-29 20.3-72.2 41.3-123.9q74.4 24.4 148.7 48.8z"/>
					<path id="&lt;Path&gt;" class="s46" d="m909.6 602.7c20.2 21.8 25.8 58 18.3 86.3-8.4 32.3-30.6 32.9-73.8 75.8-38.3 37.9-60.4 76.5-75.8 103.4-38.8 67.9-28.8 85-62.2 121.7-11.7 12.9-54.7 60.2-99.6 49.3-27.4-6.7-32.8-29.5-54.6-28.2-30.5 1.7-32.8 47.5-65.5 63.4-41.4 20.1-103.8-21.1-137.2-61.2-40.6-48.8-71.4-136.2-36.8-206 18.9-38.2 59.1-74.6 102.6-74 37.1 0.5 49.3 27.5 75.8 19.2 39.5-12.2 29.7-78.1 68.6-94.3 31.1-12.9 48.4 24.5 115.1 32.4 27.6 3.3 68.5 8.2 99.9-17.1 23.5-18.9 24.7-50.6 44.4-71.9 18.5-20 45.8-24.1 68.8-8.9 4.4 2.9 8.4 6.3 12 10.1z"/>
					<path id="&lt;Path&gt;" class="s47" d="m1289.7 791.4c0 0 14.5-8 24.3-14.4 9.8-6.4 47.7-19.5 47.7-19.5 0 0 0 4.9-8.6 8.7-8.6 3.8-25.5 9.3-25.1 15.3 0.5 5.9 6.1 13.7-3.6 19.9-9.7 6.2-16.3-4.3-24.5 0.5-8.2 4.7-16.9 10.1-16.9 10.1z"/>
					<path id="&lt;Path&gt;" class="s48" d="m1290.1 781.9q1.7 19.1 3.4 38.1c-15.7 17.1-39.4 39.8-71.8 60.2-14.2 9-57.5 34.8-114.7 44.8-77.9 13.7-202.2 1.9-212.2-57-8.9-52.5 55.3-119.8 71-131.5 30.8 15.2 56.3 42.7 90.1 62.2 11.1 6.4 40.1 22.8 79.4 27.3 72.8 8.3 133.3-29.4 154.8-44.1z"/>
					<path id="&lt;Path&gt;" class="s49" d="m1002.5 776.2c-3.3 16.3-53.9 7.5-64.4 37.1-5.6 15.9 6.3 25.9 6.8 52.9 0.6 30.1-13.8 47.3-24.8 71-16.2 34.7-16.2 68.8-16.4 136.9-0.1 97 21.3 116.5 3 147.7-23.8 40.7-81 43.3-96.5 44-52.9 2.4-59.1-25.7-116.5-29-65.6-3.8-74.9 31.8-121.8 16.6-42.8-13.9-57.2-50.8-90.5-43.2-20.9 4.8-26.4 21.8-46 19.9-19.8-1.8-40.2-21.4-41.6-41.5-1.7-24.9 25.5-56.3 68.3-56.4 17 6.7 45.1 14.4 76.4 5.8 51.3-14 78-62.8 107.7-117 20.5-37.5 58.2-106.4 58.6-196.7 0.2-37.2-6.1-48.1 3-68 29.5-64.7 143.9-55 153.5-54.1 78 7.5 145.1 54.3 141.2 74z"/>
					<g id="&lt;Group&gt;">
						<path id="&lt;Path&gt;" class="s50" d="m1033.8 866.5l-70.5 196c-0.5 1.5-1.7 2.5-3.2 2.7l-142 21.6c-2.9 0.4-5.9-7.2-4.9-10.2l67.6-209.9c0.6-1.7 2-2.8 3.5-2.9l143.7-6.3c2.8-0.1 6.8 6.1 5.8 9z"/>
						<path id="&lt;Path&gt;" class="s51" d="m1034 868.6l-68.4 199c-0.6 1.5-1.8 2.6-3.2 2.7l-142.9 17.2c-2.9 0.4-5.1-2.7-4.1-5.8l67.7-209.9c0.5-1.6 1.9-2.8 3.5-2.9l143.7-6.2c2.7-0.1 4.7 3 3.7 5.9z"/>
						<path id="&lt;Path&gt;" class="s52" d="m989.1 872l-52 1.8c-1.5 0-2.5-1.5-2.1-3l5.3-18.5c0.3-1 1.1-1.7 2-1.7h52.3c1.4 0 2.4 1.7 1.9 3.2l-5.5 16.7c-0.3 0.9-1.1 1.5-1.9 1.5z"/>
						<path id="&lt;Path&gt;" class="s53" d="m902.5 1036.7c9.4-33.8-6-55.9 9.7-82.2 22.1-37.1 69.8-21.4 84.6-51.4 4-8.1 5.9-20.2 0.5-39l33-1.4c2.7-0.1 4.7 3 3.7 5.9l-68.4 199c-0.6 1.5-1.8 2.6-3.2 2.7l-86.9 10.5c15.5-15.1 23.2-30.3 27-44.1z"/>
					</g>
					<path id="&lt;Path&gt;" class="s54" d="m797.6 1011.6c0 0 21.7-4.9 30.1-10.8 8.4-5.9 17.2-15.3 29.6-14.8 12.3 0.5 24.7 7.5 19 9.1-5.7 1.6-16.3 14.3-24.4 19.3-8.2 5-26.8 5.4-30.2 5.1-3.5-0.2-17.2 9-17.2 9z"/>
					<path id="&lt;Compound Path&gt;" class="s55" d="m906.7 1221.8c-23.8 40.7-81 43.3-96.5 44-52.9 2.4-59.1-25.7-116.5-29-65.6-3.8-74.9 31.8-121.8 16.6-42.8-13.9-57.2-50.8-90.5-43.2-20.9 4.8-26.4 21.8-46 19.9-19.8-1.8-40.2-21.4-41.6-41.5-1.7-24.9 25.5-56.3 68.3-56.4 17 6.7 45.1 14.4 76.4 5.8 51.3-14 78-62.8 107.7-117 20.5-37.5 58.2-106.4 58.6-196.7 0.2-37.2-6.1-48.1 3-68 1.4-3.2 3.1-6.1 5-9 22.4 17 31 33.9 33.6 48.8 6.2 36.2-23 65.8-7.8 97.1 14.5 29.9 50.4 21.6 57.9 47.3 8.1 27.7-31.7 44.4-33.4 87.1-2.1 51.4 53.1 76.5 43.4 110.8 17-7 96.8 51.9 106.5 41.6 2.1 16.7 1.7 28.1-6.3 41.8z"/>
					<path id="&lt;Path&gt;" class="s56" d="m798.2 1001.5q10 19.9 20 39.8c-10.3 5.7-120.4 63.9-200.2 6.3-9.9-7.2-36.1-26.1-50.3-63.2-15.5-40.9-6.8-79-1.1-103.7 14-61.1 53.7-125.2 110-151 21.5-9.8 47.1-14.8 71.1-19.5 20.4-4 52.4-8.8 53.1-5.4 0.3 1.7-7.2 3.8-12.3 7.1-31.8 20.1 8.5 103-28.8 142.7-35.7 38.1-82.1 31.8-89.5 66.3-3.5 16 3.7 30.5 6.9 36.9 17.9 35.9 66 51.9 121.1 43.7z"/>
					<path id="&lt;Path&gt;" class="s57" d="m886.7 655.9l-4.6 23.9c5.3 13.8 12.4 22.1 16.9 26.6 6.6 6.5 13.7 10.7 17.5 12.9 0 0 3.7 2.2 17.9 9.1-49.7 14.9-138.5-17.4-135.3-20.3 3.2-2.9 28.6-10.4 44.8-16.9 16.1-6.6 29-48.6 29-48.6z"/>
					<path id="&lt;Path&gt;" class="s58" d="m860.9 655.5c-0.5-1-3-5.3-1.5-7.7 1.2-1.9 4.7-2.2 8.2-0.1-2.5-15.3 8.9-25.7 12.7-27.2 5.4-2.3 12.7-1.3 16.3 1.3 10.9 7.6 11.7 52.3-4.2 54.9-17.8 2.9-25.3-15.8-25.3-15.8-1.3-0.6-4.2-2-6.2-5.4z"/>
				</g>
			</g>
			<g id="&lt;Group&gt;">
				<g id="&lt;Group&gt;">
					<path id="&lt;Path&gt;" class="s59" d="m2263.8 950.3c-5.3 0-10.3-1.6-14.5-4.7l-399.7-299.5c-5.6-4.2-9.1-10.3-10.1-17.2-0.9-7.4 1.2-15.1 6-21.1l178.5-227.5 431.1 341.6-169.4 217.5c-5.4 6.8-13.6 10.9-21.9 10.9z"/>
					<path id="&lt;Path&gt;" class="s0" d="m2439.4 725.3l-162.5 207.1c-5.4 6.9-14.7 8.8-20.9 4.2l-399.7-299.5c-6.8-5.1-7.7-15.1-2-22.4l171.6-218.6z"/>
					<path id="&lt;Path&gt;" class="s60" d="m2458.4 717.8l-16.7 21.2-430.8-342 17.6-22.4c5.7-7.3 15.9-8.7 22.8-3.2l405.6 325c6.2 4.9 6.9 14.5 1.5 21.4z"/>
					<path id="&lt;Path&gt;" class="s0" d="m2052.6 399c-2.6 3.2-7 3.9-9.9 1.6-3-2.4-3.3-6.9-0.8-10.1 2.6-3.2 7-3.9 9.9-1.6 3 2.4 3.3 6.9 0.8 10.1z"/>
				</g>
				<g id="&lt;Group&gt;">
					<path id="&lt;Path&gt;" class="s61" d="m1951 662.9l-30.9-23.3 128-163 30.3 24z"/>
					<path id="&lt;Path&gt;" class="s62" d="m1951 662.9l-30.9-23.3 60.8-77.4 30.6 23.6z"/>
					<path id="&lt;Path&gt;" class="s63" d="m1993.6 695.1l-30.6-23.1 127.3-162.1 30 23.7z"/>
					<path id="&lt;Path&gt;" class="s64" d="m1993.6 695.1l-30.6-23.1 30.2-38.5 30.5 23.2z"/>
					<path id="&lt;Path&gt;" class="s65" d="m2035.7 726.9l-30.2-22.9 126.5-161.2 29.8 23.4z"/>
					<path id="&lt;Path&gt;" class="s66" d="m2035.7 726.9l-30.2-22.9 15.8-20 30.1 22.8z"/>
					<path id="&lt;Path&gt;" class="s67" d="m2077.4 758.3l-29.9-22.6 125.9-160.3 29.4 23.1z"/>
					<path id="&lt;Path&gt;" class="s68" d="m2077.4 758.3l-29.9-22.6 98.6-125.6 29.5 23.1z"/>
					<path id="&lt;Path&gt;" class="s69" d="m2118.6 789.4l-29.6-22.3 125.2-159.5 29.1 22.9z"/>
					<path id="&lt;Path&gt;" class="s70" d="m2118.6 789.4l-29.6-22.3 87-110.8 29.2 22.8z"/>
					<path id="&lt;Path&gt;" class="s71" d="m2159.4 820.2l-29.3-22.1 124.6-158.7 28.8 22.8z"/>
					<path id="&lt;Path&gt;" class="s72" d="m2159.4 820.2l-29.3-22.1 106.5-135.6 28.8 22.6z"/>
					<path id="&lt;Path&gt;" class="s73" d="m2199.8 850.7l-29-21.9 123.9-157.8 28.5 22.5z"/>
					<path id="&lt;Path&gt;" class="s74" d="m2199.8 850.7l-29-21.9 76.1-96.9 28.7 22.2z"/>
					<path id="&lt;Path&gt;" class="s75" d="m2239.7 880.9l-28.6-21.7 123.2-157 28.2 22.2z"/>
					<path id="&lt;Path&gt;" class="s76" d="m2239.7 880.9l-28.6-21.7 42.7-54.5 28.6 21.9z"/>
				</g>
			</g>
			<g id="&lt;Group&gt;">
				<g id="&lt;Group&gt;">
					<g id="&lt;Group&gt;">
						<path id="&lt;Path&gt;" class="s77" d="m1151.5 1201.5c-35.3-67.3-0.8-152.4 74.4-188.7 42.8-20.8 89.4-21 127-5q0 0 0 0 0.3 0.2 0.7 0.3 0.9 0.5 1.9 0.9 1.8 0.8 3.5 1.6 1 0.6 2.1 1.1 1.7 0.8 3.3 1.8 1 0.5 2 1 1.8 1.1 3.7 2.2 0.7 0.4 1.3 0.8 2.5 1.6 4.9 3.3 0.7 0.4 1.3 0.9 1.8 1.3 3.5 2.6 0.8 0.6 1.7 1.3 1.5 1.2 2.9 2.4 0.9 0.7 1.7 1.5 1.5 1.3 2.9 2.6 0.7 0.7 1.5 1.4 1.7 1.7 3.4 3.5 0.4 0.3 0.7 0.7 2.1 2.2 4 4.4 0.5 0.7 1.1 1.4 1.3 1.6 2.6 3.3 0.7 0.9 1.3 1.7 1.2 1.6 2.3 3.2 0.6 0.9 1.2 1.9 1.2 1.7 2.2 3.5 0.6 0.8 1.1 1.6 1.5 2.6 2.9 5.3c22.7 43.2 16.5 95-12 136q-4 5.6-8.4 11-2.3 2.7-4.7 5.3c-11.2 12.2-24.7 23-40.2 31.7q-3.2 1.8-6.5 3.5-1.1 0.5-2.2 1.1-2.2 1-4.4 2-1.3 0.6-2.7 1.2-1.9 0.8-3.9 1.6-1.5 0.6-2.9 1.2-1.9 0.7-3.8 1.4-1.5 0.5-3 1-1.9 0.6-3.8 1.2-1.5 0.4-3.1 0.9-1.8 0.5-3.7 1-1.6 0.4-3.1 0.8-1.9 0.4-3.7 0.8-1.6 0.3-3.2 0.6-0.6 0.1-1.2 0.2 0 0 0 0c-59.5 10.8-119.4-13.1-146.6-65z"/>
						<g id="&lt;Group&gt;">
							<path id="&lt;Path&gt;" class="s78" d="m1423.3 1059c35.2 67.1 1 152.1-73.7 188.5-71.9 35.1-154.9 11.8-187.7-50.9-32.9-62.7-5-144.4 64.7-183.8 72.3-41 161.5-20.9 196.7 46.2z"/>
							<g id="&lt;Group&gt;" style="opacity: .3;mix-blend-mode: multiply">
								<path id="&lt;Path&gt;" class="s79" d="m1393.7 1216.1c-12.4 12.5-27.2 23.2-44.1 31.4-71.9 35.1-154.9 11.8-187.7-50.9-13.6-25.9-16.8-54.8-11.2-82.6 23.5 22.6 42.9 29.3 57.8 30.3 38.9 2.7 55.6-33 89.1-21.7 33.4 11.2 34.3 52.2 68.7 78.9 7.1 5.6 16 10.8 27.4 14.6z"/>
							</g>
						</g>
					</g>
				</g>
				<g id="&lt;Group&gt;">
					<path id="&lt;Path&gt;" class="s0" d="m1392.6 1122.5c0.1 0.9-0.8 1-1.5 1.5l-42.1 26.6-35.4 22.5-69.1 43.8c-0.8 0.5-1.3 1.2-2 0.8-0.8-0.5-0.8-0.6-0.8-1.5l1.9-108.4c0-0.8 0.5-1.5 1.1-2 0.7-0.4 1.6-0.4 2.3-0.1l68.1 30.6 0.8-45.6c0.1-0.8 0.5-1.5 1.1-1.9 0.7-0.5 1.6-0.5 2.3-0.2l72.3 32.6c0.8 0.3 0.9 0.4 1 1.3z"/>
					<path id="&lt;Path&gt;" class="s0" d="m1320.8 1033.9c7.1 11.2 3.8 26.2-7.5 33.3-11.3 7.1-26.2 3.8-33.3-7.5-7.2-11.2-3.8-26.2 7.4-33.3 11.3-7.1 26.2-3.8 33.4 7.5z"/>
				</g>
			</g>
			<g id="&lt;Group&gt;">
				<g id="&lt;Group&gt;">
					<g id="&lt;Group&gt;">
						<g id="&lt;Group&gt;">
							<path id="&lt;Path&gt;" class="s80" d="m1617.5 170.7c22.7-63.4 98.9-91.9 167.7-64.7 39.2 15.5 67.3 45.7 79.4 79.8q0 0 0.1 0 0.1 0.3 0.2 0.6 0.3 0.9 0.6 1.8 0.5 1.7 1 3.3 0.3 1 0.6 2 0.4 1.6 0.8 3.2 0.3 1 0.5 1.9 0.4 1.9 0.8 3.8 0.1 0.7 0.3 1.4 0.4 2.5 0.8 5.1 0.1 0.7 0.1 1.3 0.3 2 0.5 3.9 0 0.9 0.1 1.9 0.1 1.7 0.2 3.4 0 0.9 0.1 1.9 0 1.8 0 3.5 0 0.9 0 1.8-0.1 2.2-0.2 4.3-0.1 0.5-0.1 0.9-0.2 2.6-0.5 5.2-0.1 0.8-0.2 1.6-0.3 1.8-0.6 3.7-0.2 0.9-0.4 1.9-0.3 1.7-0.7 3.4-0.2 0.9-0.4 1.9-0.5 1.8-1 3.5-0.2 0.9-0.5 1.7-0.7 2.6-1.6 5.1c-14.6 40.7-52.1 67.8-95.9 73.8q-6.1 0.8-12.3 1.1-3.1 0.1-6.2 0.1c-14.7 0-29.8-2.3-44.9-7.2q-3.1-1-6.1-2.1-1-0.4-2-0.8-2-0.8-4-1.6-1.2-0.5-2.4-1.1-1.7-0.7-3.4-1.5-1.3-0.6-2.5-1.3-1.6-0.8-3.2-1.6-1.2-0.7-2.5-1.4-1.5-0.8-3-1.7-1.2-0.7-2.4-1.5-1.5-0.9-2.9-1.8-1.2-0.8-2.4-1.6-1.4-0.9-2.7-1.9-1.2-0.8-2.4-1.7-0.4-0.3-0.8-0.6 0 0 0 0c-42.8-32.4-63.1-85.8-45.6-134.7z"/>
							<g id="&lt;Group&gt;">
								<path id="&lt;Path&gt;" class="s81" d="m1873.5 262.4c-22.6 63.3-98.5 92-167.1 65.1-66-25.8-100.6-93.9-79.5-153 21.1-59 91.2-89.8 158.7-68.1 70.1 22.6 110.6 92.8 87.9 156z"/>
								<g id="&lt;Group&gt;" style="opacity: .3;mix-blend-mode: multiply">
									<path id="&lt;Path&gt;" class="s82" d="m1753.3 337.4c-15.6-0.6-31.4-3.8-46.9-9.9-66-25.8-100.6-93.9-79.5-153 8.7-24.3 25.6-43.8 47.2-56.8-0.6 28.9 6.6 45.6 14.9 55.9 21.6 27 54.9 16.4 67.7 45.1 12.7 28.5-13.5 53.6-10.3 92.1 0.6 8 2.6 16.9 6.9 26.6z"/>
								</g>
							</g>
						</g>
					</g>
				</g>
				<g id="&lt;Group&gt;">
					<path id="&lt;Compound Path&gt;" fill-rule="evenodd" class="s0" d="m1845.6 224l-1 6.4c-0.4 1.9-2.1 3.1-4 2.7l-3.5-0.8q-1.4 4.5-3.7 8.4l2.6 2.3c1.5 1.3 1.7 3.5 0.5 5l-4.1 4.8c-1.2 1.5-3.4 1.6-4.9 0.3l-2.4-2.2q-3.6 3-7.7 5.2l1.1 3c0.7 1.8-0.2 3.8-2 4.4l-6.1 2c-1.8 0.6-3.8-0.4-4.5-2.3l-1.1-2.8q-4.7 0.8-9.6 0.5l-0.5 2.9c-0.3 1.9-2.1 3.1-4 2.7l-6.6-1.4c-1.9-0.5-3.2-2.3-2.9-4.2l0.5-2.9q-4.8-1.8-9-4.5l-1.9 2.2c-1.2 1.4-3.4 1.5-5 0.2l-5.2-4.5c-1.5-1.3-1.8-3.5-0.5-5l1.9-2.3c-2.1-2.5-4.1-5.3-5.7-8.2l-3 1c-1.9 0.6-3.9-0.5-4.7-2.4l-2.4-6.4c-0.8-1.9 0.2-3.9 2-4.5l3.2-1q-0.9-4.7-0.9-9.6l-3.6-0.8c-1.9-0.4-3.3-2.4-3-4.3l1-6.6c0.3-1.9 2.2-3.1 4.1-2.7l3.8 0.9q1.5-4.5 3.9-8.3l-3.1-2.7c-1.5-1.4-1.8-3.7-0.5-5.1l4.2-5c1.3-1.5 3.5-1.5 5.1-0.2l3.2 2.9q3.5-2.8 7.5-4.8l-1.5-4.1c-0.7-1.9 0.2-4 2.1-4.5l6.2-2c1.9-0.6 4 0.5 4.7 2.4l1.5 4.2q4.5-0.6 9.1-0.2l0.7-4.3c0.3-1.9 2.1-3.1 4-2.7l6.6 1.6c1.9 0.4 3.3 2.4 3 4.3l-0.7 4.2q4.4 1.8 8.2 4.3l2.7-3.1c1.3-1.5 3.5-1.5 5-0.2l5.1 4.6c1.5 1.4 1.7 3.6 0.5 5l-2.6 3.1q3.1 3.6 5.4 7.7l3.7-1.2c1.8-0.5 3.8 0.5 4.5 2.4l2.3 6.4c0.7 1.8-0.2 3.8-2 4.4l-3.6 1.1q1 4.6 1.1 9.3l3.6 0.8c1.9 0.4 3.2 2.3 2.9 4.2zm-24.2-1.4c2.3-14.4-7.6-28.7-22.1-32.1-14.6-3.3-28.3 5.7-30.6 20.3-2.2 14.4 7.8 28.8 22.4 31.9 14.4 3.2 28-5.8 30.3-20.1z"/>
					<path id="&lt;Compound Path&gt;" fill-rule="evenodd" class="s0" d="m1741.8 237.6l-0.7 4.7c-0.2 1.3-1.5 2.2-2.9 1.9l-2.5-0.6q-1 3.3-2.7 6.1l1.9 1.6c1.1 1 1.3 2.6 0.4 3.6l-3 3.5c-0.8 1.1-2.4 1.1-3.5 0.2l-1.9-1.6q-2.5 2.2-5.5 3.8l0.8 2.1c0.5 1.4-0.1 2.8-1.5 3.2l-4.4 1.5c-1.4 0.4-2.9-0.3-3.4-1.7l-0.8-2q-3.4 0.6-7 0.4l-0.4 2c-0.2 1.4-1.5 2.3-2.9 2l-4.8-1c-1.4-0.3-2.4-1.7-2.2-3l0.3-2.1q-3.5-1.3-6.5-3.3l-1.4 1.6c-0.9 1.1-2.5 1.2-3.7 0.2l-3.8-3.2c-1.1-1-1.3-2.6-0.4-3.6l1.4-1.7q-2.4-2.7-4.2-5.9l-2.2 0.7c-1.4 0.4-2.9-0.3-3.5-1.7l-1.8-4.5c-0.5-1.4 0.1-2.8 1.5-3.3l2.3-0.7q-0.7-3.4-0.7-6.9l-2.6-0.6c-1.5-0.3-2.5-1.6-2.3-3l0.7-4.8c0.2-1.3 1.6-2.2 3-1.9l2.8 0.6q1-3.2 2.8-6l-2.3-1.9c-1.2-0.9-1.4-2.6-0.5-3.6l3.1-3.6c0.9-1 2.5-1.1 3.7-0.1l2.4 2q2.5-2 5.4-3.5l-1.1-2.9c-0.6-1.4 0.1-2.8 1.4-3.2l4.6-1.4c1.3-0.5 2.9 0.3 3.4 1.7l1.2 2.9q3.2-0.4 6.6-0.2l0.5-3c0.2-1.4 1.5-2.3 2.9-2l4.8 1.1c1.5 0.3 2.4 1.7 2.2 3.1l-0.4 3.1q3.2 1.2 6.1 3l1.9-2.3c0.9-1 2.5-1.1 3.6-0.1l3.8 3.3c1.1 0.9 1.3 2.6 0.4 3.6l-1.9 2.2q2.3 2.6 4 5.5l2.8-0.8c1.3-0.4 2.8 0.3 3.3 1.7l1.8 4.5c0.5 1.4-0.1 2.8-1.5 3.2l-2.6 0.8q0.8 3.3 0.9 6.7l2.7 0.6c1.4 0.3 2.3 1.6 2.1 3zm-17.8-1c1.5-10.3-5.8-20.6-16.4-22.9-10.7-2.4-20.7 4.1-22.3 14.6-1.5 10.4 5.9 20.6 16.6 22.9 10.6 2.3 20.5-4.3 22.1-14.6z"/>
				</g>
			</g>
		</g>
	</g>
</svg>